<?xml version="1.0" encoding="us-ascii" standalone="no"?><svg xmlns="http://www.w3.org/2000/svg" xmlns:xlink="http://www.w3.org/1999/xlink" contentStyleType="text/css" height="466px" preserveAspectRatio="none" style="width:495px;height:466px;background:#FFFFFF;" version="1.1" viewBox="0 0 495 466" width="495px" zoomAndPan="magnify"><defs/><g><g id="cluster_##2"><path d="M139.922,20.06 C144.6432,13.9974 148.9812,12.1867 154.2933,19.4214 C159.1236,12.0826 164.4686,13.3885 169.2767,19.4464 C172.7711,13.0491 176.7953,10.8213 182.5469,17.0795 C186.3968,10.6402 191.0364,9.291 196.0148,15.916 C199.0603,9.6823 204.9885,7.7133 209.2853,14.6558 C212.8937,7.6747 218.7209,7.9876 222.2762,14.7062 C225.9622,7.773 230.3216,6.1094 236.2632,12.3026 C240.9775,6 248.2258,6.3911 250.495,14.6863 C255.0742,8.7241 260.2647,8.1253 264.7365,14.8071 C269.4366,10.2575 273.8919,9.3146 277.0224,16.4565 C281.655,10.3093 287.4905,10.7084 290.5891,18.0046 C294.6545,11.1898 301.9248,10.8189 305.3154,18.6817 C309.5109,12.6607 315.0491,12.4596 319.3034,18.6142 C324.1244,12.6701 328.2969,13.2792 332.1957,19.5848 C342.6864,23.503 343.0055,29.2294 335.5453,36.6675 C342.4524,40.1556 342.2373,47.064 336.2918,51.2118 C344.3026,56.8875 342.1676,62.0628 335.2633,66.7514 C340.948,72.6626 340.0996,79.0273 332.3173,82.4039 C328.9724,90.338 322.4996,89.1487 317.9718,83.6688 C314.8566,89.5471 308.8744,89.2645 305.5337,83.9187 C302.2056,91.4124 296.4274,90.3121 292.1393,84.9163 C289.4059,93.3398 282.5083,93.7551 277.2259,87.5075 C273.4667,94.2411 267.5752,93.983 263.3214,88.0505 C259.3755,93.1054 254.7593,94.2598 251.262,87.5891 C247.5471,95.1914 240.6224,96.0884 235.6288,88.9447 C231.8204,94.9038 225.4115,93.8357 222.2891,88.1583 C218.0662,95.4406 212.1158,93.9939 208.6166,87.4429 C203.7054,94.2777 198.2769,93.5442 194.5596,86.2546 C189.3738,92.7053 184.9864,92.193 180.9393,85.1087 C177.1674,90.6741 171.1859,91.8232 167.3328,85.1993 C162.9019,90.3526 156.2403,88.9174 153.8659,82.7524 C150.2836,89.3343 145.5046,89.1388 141.8626,82.8079 C132.3476,79.7644 130.5255,73.008 138.3445,66.2758 C131.1589,61.6738 131.2851,55.6452 138.2932,50.9956 C131.5552,46.6186 130.9317,39.0202 138.4723,34.8011 C131.4767,30.3393 132.2465,23.079 139.922,20.06 " fill="none" style="stroke:#181818;stroke-width:1.0;"/></g><!--cluster azure_cloud_connector--><g id="cluster_azure_cloud_connector"><rect fill="none" height="113" rx="2.5" ry="2.5" style="stroke:#181818;stroke-width:1.0;" width="291" x="80.5" y="218.8128"/><path d="M336.5,218.8128 L336.5,228.1097 L326.5,238.1097 L80.5,238.1097 " fill="none" style="stroke:#181818;stroke-width:1.0;"/><text fill="#000000" font-family="sans-serif" font-size="14" font-weight="bold" lengthAdjust="spacing" textLength="246" x="83.5" y="232.8079">Azure Digital Twins Connector</text></g><!--cluster freyja--><g id="cluster_freyja"><rect fill="none" height="97" rx="2.5" ry="2.5" style="stroke:#181818;stroke-width:1.0;" width="307" x="182.5" y="363.8128"/><path d="M241.5,363.8128 L241.5,373.1097 L231.5,383.1097 L182.5,383.1097 " fill="none" style="stroke:#181818;stroke-width:1.0;"/><text fill="#000000" font-family="sans-serif" font-size="14" font-weight="bold" lengthAdjust="spacing" textLength="49" x="185.5" y="377.8079">Freyja</text></g><!--entity Azure Digital Twins--><g id="elem_Azure Digital Twins"><rect fill="#F1F1F1" height="46.2969" rx="2.5" ry="2.5" style="stroke:#181818;stroke-width:0.5;" width="176" x="147.5" y="26.8128"/><rect fill="#F1F1F1" height="10" style="stroke:#181818;stroke-width:0.5;" width="15" x="303.5" y="31.8128"/><rect fill="#F1F1F1" height="2" style="stroke:#181818;stroke-width:0.5;" width="4" x="301.5" y="33.8128"/><rect fill="#F1F1F1" height="2" style="stroke:#181818;stroke-width:0.5;" width="4" x="301.5" y="37.8128"/><text fill="#000000" font-family="sans-serif" font-size="14" lengthAdjust="spacing" textLength="136" x="162.5" y="59.8079">Azure Digital Twins</text></g><!--entity Azure Digital Twins Client--><g id="elem_Azure Digital Twins Client"><rect fill="#F1F1F1" height="46.2969" rx="2.5" ry="2.5" style="stroke:#181818;stroke-width:0.5;" width="223" x="124" y="261.8128"/><rect fill="#F1F1F1" height="10" style="stroke:#181818;stroke-width:0.5;" width="15" x="327" y="266.8128"/><rect fill="#F1F1F1" height="2" style="stroke:#181818;stroke-width:0.5;" width="4" x="325" y="268.8128"/><rect fill="#F1F1F1" height="2" style="stroke:#181818;stroke-width:0.5;" width="4" x="325" y="272.8128"/><text fill="#000000" font-family="sans-serif" font-size="14" lengthAdjust="spacing" textLength="183" x="139" y="294.8079">Azure Digital Twins Client</text></g><!--entity Emitter--><g id="elem_Emitter"><rect fill="#F1F1F1" height="46.2969" rx="2.5" ry="2.5" style="stroke:#181818;stroke-width:0.5;" width="96" x="377.5" y="398.8128"/><rect fill="#F1F1F1" height="10" style="stroke:#181818;stroke-width:0.5;" width="15" x="453.5" y="403.8128"/><rect fill="#F1F1F1" height="2" style="stroke:#181818;stroke-width:0.5;" width="4" x="451.5" y="405.8128"/><rect fill="#F1F1F1" height="2" style="stroke:#181818;stroke-width:0.5;" width="4" x="451.5" y="409.8128"/><text fill="#000000" font-family="sans-serif" font-size="14" lengthAdjust="spacing" textLength="56" x="392.5" y="431.8079">Emitter</text></g><!--entity Cloud Adapter--><g id="elem_Cloud Adapter"><rect fill="#F1F1F1" height="46.2969" rx="2.5" ry="2.5" style="stroke:#181818;stroke-width:0.5;" width="143" x="199" y="398.8128"/><rect fill="#F1F1F1" height="10" style="stroke:#181818;stroke-width:0.5;" width="15" x="322" y="403.8128"/><rect fill="#F1F1F1" height="2" style="stroke:#181818;stroke-width:0.5;" width="4" x="320" y="405.8128"/><rect fill="#F1F1F1" height="2" style="stroke:#181818;stroke-width:0.5;" width="4" x="320" y="409.8128"/><text fill="#000000" font-family="sans-serif" font-size="14" lengthAdjust="spacing" textLength="103" x="214" y="431.8079">Cloud Adapter</text></g><!--entity cloud_connector.proto--><g id="elem_cloud_connector.proto"><ellipse cx="88.5" cy="421.8128" fill="#F1F1F1" rx="8" ry="8" style="stroke:#181818;stroke-width:0.5;"/><text fill="#000000" font-family="sans-serif" font-size="14" lengthAdjust="spacing" textLength="165" x="6" y="451.8079">cloud_connector.proto</text></g><!--reverse link Cloud Adapter to Emitter--><g id="link_Cloud Adapter_Emitter"><path d="M347.461,421.8128 C357.431,421.8128 367.4,421.8128 377.37,421.8128 " fill="none" id="Cloud Adapter-backto-Emitter" style="stroke:#181818;stroke-width:1.0;"/><polygon fill="#181818" points="342.248,421.8128,351.248,425.8128,347.248,421.8128,351.248,417.8128,342.248,421.8128" style="stroke:#181818;stroke-width:1.0;"/></g><!--reverse link Azure Digital Twins to Azure Digital Twins Client--><g id="link_Azure Digital Twins_Azure Digital Twins Client"><path d="M235.5,78.3328 C235.5,124.9888 235.5,218.7098 235.5,261.5398 " fill="none" id="Azure Digital Twins-backto-Azure Digital Twins Client" style="stroke:#181818;stroke-width:1.0;"/><polygon fill="#181818" points="235.5,73.1538,231.5,82.1538,235.5,78.1538,239.5,82.1538,235.5,73.1538" style="stroke:#181818;stroke-width:1.0;"/></g><!--link azure_cloud_connector to cloud_connector.proto--><g id="link_azure_cloud_connector_cloud_connector.proto"><path d="M88.5,332.1148 C88.5,332.9551 88.5,333.8003 88.5,334.6497 C88.5,336.3486 88.5,338.0646 88.5,339.7929 C88.5,367.4461 88.5,398.2559 88.5,412.6153 " fill="none" id="azure_cloud_connector-cloud_connector.proto" style="stroke:#181818;stroke-width:1.0;"/></g><!--reverse link cloud_connector.proto to Cloud Adapter--><g id="link_cloud_connector.proto_Cloud Adapter"><path d="M102.8825,421.8128 C134.9108,421.8128 166.939,421.8128 198.967,421.8128 " fill="none" id="cloud_connector.proto-backto-Cloud Adapter" style="stroke:#181818;stroke-width:1.0;"/><polygon fill="#181818" points="97.7422,421.8128,106.7422,425.8128,102.7422,421.8128,106.7422,417.8128,97.7422,421.8128" style="stroke:#181818;stroke-width:1.0;"/></g><!--link Emitter to cloud_connector.proto--><!--reverse link cloud_connector.proto to Emitter--><!--SRC=[VL3BIiGm5DtdAmxTk8gV80nLls1sfGmnkMqYcQIajmGL_zsqTQ1AftSLphtdaQDzd0o-1Ceqfyyf4PvTxrXvdBCBOok-XUYIkXAgdJNg609fZgc26g7cYukUDI_wjZbGH-qT1TwQl2RwU5UBMhSyR_INgsEcr49wwbW-eQcNx2UZXXcVDOuy8AT1ofct-qsndrsQc8F4F_XnI95ZyViRuJTQyRXp_u2p9N2EiCuO2b0fnJpYZNpCiEG7PCSMuw2q2tt1ELCvOxjfPYrA1RF2krOLN2Y9EgL9R9fhLjiskTuUvDnXBDqjSuVq0m00]--></g></svg>