<?xml version="1.0" encoding="us-ascii" standalone="no"?><svg xmlns="http://www.w3.org/2000/svg" xmlns:xlink="http://www.w3.org/1999/xlink" contentStyleType="text/css" height="451px" preserveAspectRatio="none" style="width:595px;height:451px;background:#FFFFFF;" version="1.1" viewBox="0 0 595 451" width="595px" zoomAndPan="magnify"><defs/><g><g id="cluster_##2"><path d="M347.5195,19.7193 C354.7842,10.9489 360.8853,11.4984 367.0697,20.8826 C372.86,10.2137 382.3411,6.6135 390.6467,18.2203 C398.8262,6.3857 405.8589,8.1987 413.2977,18.9626 C419.5935,6 426.855,7.8849 435.5102,16.538 C443.0575,7.8121 450.2084,7.6871 456.0749,18.3232 C462.3357,6.7507 473.8838,8.9516 479.5801,18.9387 C486.8285,9.7865 494.0847,9.2137 500.2495,20.0588 C507.3453,9.9448 514.8522,8.7578 523.4854,18.2353 C531.3349,9.1488 540.869,10.3295 545.2681,21.8777 C554.1363,10.7991 566.7067,11.7989 571.5,26.0909 C572.668,26.227 572.9562,26.8197 572.2865,27.801 C581.941,32.688 579.8663,40.637 572.5103,45.7363 C582.7338,52.0089 583.0535,59.762 573.1654,66.6642 C583.6554,72.9276 581.4508,78.8711 573.9523,85.8714 C584.7125,90.9132 585.932,97.2475 576.5204,104.9977 C584.8894,111.3033 585.9462,117.2692 577.7793,124.6349 C583.9275,131.4866 584.7295,136.9873 575.2149,141.4505 C584.7929,144.8191 585.8153,153.3672 579.0377,160.0902 C588.5542,167.2385 588.243,175.3622 577.7234,181.2671 C586.774,187.0784 584.0901,195.7504 575.4391,199.3222 C584.0004,205.6397 583.7308,212.972 574.1134,217.999 C583.8388,222.9573 581.6955,232.0312 573.6476,236.5432 C584.7013,242.5694 585.5403,248.6834 575.5341,256.6823 C582.4916,262.9663 581.9278,271.9628 572.6078,275.7486 C581.7825,285.6418 577.131,297.4606 564.5,300.0909 C565.9074,300.516 565.9255,301.3661 565.1788,302.4192 C559.2747,312.0987 551.5203,313.3796 543.7754,304.5475 C538.4669,315.0637 529.4118,314.5342 523.481,305.1831 C519.0079,315.7171 507.7856,318.7473 500.2992,308.5532 C494.2518,318.9838 485.3148,317.8132 478.7124,309.1817 C472.4095,319.8225 464.1689,321.4516 455.7984,311.4802 C450.3365,321.7373 440.6714,320.5333 435.3703,311.3117 C427.7275,322.5645 418.4377,319.3447 413.3626,308.7279 C404.0188,316.7792 395.4526,317.7853 389.8961,304.5524 C383.0269,314.0584 376.0165,313.8682 369.5822,304.0943 C355.6102,315.5522 341.0452,312.0338 337.5,293.0909 C339.0348,292.1193 340.0656,292.5519 340.3337,294.3751 C331.0972,290.76 329.8509,282.2186 337.6144,276.0771 C328.5929,270.8014 328.1673,261.0052 337.226,255.3901 C330.0027,251.5411 327.9816,243.7943 336.2205,238.9971 C325.4673,231.7613 327.3336,225.3668 336.0782,217.9989 C326.9985,213.4078 326.2532,205.1249 333.6787,198.5024 C324.7874,193.2311 325.2618,184.5234 333.2576,178.8894 C324.3762,176.2862 320.7897,167.9657 328.9543,161.2127 C320.4329,153.5884 321.8158,146.2444 331.8214,141.2858 C323.4682,134.5856 325.0319,127.9182 333.3904,122.6231 C324.3925,116.0236 324.0287,106.6115 335.7432,102.4247 C328.3119,97.7194 325.5855,91.5873 334.0466,85.3069 C327.0663,79.5112 327.5234,70.7969 337.0136,67.791 C327.8185,62.1471 326.4826,52.3926 336.3692,46.1798 C326.1042,35.0877 331.3292,23.1487 344.5,19.0909 C345.821,17.9812 346.7278,18.285 347.5195,19.7193 " fill="none" style="stroke:#181818;stroke-width:1.0;"/></g><!--cluster azure_mqtt_cloud_connector--><g id="cluster_azure_mqtt_cloud_connector"><rect fill="none" height="113" rx="2.5" ry="2.5" style="stroke:#181818;stroke-width:1.0;" width="217" x="80.5" y="203.0909"/><path d="M277.5,203.0909 L277.5,212.3878 L267.5,222.3878 L80.5,222.3878 " fill="none" style="stroke:#181818;stroke-width:1.0;"/><text fill="#000000" font-family="sans-serif" font-size="14" font-weight="bold" lengthAdjust="spacing" textLength="187" x="83.5" y="217.086">Azure MQTT Connector</text></g><!--cluster freyja--><g id="cluster_freyja"><rect fill="none" height="97" rx="2.5" ry="2.5" style="stroke:#181818;stroke-width:1.0;" width="307" x="182.5" y="348.0909"/><path d="M241.5,348.0909 L241.5,357.3878 L231.5,367.3878 L182.5,367.3878 " fill="none" style="stroke:#181818;stroke-width:1.0;"/><text fill="#000000" font-family="sans-serif" font-size="14" font-weight="bold" lengthAdjust="spacing" textLength="49" x="185.5" y="362.086">Freyja</text></g><!--entity Azure Function--><g id="elem_Azure Function"><rect fill="#F1F1F1" height="46.2969" rx="2.5" ry="2.5" style="stroke:#181818;stroke-width:0.5;" width="147" x="381" y="133.0909"/><rect fill="#F1F1F1" height="10" style="stroke:#181818;stroke-width:0.5;" width="15" x="508" y="138.0909"/><rect fill="#F1F1F1" height="2" style="stroke:#181818;stroke-width:0.5;" width="4" x="506" y="140.0909"/><rect fill="#F1F1F1" height="2" style="stroke:#181818;stroke-width:0.5;" width="4" x="506" y="144.0909"/><text fill="#000000" font-family="sans-serif" font-size="14" lengthAdjust="spacing" textLength="107" x="396" y="166.086">Azure Function</text></g><!--entity Azure Digital Twin--><g id="elem_Azure Digital Twin"><rect fill="#F1F1F1" height="46.2969" rx="2.5" ry="2.5" style="stroke:#181818;stroke-width:0.5;" width="169" x="370" y="27.0909"/><rect fill="#F1F1F1" height="10" style="stroke:#181818;stroke-width:0.5;" width="15" x="519" y="32.0909"/><rect fill="#F1F1F1" height="2" style="stroke:#181818;stroke-width:0.5;" width="4" x="517" y="34.0909"/><rect fill="#F1F1F1" height="2" style="stroke:#181818;stroke-width:0.5;" width="4" x="517" y="38.0909"/><text fill="#000000" font-family="sans-serif" font-size="14" lengthAdjust="spacing" textLength="129" x="385" y="60.086">Azure Digital Twin</text></g><!--entity Event Grid with MQTT v5--><g id="elem_Event Grid with MQTT v5"><rect fill="#F1F1F1" height="46.2969" rx="2.5" ry="2.5" style="stroke:#181818;stroke-width:0.5;" width="217" x="346" y="246.0909"/><rect fill="#F1F1F1" height="10" style="stroke:#181818;stroke-width:0.5;" width="15" x="543" y="251.0909"/><rect fill="#F1F1F1" height="2" style="stroke:#181818;stroke-width:0.5;" width="4" x="541" y="253.0909"/><rect fill="#F1F1F1" height="2" style="stroke:#181818;stroke-width:0.5;" width="4" x="541" y="257.0909"/><text fill="#000000" font-family="sans-serif" font-size="14" lengthAdjust="spacing" textLength="177" x="361" y="279.086">Event Grid with MQTT v5</text></g><!--entity MQTT v5 Client--><g id="elem_MQTT v5 Client"><rect fill="#F1F1F1" height="46.2969" rx="2.5" ry="2.5" style="stroke:#181818;stroke-width:0.5;" width="149" x="124" y="246.0909"/><rect fill="#F1F1F1" height="10" style="stroke:#181818;stroke-width:0.5;" width="15" x="253" y="251.0909"/><rect fill="#F1F1F1" height="2" style="stroke:#181818;stroke-width:0.5;" width="4" x="251" y="253.0909"/><rect fill="#F1F1F1" height="2" style="stroke:#181818;stroke-width:0.5;" width="4" x="251" y="257.0909"/><text fill="#000000" font-family="sans-serif" font-size="14" lengthAdjust="spacing" textLength="109" x="139" y="279.086">MQTT v5 Client</text></g><!--entity Emitter--><g id="elem_Emitter"><rect fill="#F1F1F1" height="46.2969" rx="2.5" ry="2.5" style="stroke:#181818;stroke-width:0.5;" width="96" x="377.5" y="383.0909"/><rect fill="#F1F1F1" height="10" style="stroke:#181818;stroke-width:0.5;" width="15" x="453.5" y="388.0909"/><rect fill="#F1F1F1" height="2" style="stroke:#181818;stroke-width:0.5;" width="4" x="451.5" y="390.0909"/><rect fill="#F1F1F1" height="2" style="stroke:#181818;stroke-width:0.5;" width="4" x="451.5" y="394.0909"/><text fill="#000000" font-family="sans-serif" font-size="14" lengthAdjust="spacing" textLength="56" x="392.5" y="416.086">Emitter</text></g><!--entity Cloud Adapter--><g id="elem_Cloud Adapter"><rect fill="#F1F1F1" height="46.2969" rx="2.5" ry="2.5" style="stroke:#181818;stroke-width:0.5;" width="143" x="199" y="383.0909"/><rect fill="#F1F1F1" height="10" style="stroke:#181818;stroke-width:0.5;" width="15" x="322" y="388.0909"/><rect fill="#F1F1F1" height="2" style="stroke:#181818;stroke-width:0.5;" width="4" x="320" y="390.0909"/><rect fill="#F1F1F1" height="2" style="stroke:#181818;stroke-width:0.5;" width="4" x="320" y="394.0909"/><text fill="#000000" font-family="sans-serif" font-size="14" lengthAdjust="spacing" textLength="103" x="214" y="416.086">Cloud Adapter</text></g><!--entity cloud_connector.proto--><g id="elem_cloud_connector.proto"><ellipse cx="88.5" cy="406.0909" fill="#F1F1F1" rx="8" ry="8" style="stroke:#181818;stroke-width:0.5;"/><text fill="#000000" font-family="sans-serif" font-size="14" lengthAdjust="spacing" textLength="165" x="6" y="436.086">cloud_connector.proto</text></g><!--reverse link Azure Digital Twin to Azure Function--><g id="link_Azure Digital Twin_Azure Function"><path d="M454.5,78.2829 C454.5,95.3529 454.5,117.0799 454.5,133.0669 " fill="none" id="Azure Digital Twin-backto-Azure Function" style="stroke:#181818;stroke-width:1.0;"/><polygon fill="#181818" points="454.5,73.1469,450.5,82.1469,454.5,78.1469,458.5,82.1469,454.5,73.1469" style="stroke:#181818;stroke-width:1.0;"/></g><!--reverse link Azure Function to Event Grid with MQTT v5--><g id="link_Azure Function_Event Grid with MQTT v5"><path d="M454.5,184.4569 C454.5,203.3849 454.5,228.2479 454.5,245.9339 " fill="none" id="Azure Function-backto-Event Grid with MQTT v5" style="stroke:#181818;stroke-width:1.0;"/><polygon fill="#181818" points="454.5,179.2869,450.5,188.2869,454.5,184.2869,458.5,188.2869,454.5,179.2869" style="stroke:#181818;stroke-width:1.0;"/></g><!--reverse link Cloud Adapter to Emitter--><g id="link_Cloud Adapter_Emitter"><path d="M347.461,406.0909 C357.431,406.0909 367.4,406.0909 377.37,406.0909 " fill="none" id="Cloud Adapter-backto-Emitter" style="stroke:#181818;stroke-width:1.0;"/><polygon fill="#181818" points="342.248,406.0909,351.248,410.0909,347.248,406.0909,351.248,402.0909,342.248,406.0909" style="stroke:#181818;stroke-width:1.0;"/></g><!--reverse link Event Grid with MQTT v5 to MQTT v5 Client--><g id="link_Event Grid with MQTT v5_MQTT v5 Client"><path d="M340.875,269.0909 C318.417,269.0909 295.958,269.0909 273.5,269.0909 " fill="none" id="Event Grid with MQTT v5-backto-MQTT v5 Client" style="stroke:#181818;stroke-width:1.0;"/><polygon fill="#181818" points="345.971,269.0909,336.971,265.0909,340.971,269.0909,336.971,273.0909,345.971,269.0909" style="stroke:#181818;stroke-width:1.0;"/></g><!--link azure_mqtt_cloud_connector to cloud_connector.proto--><g id="link_azure_mqtt_cloud_connector_cloud_connector.proto"><path d="M88.5,316.3929 C88.5,317.2332 88.5,318.0784 88.5,318.9278 C88.5,320.6267 88.5,322.3427 88.5,324.071 C88.5,351.7241 88.5,382.534 88.5,396.8934 " fill="none" id="azure_mqtt_cloud_connector-cloud_connector.proto" style="stroke:#181818;stroke-width:1.0;"/></g><!--reverse link cloud_connector.proto to Cloud Adapter--><g id="link_cloud_connector.proto_Cloud Adapter"><path d="M102.8825,406.0909 C134.9108,406.0909 166.939,406.0909 198.967,406.0909 " fill="none" id="cloud_connector.proto-backto-Cloud Adapter" style="stroke:#181818;stroke-width:1.0;"/><polygon fill="#181818" points="97.7422,406.0909,106.7422,410.0909,102.7422,406.0909,106.7422,402.0909,97.7422,406.0909" style="stroke:#181818;stroke-width:1.0;"/></g><!--link Emitter to cloud_connector.proto--><!--reverse link cloud_connector.proto to Emitter--><!--SRC=[VLAnReCm4Dtz5IUMJdJhMYcYIQSEaTWYX5pxmAx0fkQ8rLRzzneCBKL9RhBUlNlltScYiOE4BmQXJhlFmI4S1YD8MrD0EdJfum8_wLeJRo3tsXIHlp-Z8NXsMeBNfE3bcETmVjWC_kgnRyOgnrk497OcVcQDGK7M9S1xu6EZRD-9IZ56AyNINaBE9f0rEhYlHGyEFzxu95DDpsLatseYT25NWnMDoR9fxPtatOYF6blTF-wrBHcx4JQLrfiKDl1zvopPOFRVV_OAPbVuTv0h1F8Mb9OI3N3dhE_X5HlhGM7JnMXznuKsTS39Ow2HMfqbNeaR6U6BLWbe4n9LN21RdUqKRGkdQtKZvuM9y17ckZBq0m00]--></g></svg>