<?xml version="1.0" encoding="us-ascii" standalone="no"?><svg xmlns="http://www.w3.org/2000/svg" xmlns:xlink="http://www.w3.org/1999/xlink" contentStyleType="text/css" height="470px" preserveAspectRatio="none" style="width:1332px;height:470px;background:#FFFFFF;" version="1.1" viewBox="0 0 1332 470" width="1332px" zoomAndPan="magnify"><defs/><g><rect fill="#FFB6C1" height="59.2656" style="stroke:#000000;stroke-width:1.5;" width="406" x="488.5" y="125.5625"/><rect fill="#00FFFF" height="117.5313" style="stroke:#000000;stroke-width:1.5;" width="543.5" x="488.5" y="198.8281"/><line style="stroke:#181818;stroke-width:0.5;stroke-dasharray:5.0,5.0;" x1="85" x2="85" y1="36.2969" y2="434.7578"/><line style="stroke:#181818;stroke-width:0.5;stroke-dasharray:5.0,5.0;" x1="586.5" x2="586.5" y1="36.2969" y2="434.7578"/><line style="stroke:#181818;stroke-width:0.5;stroke-dasharray:5.0,5.0;" x1="966" x2="966" y1="36.2969" y2="434.7578"/><line style="stroke:#181818;stroke-width:0.5;stroke-dasharray:5.0,5.0;" x1="1201.5" x2="1201.5" y1="36.2969" y2="434.7578"/><rect fill="#E2E2F0" height="30.2969" rx="2.5" ry="2.5" style="stroke:#181818;stroke-width:0.5;" width="161" x="5" y="5"/><text fill="#000000" font-family="sans-serif" font-size="14" lengthAdjust="spacing" textLength="147" x="12" y="24.9951">Digital Twin Adapter</text><rect fill="#E2E2F0" height="30.2969" rx="2.5" ry="2.5" style="stroke:#181818;stroke-width:0.5;" width="161" x="5" y="433.7578"/><text fill="#000000" font-family="sans-serif" font-size="14" lengthAdjust="spacing" textLength="147" x="12" y="453.7529">Digital Twin Adapter</text><rect fill="#E2E2F0" height="30.2969" rx="2.5" ry="2.5" style="stroke:#181818;stroke-width:0.5;" width="176" x="498.5" y="5"/><text fill="#000000" font-family="sans-serif" font-size="14" lengthAdjust="spacing" textLength="162" x="505.5" y="24.9951">Data Adapter Selector</text><rect fill="#E2E2F0" height="30.2969" rx="2.5" ry="2.5" style="stroke:#181818;stroke-width:0.5;" width="176" x="498.5" y="433.7578"/><text fill="#000000" font-family="sans-serif" font-size="14" lengthAdjust="spacing" textLength="162" x="505.5" y="453.7529">Data Adapter Selector</text><rect fill="#E2E2F0" height="30.2969" rx="2.5" ry="2.5" style="stroke:#181818;stroke-width:0.5;" width="111" x="911" y="5"/><text fill="#000000" font-family="sans-serif" font-size="14" lengthAdjust="spacing" textLength="97" x="918" y="24.9951">Data Adapter</text><rect fill="#E2E2F0" height="30.2969" rx="2.5" ry="2.5" style="stroke:#181818;stroke-width:0.5;" width="111" x="911" y="433.7578"/><text fill="#000000" font-family="sans-serif" font-size="14" lengthAdjust="spacing" textLength="97" x="918" y="453.7529">Data Adapter</text><rect fill="#E2E2F0" height="30.2969" rx="2.5" ry="2.5" style="stroke:#181818;stroke-width:0.5;" width="238" x="1082.5" y="5"/><text fill="#000000" font-family="sans-serif" font-size="14" lengthAdjust="spacing" textLength="224" x="1089.5" y="24.9951">In-Vehicle Digital Twin Provider</text><rect fill="#E2E2F0" height="30.2969" rx="2.5" ry="2.5" style="stroke:#181818;stroke-width:0.5;" width="238" x="1082.5" y="433.7578"/><text fill="#000000" font-family="sans-serif" font-size="14" lengthAdjust="spacing" textLength="224" x="1089.5" y="453.7529">In-Vehicle Digital Twin Provider</text><rect fill="#EEEEEE" height="3" style="stroke:#EEEEEE;stroke-width:1.0;" width="1325.5" x="0" y="66.8633"/><line style="stroke:#000000;stroke-width:1.0;" x1="0" x2="1325.5" y1="66.8633" y2="66.8633"/><line style="stroke:#000000;stroke-width:1.0;" x1="0" x2="1325.5" y1="69.8633" y2="69.8633"/><rect fill="#EEEEEE" height="23.1328" style="stroke:#000000;stroke-width:2.0;" width="233" x="546.25" y="56.2969"/><text fill="#000000" font-family="sans-serif" font-size="13" font-weight="bold" lengthAdjust="spacing" textLength="214" x="552.25" y="72.3638">Selection of a Data Adapter</text><polygon fill="#181818" points="574.5,106.5625,584.5,110.5625,574.5,114.5625,578.5,110.5625" style="stroke:#181818;stroke-width:1.0;"/><line style="stroke:#181818;stroke-width:1.0;" x1="85.5" x2="580.5" y1="110.5625" y2="110.5625"/><text fill="#000000" font-family="sans-serif" font-size="13" font-weight="bold" lengthAdjust="spacing" textLength="9" x="92.5" y="105.4966">1</text><text fill="#000000" font-family="sans-serif" font-size="13" lengthAdjust="spacing" textLength="464" x="105.5" y="105.4966">CreateOrUpdateDataAdapter(entity_id, provider_uri, protocol, operation)</text><path d="M488.5,125.5625 L554.5,125.5625 L554.5,132.6953 L544.5,142.6953 L488.5,142.6953 L488.5,125.5625 " fill="#EEEEEE" style="stroke:#000000;stroke-width:1.5;"/><rect fill="none" height="59.2656" style="stroke:#000000;stroke-width:1.5;" width="406" x="488.5" y="125.5625"/><text fill="#000000" font-family="sans-serif" font-size="13" font-weight="bold" lengthAdjust="spacing" textLength="21" x="503.5" y="138.6294">alt</text><text fill="#000000" font-family="sans-serif" font-size="11" font-weight="bold" lengthAdjust="spacing" textLength="190" x="569.5" y="137.7729">[Data Adapter Already Exist]</text><line style="stroke:#181818;stroke-width:1.0;" x1="586.5" x2="628.5" y1="163.8281" y2="163.8281"/><line style="stroke:#181818;stroke-width:1.0;" x1="628.5" x2="628.5" y1="163.8281" y2="176.8281"/><line style="stroke:#181818;stroke-width:1.0;" x1="587.5" x2="628.5" y1="176.8281" y2="176.8281"/><polygon fill="#181818" points="597.5,172.8281,587.5,176.8281,597.5,180.8281,593.5,176.8281" style="stroke:#181818;stroke-width:1.0;"/><text fill="#000000" font-family="sans-serif" font-size="13" font-weight="bold" lengthAdjust="spacing" textLength="9" x="593.5" y="158.7622">2</text><text fill="#000000" font-family="sans-serif" font-size="13" lengthAdjust="spacing" textLength="276" x="606.5" y="158.7622">Add entity_id to Data Adapter's local cache</text><path d="M488.5,198.8281 L554.5,198.8281 L554.5,205.9609 L544.5,215.9609 L488.5,215.9609 L488.5,198.8281 " fill="#EEEEEE" style="stroke:#000000;stroke-width:1.5;"/><rect fill="none" height="117.5313" style="stroke:#000000;stroke-width:1.5;" width="543.5" x="488.5" y="198.8281"/><text fill="#000000" font-family="sans-serif" font-size="13" font-weight="bold" lengthAdjust="spacing" textLength="21" x="503.5" y="211.895">alt</text><text fill="#000000" font-family="sans-serif" font-size="11" font-weight="bold" lengthAdjust="spacing" textLength="191" x="569.5" y="211.0386">[Data Adapter Doesn't Exist]</text><polygon fill="#181818" points="954.5,233.0938,964.5,237.0938,954.5,241.0938,958.5,237.0938" style="stroke:#181818;stroke-width:1.0;"/><line style="stroke:#181818;stroke-width:1.0;" x1="586.5" x2="960.5" y1="237.0938" y2="237.0938"/><text fill="#000000" font-family="sans-serif" font-size="13" font-weight="bold" lengthAdjust="spacing" textLength="8" x="593.5" y="232.0278">3</text><text fill="#000000" font-family="sans-serif" font-size="13" lengthAdjust="spacing" textLength="344" x="605.5" y="232.0278">Creates a Data Adapter with provider uri and protocol</text><polygon fill="#181818" points="954.5,262.2266,964.5,266.2266,954.5,270.2266,958.5,266.2266" style="stroke:#181818;stroke-width:1.0;"/><line style="stroke:#181818;stroke-width:1.0;" x1="586.5" x2="960.5" y1="266.2266" y2="266.2266"/><text fill="#000000" font-family="sans-serif" font-size="13" font-weight="bold" lengthAdjust="spacing" textLength="9" x="593.5" y="261.1606">4</text><text fill="#000000" font-family="sans-serif" font-size="13" lengthAdjust="spacing" textLength="51" x="606.5" y="261.1606">Start up</text><line style="stroke:#181818;stroke-width:1.0;" x1="586.5" x2="628.5" y1="295.3594" y2="295.3594"/><line style="stroke:#181818;stroke-width:1.0;" x1="628.5" x2="628.5" y1="295.3594" y2="308.3594"/><line style="stroke:#181818;stroke-width:1.0;" x1="587.5" x2="628.5" y1="308.3594" y2="308.3594"/><polygon fill="#181818" points="597.5,304.3594,587.5,308.3594,597.5,312.3594,593.5,308.3594" style="stroke:#181818;stroke-width:1.0;"/><text fill="#000000" font-family="sans-serif" font-size="13" font-weight="bold" lengthAdjust="spacing" textLength="9" x="593.5" y="290.2935">5</text><text fill="#000000" font-family="sans-serif" font-size="13" lengthAdjust="spacing" textLength="276" x="606.5" y="290.2935">Add entity_id to Data Adapter's local cache</text><polygon fill="#181818" points="1189.5,340.4922,1199.5,344.4922,1189.5,348.4922,1193.5,344.4922" style="stroke:#181818;stroke-width:1.0;"/><line style="stroke:#181818;stroke-width:1.0;" x1="966.5" x2="1195.5" y1="344.4922" y2="344.4922"/><text fill="#000000" font-family="sans-serif" font-size="13" font-weight="bold" lengthAdjust="spacing" textLength="9" x="973.5" y="339.4263">6</text><text fill="#000000" font-family="sans-serif" font-size="13" lengthAdjust="spacing" textLength="198" x="986.5" y="339.4263">Call get or subscribe for values</text><polygon fill="#181818" points="977.5,369.625,967.5,373.625,977.5,377.625,973.5,373.625" style="stroke:#181818;stroke-width:1.0;"/><line style="stroke:#181818;stroke-width:1.0;" x1="971.5" x2="1200.5" y1="373.625" y2="373.625"/><text fill="#000000" font-family="sans-serif" font-size="13" font-weight="bold" lengthAdjust="spacing" textLength="9" x="983.5" y="368.5591">7</text><text fill="#000000" font-family="sans-serif" font-size="13" lengthAdjust="spacing" textLength="89" x="996.5" y="368.5591">Return values</text><rect fill="#EEEEEE" height="3" style="stroke:#EEEEEE;stroke-width:1.0;" width="1325.5" x="0" y="402.1914"/><line style="stroke:#000000;stroke-width:1.0;" x1="0" x2="1325.5" y1="402.1914" y2="402.1914"/><line style="stroke:#000000;stroke-width:1.0;" x1="0" x2="1325.5" y1="405.1914" y2="405.1914"/><rect fill="#EEEEEE" height="23.1328" style="stroke:#000000;stroke-width:2.0;" width="233" x="546.25" y="391.625"/><text fill="#000000" font-family="sans-serif" font-size="13" font-weight="bold" lengthAdjust="spacing" textLength="214" x="552.25" y="407.6919">Selection of a Data Adapter</text><!--SRC=[lPB1IWCn48RlUOf13rLeNq3Omc8z28B5gjSoJQRTmPZ4xAIrRszQjWkxsDPUp2KCypF_DpyJC0fh3kW4hYQyOa4BhnjsK1eCGl5AXOu41Gyjc94bBVwKfjTwTADtgbXRWexPDFercvqSatYNFXSKbIgAneAz0xy4X8vzKIZrE_DeV0Jq3kuZeT1pV0ic_pjL8xeX9opREPiXX0PddYBlA_7Qso7uG15tDBTAeHMuVk9L9LDs7rsoqcONiuM7Rwv5GNv7U4w0biP0YmJYEmw36gpNUMsDkY95pZH0vLVgfJJnLBk1NCpIPbNtSz-mL6r4a2C2TAPDwJABcUJpW1J-AwIkFup6VxZ970HQ2oiIy17gjAXrv0N1CbThj8bgTNx8tggt_0j9Ykumu-or_m00]--></g></svg>