<?xml version="1.0" encoding="us-ascii" standalone="no"?><svg xmlns="http://www.w3.org/2000/svg" xmlns:xlink="http://www.w3.org/1999/xlink" contentStyleType="text/css" height="470px" preserveAspectRatio="none" style="width:1085px;height:470px;background:#FFFFFF;" version="1.1" viewBox="0 0 1085 470" width="1085px" zoomAndPan="magnify"><defs/><g><rect fill="#FFB6C1" height="59.2656" style="stroke:#000000;stroke-width:1.5;" width="406" x="241.5" y="125.5625"/><rect fill="#00FFFF" height="117.5313" style="stroke:#000000;stroke-width:1.5;" width="543.5" x="241.5" y="198.8281"/><line style="stroke:#181818;stroke-width:0.5;stroke-dasharray:5.0,5.0;" x1="85" x2="85" y1="36.2969" y2="434.7578"/><line style="stroke:#181818;stroke-width:0.5;stroke-dasharray:5.0,5.0;" x1="339.5" x2="339.5" y1="36.2969" y2="434.7578"/><line style="stroke:#181818;stroke-width:0.5;stroke-dasharray:5.0,5.0;" x1="719" x2="719" y1="36.2969" y2="434.7578"/><line style="stroke:#181818;stroke-width:0.5;stroke-dasharray:5.0,5.0;" x1="954.5" x2="954.5" y1="36.2969" y2="434.7578"/><rect fill="#E2E2F0" height="30.2969" rx="2.5" ry="2.5" style="stroke:#181818;stroke-width:0.5;" width="161" x="5" y="5"/><text fill="#000000" font-family="sans-serif" font-size="14" lengthAdjust="spacing" textLength="147" x="12" y="24.9951">Digital Twin Adapter</text><rect fill="#E2E2F0" height="30.2969" rx="2.5" ry="2.5" style="stroke:#181818;stroke-width:0.5;" width="161" x="5" y="433.7578"/><text fill="#000000" font-family="sans-serif" font-size="14" lengthAdjust="spacing" textLength="147" x="12" y="453.7529">Digital Twin Adapter</text><rect fill="#E2E2F0" height="30.2969" rx="2.5" ry="2.5" style="stroke:#181818;stroke-width:0.5;" width="176" x="251.5" y="5"/><text fill="#000000" font-family="sans-serif" font-size="14" lengthAdjust="spacing" textLength="162" x="258.5" y="24.9951">Data Adapter Selector</text><rect fill="#E2E2F0" height="30.2969" rx="2.5" ry="2.5" style="stroke:#181818;stroke-width:0.5;" width="176" x="251.5" y="433.7578"/><text fill="#000000" font-family="sans-serif" font-size="14" lengthAdjust="spacing" textLength="162" x="258.5" y="453.7529">Data Adapter Selector</text><rect fill="#E2E2F0" height="30.2969" rx="2.5" ry="2.5" style="stroke:#181818;stroke-width:0.5;" width="111" x="664" y="5"/><text fill="#000000" font-family="sans-serif" font-size="14" lengthAdjust="spacing" textLength="97" x="671" y="24.9951">Data Adapter</text><rect fill="#E2E2F0" height="30.2969" rx="2.5" ry="2.5" style="stroke:#181818;stroke-width:0.5;" width="111" x="664" y="433.7578"/><text fill="#000000" font-family="sans-serif" font-size="14" lengthAdjust="spacing" textLength="97" x="671" y="453.7529">Data Adapter</text><rect fill="#E2E2F0" height="30.2969" rx="2.5" ry="2.5" style="stroke:#181818;stroke-width:0.5;" width="238" x="835.5" y="5"/><text fill="#000000" font-family="sans-serif" font-size="14" lengthAdjust="spacing" textLength="224" x="842.5" y="24.9951">In-Vehicle Digital Twin Provider</text><rect fill="#E2E2F0" height="30.2969" rx="2.5" ry="2.5" style="stroke:#181818;stroke-width:0.5;" width="238" x="835.5" y="433.7578"/><text fill="#000000" font-family="sans-serif" font-size="14" lengthAdjust="spacing" textLength="224" x="842.5" y="453.7529">In-Vehicle Digital Twin Provider</text><rect fill="#EEEEEE" height="3" style="stroke:#EEEEEE;stroke-width:1.0;" width="1078.5" x="0" y="66.8633"/><line style="stroke:#000000;stroke-width:1.0;" x1="0" x2="1078.5" y1="66.8633" y2="66.8633"/><line style="stroke:#000000;stroke-width:1.0;" x1="0" x2="1078.5" y1="69.8633" y2="69.8633"/><rect fill="#EEEEEE" height="23.1328" style="stroke:#000000;stroke-width:2.0;" width="233" x="422.75" y="56.2969"/><text fill="#000000" font-family="sans-serif" font-size="13" font-weight="bold" lengthAdjust="spacing" textLength="214" x="428.75" y="72.3638">Selection of a Data Adapter</text><polygon fill="#181818" points="327.5,106.5625,337.5,110.5625,327.5,114.5625,331.5,110.5625" style="stroke:#181818;stroke-width:1.0;"/><line style="stroke:#181818;stroke-width:1.0;" x1="85.5" x2="333.5" y1="110.5625" y2="110.5625"/><text fill="#000000" font-family="sans-serif" font-size="13" font-weight="bold" lengthAdjust="spacing" textLength="9" x="92.5" y="105.4966">1</text><text fill="#000000" font-family="sans-serif" font-size="13" lengthAdjust="spacing" textLength="217" x="105.5" y="105.4966">create_or_update_adapter(entity)</text><path d="M241.5,125.5625 L307.5,125.5625 L307.5,132.6953 L297.5,142.6953 L241.5,142.6953 L241.5,125.5625 " fill="#EEEEEE" style="stroke:#000000;stroke-width:1.5;"/><rect fill="none" height="59.2656" style="stroke:#000000;stroke-width:1.5;" width="406" x="241.5" y="125.5625"/><text fill="#000000" font-family="sans-serif" font-size="13" font-weight="bold" lengthAdjust="spacing" textLength="21" x="256.5" y="138.6294">alt</text><text fill="#000000" font-family="sans-serif" font-size="11" font-weight="bold" lengthAdjust="spacing" textLength="190" x="322.5" y="137.7729">[Data Adapter Already Exist]</text><line style="stroke:#181818;stroke-width:1.0;" x1="339.5" x2="381.5" y1="163.8281" y2="163.8281"/><line style="stroke:#181818;stroke-width:1.0;" x1="381.5" x2="381.5" y1="163.8281" y2="176.8281"/><line style="stroke:#181818;stroke-width:1.0;" x1="340.5" x2="381.5" y1="176.8281" y2="176.8281"/><polygon fill="#181818" points="350.5,172.8281,340.5,176.8281,350.5,180.8281,346.5,176.8281" style="stroke:#181818;stroke-width:1.0;"/><text fill="#000000" font-family="sans-serif" font-size="13" font-weight="bold" lengthAdjust="spacing" textLength="9" x="346.5" y="158.7622">2</text><text fill="#000000" font-family="sans-serif" font-size="13" lengthAdjust="spacing" textLength="276" x="359.5" y="158.7622">Add entity_id to Data Adapter's local cache</text><path d="M241.5,198.8281 L307.5,198.8281 L307.5,205.9609 L297.5,215.9609 L241.5,215.9609 L241.5,198.8281 " fill="#EEEEEE" style="stroke:#000000;stroke-width:1.5;"/><rect fill="none" height="117.5313" style="stroke:#000000;stroke-width:1.5;" width="543.5" x="241.5" y="198.8281"/><text fill="#000000" font-family="sans-serif" font-size="13" font-weight="bold" lengthAdjust="spacing" textLength="21" x="256.5" y="211.895">alt</text><text fill="#000000" font-family="sans-serif" font-size="11" font-weight="bold" lengthAdjust="spacing" textLength="191" x="322.5" y="211.0386">[Data Adapter Doesn't Exist]</text><polygon fill="#181818" points="707.5,233.0938,717.5,237.0938,707.5,241.0938,711.5,237.0938" style="stroke:#181818;stroke-width:1.0;"/><line style="stroke:#181818;stroke-width:1.0;" x1="339.5" x2="713.5" y1="237.0938" y2="237.0938"/><text fill="#000000" font-family="sans-serif" font-size="13" font-weight="bold" lengthAdjust="spacing" textLength="8" x="346.5" y="232.0278">3</text><text fill="#000000" font-family="sans-serif" font-size="13" lengthAdjust="spacing" textLength="344" x="358.5" y="232.0278">Creates a Data Adapter with provider uri and protocol</text><polygon fill="#181818" points="707.5,262.2266,717.5,266.2266,707.5,270.2266,711.5,266.2266" style="stroke:#181818;stroke-width:1.0;"/><line style="stroke:#181818;stroke-width:1.0;" x1="339.5" x2="713.5" y1="266.2266" y2="266.2266"/><text fill="#000000" font-family="sans-serif" font-size="13" font-weight="bold" lengthAdjust="spacing" textLength="9" x="346.5" y="261.1606">4</text><text fill="#000000" font-family="sans-serif" font-size="13" lengthAdjust="spacing" textLength="51" x="359.5" y="261.1606">Start up</text><line style="stroke:#181818;stroke-width:1.0;" x1="339.5" x2="381.5" y1="295.3594" y2="295.3594"/><line style="stroke:#181818;stroke-width:1.0;" x1="381.5" x2="381.5" y1="295.3594" y2="308.3594"/><line style="stroke:#181818;stroke-width:1.0;" x1="340.5" x2="381.5" y1="308.3594" y2="308.3594"/><polygon fill="#181818" points="350.5,304.3594,340.5,308.3594,350.5,312.3594,346.5,308.3594" style="stroke:#181818;stroke-width:1.0;"/><text fill="#000000" font-family="sans-serif" font-size="13" font-weight="bold" lengthAdjust="spacing" textLength="9" x="346.5" y="290.2935">5</text><text fill="#000000" font-family="sans-serif" font-size="13" lengthAdjust="spacing" textLength="276" x="359.5" y="290.2935">Add entity_id to Data Adapter's local cache</text><polygon fill="#181818" points="942.5,340.4922,952.5,344.4922,942.5,348.4922,946.5,344.4922" style="stroke:#181818;stroke-width:1.0;"/><line style="stroke:#181818;stroke-width:1.0;" x1="719.5" x2="948.5" y1="344.4922" y2="344.4922"/><text fill="#000000" font-family="sans-serif" font-size="13" font-weight="bold" lengthAdjust="spacing" textLength="9" x="726.5" y="339.4263">6</text><text fill="#000000" font-family="sans-serif" font-size="13" lengthAdjust="spacing" textLength="198" x="739.5" y="339.4263">Call get or subscribe for values</text><polygon fill="#181818" points="730.5,369.625,720.5,373.625,730.5,377.625,726.5,373.625" style="stroke:#181818;stroke-width:1.0;"/><line style="stroke:#181818;stroke-width:1.0;" x1="724.5" x2="953.5" y1="373.625" y2="373.625"/><text fill="#000000" font-family="sans-serif" font-size="13" font-weight="bold" lengthAdjust="spacing" textLength="9" x="736.5" y="368.5591">7</text><text fill="#000000" font-family="sans-serif" font-size="13" lengthAdjust="spacing" textLength="89" x="749.5" y="368.5591">Return values</text><rect fill="#EEEEEE" height="3" style="stroke:#EEEEEE;stroke-width:1.0;" width="1078.5" x="0" y="402.1914"/><line style="stroke:#000000;stroke-width:1.0;" x1="0" x2="1078.5" y1="402.1914" y2="402.1914"/><line style="stroke:#000000;stroke-width:1.0;" x1="0" x2="1078.5" y1="405.1914" y2="405.1914"/><rect fill="#EEEEEE" height="23.1328" style="stroke:#000000;stroke-width:2.0;" width="233" x="422.75" y="391.625"/><text fill="#000000" font-family="sans-serif" font-size="13" font-weight="bold" lengthAdjust="spacing" textLength="214" x="428.75" y="407.6919">Selection of a Data Adapter</text><!--SRC=[lPA_RW8n3CRtF8L51zhXNg3I8PrAXqeTKAcw8fCOpY9DqiI1ylOD_uOx5IXBCoNn5_y-smaOXJK7T0A3CIzPqCBxXXqq1eDG7AZGaQ3WAGHJigJ5NzBqGY-k-g2MjINem2RHhzdiv9Z5k_mvfwXKNHyHx1tu1I1qy7MjrE-Ugz4Peu-W8w7GpCTP3cQtmuFcdfomR1-KGYjmzyhBLYRiLbraOyjpiuNdRqwYeAmpe0iE6cFW09kn0V4TmZ21zRhKer6tfCYPew7cA_VA7tjARYWtUoaMdlPDIFs6RbXQ2CTHG8uCwCpkGhpszZR4LChS8OV_QbAN3zNe3v-jD0AjXIK9-0WfpvEEF2TObDCQRQQahYVPeth5lv7aw4uvhdxZ7m00]--></g></svg>