<?xml version="1.0" encoding="us-ascii" standalone="no"?><svg xmlns="http://www.w3.org/2000/svg" xmlns:xlink="http://www.w3.org/1999/xlink" contentStyleType="text/css" height="317px" preserveAspectRatio="none" style="width:878px;height:317px;background:#FFFFFF;" version="1.1" viewBox="0 0 878 317" width="878px" zoomAndPan="magnify"><defs/><g><rect fill="#FFB6C1" height="67.3984" style="stroke:#000000;stroke-width:1.5;" width="620.5" x="9" y="125.5625"/><line style="stroke:#181818;stroke-width:0.5;stroke-dasharray:5.0,5.0;" x1="82" x2="82" y1="36.2969" y2="282.2266"/><line style="stroke:#181818;stroke-width:0.5;stroke-dasharray:5.0,5.0;" x1="278" x2="278" y1="36.2969" y2="282.2266"/><line style="stroke:#181818;stroke-width:0.5;stroke-dasharray:5.0,5.0;" x1="532.5" x2="532.5" y1="36.2969" y2="282.2266"/><line style="stroke:#181818;stroke-width:0.5;stroke-dasharray:5.0,5.0;" x1="778.5" x2="778.5" y1="36.2969" y2="282.2266"/><rect fill="#E2E2F0" height="30.2969" rx="2.5" ry="2.5" style="stroke:#181818;stroke-width:0.5;" width="57" x="54" y="5"/><text fill="#000000" font-family="sans-serif" font-size="14" lengthAdjust="spacing" textLength="43" x="61" y="24.9951">Freyja</text><rect fill="#E2E2F0" height="30.2969" rx="2.5" ry="2.5" style="stroke:#181818;stroke-width:0.5;" width="57" x="54" y="281.2266"/><text fill="#000000" font-family="sans-serif" font-size="14" lengthAdjust="spacing" textLength="43" x="61" y="301.2217">Freyja</text><rect fill="#E2E2F0" height="30.2969" rx="2.5" ry="2.5" style="stroke:#181818;stroke-width:0.5;" width="161" x="198" y="5"/><text fill="#000000" font-family="sans-serif" font-size="14" lengthAdjust="spacing" textLength="147" x="205" y="24.9951">Digital Twin Adapter</text><rect fill="#E2E2F0" height="30.2969" rx="2.5" ry="2.5" style="stroke:#181818;stroke-width:0.5;" width="161" x="198" y="281.2266"/><text fill="#000000" font-family="sans-serif" font-size="14" lengthAdjust="spacing" textLength="147" x="205" y="301.2217">Digital Twin Adapter</text><rect fill="#E2E2F0" height="30.2969" rx="2.5" ry="2.5" style="stroke:#181818;stroke-width:0.5;" width="174" x="445.5" y="5"/><text fill="#000000" font-family="sans-serif" font-size="14" lengthAdjust="spacing" textLength="160" x="452.5" y="24.9951">In-Vehicle Digital Twin</text><rect fill="#E2E2F0" height="30.2969" rx="2.5" ry="2.5" style="stroke:#181818;stroke-width:0.5;" width="174" x="445.5" y="281.2266"/><text fill="#000000" font-family="sans-serif" font-size="14" lengthAdjust="spacing" textLength="160" x="452.5" y="301.2217">In-Vehicle Digital Twin</text><rect fill="#E2E2F0" height="30.2969" rx="2.5" ry="2.5" style="stroke:#181818;stroke-width:0.5;" width="176" x="690.5" y="5"/><text fill="#000000" font-family="sans-serif" font-size="14" lengthAdjust="spacing" textLength="162" x="697.5" y="24.9951">Data Adapter Selector</text><rect fill="#E2E2F0" height="30.2969" rx="2.5" ry="2.5" style="stroke:#181818;stroke-width:0.5;" width="176" x="690.5" y="281.2266"/><text fill="#000000" font-family="sans-serif" font-size="14" lengthAdjust="spacing" textLength="162" x="697.5" y="301.2217">Data Adapter Selector</text><rect fill="#EEEEEE" height="3" style="stroke:#EEEEEE;stroke-width:1.0;" width="871.5" x="0" y="66.8633"/><line style="stroke:#000000;stroke-width:1.0;" x1="0" x2="871.5" y1="66.8633" y2="66.8633"/><line style="stroke:#000000;stroke-width:1.0;" x1="0" x2="871.5" y1="69.8633" y2="69.8633"/><rect fill="#EEEEEE" height="23.1328" style="stroke:#000000;stroke-width:2.0;" width="235" x="318.25" y="56.2969"/><text fill="#000000" font-family="sans-serif" font-size="13" font-weight="bold" lengthAdjust="spacing" textLength="216" x="324.25" y="72.3638">Received New Mapping Entry</text><polygon fill="#181818" points="266.5,106.5625,276.5,110.5625,266.5,114.5625,270.5,110.5625" style="stroke:#181818;stroke-width:1.0;"/><line style="stroke:#181818;stroke-width:1.0;" x1="82.5" x2="272.5" y1="110.5625" y2="110.5625"/><text fill="#000000" font-family="sans-serif" font-size="13" font-weight="bold" lengthAdjust="spacing" textLength="9" x="89.5" y="105.4966">1</text><text fill="#000000" font-family="sans-serif" font-size="13" lengthAdjust="spacing" textLength="159" x="102.5" y="105.4966">Get values for this signal</text><path d="M9,125.5625 L75,125.5625 L75,132.6953 L65,142.6953 L9,142.6953 L9,125.5625 " fill="#EEEEEE" style="stroke:#000000;stroke-width:1.5;"/><rect fill="none" height="67.3984" style="stroke:#000000;stroke-width:1.5;" width="620.5" x="9" y="125.5625"/><text fill="#000000" font-family="sans-serif" font-size="13" font-weight="bold" lengthAdjust="spacing" textLength="21" x="24" y="138.6294">alt</text><text fill="#000000" font-family="sans-serif" font-size="11" font-weight="bold" lengthAdjust="spacing" textLength="309" x="90" y="137.7729">[Metadata Required to Retrieve Signal Values]</text><polygon fill="#181818" points="520.5,170.3945,530.5,174.3945,520.5,178.3945,524.5,174.3945" style="stroke:#181818;stroke-width:1.0;"/><line style="stroke:#181818;stroke-width:1.0;" x1="278.5" x2="526.5" y1="174.3945" y2="174.3945"/><text fill="#000000" font-family="sans-serif" font-size="13" font-weight="bold" lengthAdjust="spacing" textLength="9" x="285.5" y="169.3286">2</text><text fill="#000000" font-family="sans-serif" font-size="13" lengthAdjust="spacing" textLength="217" x="298.5" y="169.3286">Requests additional info for signal</text><path d="M19,147.6953 L19,187.6953 L273,187.6953 L273,157.6953 L263,147.6953 L19,147.6953 " fill="#FEFFDD" style="stroke:#181818;stroke-width:0.5;"/><path d="M263,147.6953 L263,157.6953 L273,157.6953 L263,147.6953 " fill="#FEFFDD" style="stroke:#181818;stroke-width:0.5;"/><text fill="#000000" font-family="sans-serif" font-size="13" lengthAdjust="spacing" textLength="102" x="25" y="164.7622">Ex of Metadata:</text><text fill="#000000" font-family="sans-serif" font-size="13" lengthAdjust="spacing" textLength="233" x="25" y="179.895">Endpoint, supported operations, etc.</text><polygon fill="#181818" points="766.5,217.0938,776.5,221.0938,766.5,225.0938,770.5,221.0938" style="stroke:#181818;stroke-width:1.0;"/><line style="stroke:#181818;stroke-width:1.0;" x1="278.5" x2="772.5" y1="221.0938" y2="221.0938"/><text fill="#000000" font-family="sans-serif" font-size="13" font-weight="bold" lengthAdjust="spacing" textLength="8" x="285.5" y="216.0278">3</text><text fill="#000000" font-family="sans-serif" font-size="13" lengthAdjust="spacing" textLength="464" x="297.5" y="216.0278">CreateOrUpdateDataAdapter(entity_id, provider_uri, protocol, operation)</text><rect fill="#EEEEEE" height="3" style="stroke:#EEEEEE;stroke-width:1.0;" width="871.5" x="0" y="249.6602"/><line style="stroke:#000000;stroke-width:1.0;" x1="0" x2="871.5" y1="249.6602" y2="249.6602"/><line style="stroke:#000000;stroke-width:1.0;" x1="0" x2="871.5" y1="252.6602" y2="252.6602"/><rect fill="#EEEEEE" height="23.1328" style="stroke:#000000;stroke-width:2.0;" width="235" x="318.25" y="239.0938"/><text fill="#000000" font-family="sans-serif" font-size="13" font-weight="bold" lengthAdjust="spacing" textLength="216" x="324.25" y="255.1606">Received New Mapping Entry</text><!--SRC=[XP71JiCm38RlVGfhN43QU81AHK8m4183jC6kasdSpX2IuBeTUtlIiC4qRI8dn_hp-LCSK9HB3kWK1ZT2wpSSP66tUSqrArfuNh63IuD1IVOYTsuqfoMNbc0tlGz2nIq0PcIfL1z9_S5MlMi_Nacoh2XWIYLnHmOUQ0KJ385T3MEdieQYoBAjv-ZYi5mEjwJGeMsfWSeBw98RQBXsQECigt1op_LIdzYzmuGKJMysfS-M9GvL7siLfevWbXx1FB4oYEVmoAXox1FoHAP66q1ZMDdtH7QLJsuRhHxjl19OgZJTnb_Wgr-z_AVdJF3iT0XD6u8NZRe-a61FROP0Mfwd83cJS5aiueSTSpwyaXokX53fKLv2d4rzQXCw9QUiwmMR8GJn7HkIHIkSRkfBRuT_GcV_B_CR]--></g></svg>