<?xml version="1.0" encoding="us-ascii" standalone="no"?><svg xmlns="http://www.w3.org/2000/svg" xmlns:xlink="http://www.w3.org/1999/xlink" contentStyleType="text/css" height="302px" preserveAspectRatio="none" style="width:917px;height:302px;background:#FFFFFF;" version="1.1" viewBox="0 0 917 302" width="917px" zoomAndPan="magnify"><defs/><g><rect fill="#FFB6C1" height="52.2656" style="stroke:#000000;stroke-width:1.5;" width="720.5" x="9" y="125.5625"/><line style="stroke:#181818;stroke-width:0.5;stroke-dasharray:5.0,5.0;" x1="207" x2="207" y1="36.2969" y2="267.0938"/><line style="stroke:#181818;stroke-width:0.5;stroke-dasharray:5.0,5.0;" x1="403" x2="403" y1="36.2969" y2="267.0938"/><line style="stroke:#181818;stroke-width:0.5;stroke-dasharray:5.0,5.0;" x1="632.5" x2="632.5" y1="36.2969" y2="267.0938"/><line style="stroke:#181818;stroke-width:0.5;stroke-dasharray:5.0,5.0;" x1="817.5" x2="817.5" y1="36.2969" y2="267.0938"/><rect fill="#E2E2F0" height="30.2969" rx="2.5" ry="2.5" style="stroke:#181818;stroke-width:0.5;" width="57" x="179" y="5"/><text fill="#000000" font-family="sans-serif" font-size="14" lengthAdjust="spacing" textLength="43" x="186" y="24.9951">Freyja</text><rect fill="#E2E2F0" height="30.2969" rx="2.5" ry="2.5" style="stroke:#181818;stroke-width:0.5;" width="57" x="179" y="266.0938"/><text fill="#000000" font-family="sans-serif" font-size="14" lengthAdjust="spacing" textLength="43" x="186" y="286.0889">Freyja</text><rect fill="#E2E2F0" height="30.2969" rx="2.5" ry="2.5" style="stroke:#181818;stroke-width:0.5;" width="161" x="323" y="5"/><text fill="#000000" font-family="sans-serif" font-size="14" lengthAdjust="spacing" textLength="147" x="330" y="24.9951">Digital Twin Adapter</text><rect fill="#E2E2F0" height="30.2969" rx="2.5" ry="2.5" style="stroke:#181818;stroke-width:0.5;" width="161" x="323" y="266.0938"/><text fill="#000000" font-family="sans-serif" font-size="14" lengthAdjust="spacing" textLength="147" x="330" y="286.0889">Digital Twin Adapter</text><rect fill="#E2E2F0" height="30.2969" rx="2.5" ry="2.5" style="stroke:#181818;stroke-width:0.5;" width="174" x="545.5" y="5"/><text fill="#000000" font-family="sans-serif" font-size="14" lengthAdjust="spacing" textLength="160" x="552.5" y="24.9951">In-Vehicle Digital Twin</text><rect fill="#E2E2F0" height="30.2969" rx="2.5" ry="2.5" style="stroke:#181818;stroke-width:0.5;" width="174" x="545.5" y="266.0938"/><text fill="#000000" font-family="sans-serif" font-size="14" lengthAdjust="spacing" textLength="160" x="552.5" y="286.0889">In-Vehicle Digital Twin</text><rect fill="#E2E2F0" height="30.2969" rx="2.5" ry="2.5" style="stroke:#181818;stroke-width:0.5;" width="176" x="729.5" y="5"/><text fill="#000000" font-family="sans-serif" font-size="14" lengthAdjust="spacing" textLength="162" x="736.5" y="24.9951">Data Adapter Selector</text><rect fill="#E2E2F0" height="30.2969" rx="2.5" ry="2.5" style="stroke:#181818;stroke-width:0.5;" width="176" x="729.5" y="266.0938"/><text fill="#000000" font-family="sans-serif" font-size="14" lengthAdjust="spacing" textLength="162" x="736.5" y="286.0889">Data Adapter Selector</text><rect fill="#EEEEEE" height="3" style="stroke:#EEEEEE;stroke-width:1.0;" width="910.5" x="0" y="66.8633"/><line style="stroke:#000000;stroke-width:1.0;" x1="0" x2="910.5" y1="66.8633" y2="66.8633"/><line style="stroke:#000000;stroke-width:1.0;" x1="0" x2="910.5" y1="69.8633" y2="69.8633"/><rect fill="#EEEEEE" height="23.1328" style="stroke:#000000;stroke-width:2.0;" width="235" x="337.75" y="56.2969"/><text fill="#000000" font-family="sans-serif" font-size="13" font-weight="bold" lengthAdjust="spacing" textLength="216" x="343.75" y="72.3638">Received New Mapping Entry</text><polygon fill="#181818" points="391.5,106.5625,401.5,110.5625,391.5,114.5625,395.5,110.5625" style="stroke:#181818;stroke-width:1.0;"/><line style="stroke:#181818;stroke-width:1.0;" x1="207.5" x2="397.5" y1="110.5625" y2="110.5625"/><text fill="#000000" font-family="sans-serif" font-size="13" font-weight="bold" lengthAdjust="spacing" textLength="9" x="214.5" y="105.4966">1</text><text fill="#000000" font-family="sans-serif" font-size="13" lengthAdjust="spacing" textLength="159" x="227.5" y="105.4966">Get values for this signal</text><path d="M9,125.5625 L75,125.5625 L75,132.6953 L65,142.6953 L9,142.6953 L9,125.5625 " fill="#EEEEEE" style="stroke:#000000;stroke-width:1.5;"/><rect fill="none" height="52.2656" style="stroke:#000000;stroke-width:1.5;" width="720.5" x="9" y="125.5625"/><text fill="#000000" font-family="sans-serif" font-size="13" font-weight="bold" lengthAdjust="spacing" textLength="21" x="24" y="138.6294">alt</text><text fill="#000000" font-family="sans-serif" font-size="11" font-weight="bold" lengthAdjust="spacing" textLength="309" x="90" y="137.7729">[Metadata Required to Retrieve Signal Values]</text><polygon fill="#181818" points="620.5,162.8281,630.5,166.8281,620.5,170.8281,624.5,166.8281" style="stroke:#181818;stroke-width:1.0;"/><line style="stroke:#181818;stroke-width:1.0;" x1="403.5" x2="626.5" y1="166.8281" y2="166.8281"/><text fill="#000000" font-family="sans-serif" font-size="13" font-weight="bold" lengthAdjust="spacing" textLength="9" x="410.5" y="161.7622">2</text><text fill="#000000" font-family="sans-serif" font-size="13" lengthAdjust="spacing" textLength="192" x="423.5" y="161.7622">Requests entity info for signal</text><path d="M19,147.6953 L19,172.6953 L398,172.6953 L398,157.6953 L388,147.6953 L19,147.6953 " fill="#FEFFDD" style="stroke:#181818;stroke-width:0.5;"/><path d="M388,147.6953 L388,157.6953 L398,157.6953 L388,147.6953 " fill="#FEFFDD" style="stroke:#181818;stroke-width:0.5;"/><text fill="#000000" font-family="sans-serif" font-size="13" lengthAdjust="spacing" textLength="358" x="25" y="164.7622">Entity info includes endpoint, supported operations, etc.</text><polygon fill="#181818" points="805.5,201.9609,815.5,205.9609,805.5,209.9609,809.5,205.9609" style="stroke:#181818;stroke-width:1.0;"/><line style="stroke:#181818;stroke-width:1.0;" x1="403.5" x2="811.5" y1="205.9609" y2="205.9609"/><text fill="#000000" font-family="sans-serif" font-size="13" font-weight="bold" lengthAdjust="spacing" textLength="8" x="410.5" y="200.895">3</text><text fill="#000000" font-family="sans-serif" font-size="13" lengthAdjust="spacing" textLength="217" x="422.5" y="200.895">create_or_update_adapter(entity)</text><rect fill="#EEEEEE" height="3" style="stroke:#EEEEEE;stroke-width:1.0;" width="910.5" x="0" y="234.5273"/><line style="stroke:#000000;stroke-width:1.0;" x1="0" x2="910.5" y1="234.5273" y2="234.5273"/><line style="stroke:#000000;stroke-width:1.0;" x1="0" x2="910.5" y1="237.5273" y2="237.5273"/><rect fill="#EEEEEE" height="23.1328" style="stroke:#000000;stroke-width:2.0;" width="235" x="337.75" y="223.9609"/><text fill="#000000" font-family="sans-serif" font-size="13" font-weight="bold" lengthAdjust="spacing" textLength="216" x="343.75" y="240.0278">Received New Mapping Entry</text><!--SRC=[XP7HIaCn38Rl-nHXtYXiFi3W289J12UooMv7xCdEeZMjRRgnjxUdSp36XhbAov___qW2HcNB0KLXy1Xfzua34uu_7xXZHGVlMnQuRp4enHF9iumMj6Rh28xLfqQeU320EJcowejJNvZLI_x-e6XCqy2CBF66MdYbBKmn19OE9g9n1qrZp85pT7SURWnFfB11bod1oaVGDIT8t0cwakKKhbwuM-iRonTCIR7joMRqapcMKFMbryYq8PZN8LXKBmEbpaSMb4jB65TdIfg0H5btmBBobUiFgRSLhmIELbfVaoCXYtMvfNww3Pv5Xv1o23vgOVM18YfxIKCWjRTrkWYhdobDsTObuFFt68EDX4fB7vSvj7s7Uytr7l_c_nFz0W00]--></g></svg>