<?xml version="1.0" encoding="us-ascii" standalone="no"?><svg xmlns="http://www.w3.org/2000/svg" xmlns:xlink="http://www.w3.org/1999/xlink" contentStyleType="text/css" height="616px" preserveAspectRatio="none" style="width:565px;height:616px;background:#FFFFFF;" version="1.1" viewBox="0 0 565 616" width="565px" zoomAndPan="magnify"><defs/><g><g id="cluster_##2"><path d="M79.6293,24.4737 C88.6944,10.212 101.2442,11.4684 107.9776,26.7138 C113.8434,12.3627 126.2043,10.6764 135.5018,23.199 C142.5244,11.7946 152.5298,13.7206 159.4091,23.3618 C169.7756,10.1606 179.6651,7.3242 190.1109,23.2782 C196.6245,11.0389 207.9021,12.6184 213.9912,23.7126 C221.1898,10.3163 230.0501,6.4197 241.2049,19.6726 C250.5424,6.9159 262.7921,6 269.9736,21.8414 C276.2998,10.6687 288.0832,6.6129 295.9849,20.1852 C304.0844,8.1327 316.1614,8.1503 324.674,19.6827 C333.2555,7.9386 347.1814,7.0493 353.2927,22.3014 C362.2419,10.034 371.5778,13.1029 377.7783,25.0777 C385.5692,9.8824 394.4431,11.2524 405.2377,21.884 C413.87,6.86 426.173,10.8633 433.397,23.3267 C443.187,10.1967 457.0097,12.39 461.8754,28.1765 C475.0304,36.6985 477.342,45.5067 465.0784,56.8664 C475.7132,69.0363 474.0761,80.3214 458.6195,86.8757 C450.7545,99.2123 439.273,99.6174 430.3145,88.1774 C422.642,100.4966 413.7444,99.3288 404.8716,89.5601 C397.6417,100.7737 388.1436,102.2173 379.0473,91.7868 C370.8723,105.6581 358.6585,108.2667 349.5515,92.7213 C341.7516,102.944 332.9983,103.606 326.1941,91.6717 C317.0752,105.1728 305.5344,107.3707 296.1244,91.9745 C288.4906,105.268 275.6144,106.3185 268.1691,91.7852 C260.9541,104.6998 252.6255,105.709 242.335,95.1735 C231.1246,104.7381 223.2386,103.1531 216.8647,89.7986 C210.2736,102.1078 200.3008,105.7797 190.1606,93.6818 C179.261,104.2768 168.8485,105.7146 161.4144,89.9085 C153.0871,100.5341 142.1801,99.31 136.0578,87.4248 C128.344,100.9939 115.3707,103.5922 106.5262,88.5937 C98.9279,99.9255 91.4071,102.3393 82.0889,90.3995 C65.64,86.473 59.6205,72.2255 72.4189,59.2264 C59.3825,43.9571 62.0543,33.3919 79.6293,24.4737 " fill="none" style="stroke:#181818;stroke-width:1.0;"/></g><!--cluster Vehicle--><g id="cluster_Vehicle"><path d="M8.5,126.7557 L67.5,126.7557 A3.75,3.75 0 0 1 70,129.2557 L77,149.0526 L555.5,149.0526 A2.5,2.5 0 0 1 558,151.5526 L558,607.2557 A2.5,2.5 0 0 1 555.5,609.7557 L8.5,609.7557 A2.5,2.5 0 0 1 6,607.2557 L6,129.2557 A2.5,2.5 0 0 1 8.5,126.7557 " fill="none" style="stroke:#000000;stroke-width:1.5;"/><line style="stroke:#000000;stroke-width:1.5;" x1="6" x2="77" y1="149.0526" y2="149.0526"/><text fill="#000000" font-family="sans-serif" font-size="14" font-weight="bold" lengthAdjust="spacing" textLength="58" x="10" y="141.7508">Vehicle</text></g><!--cluster Freyja--><g id="cluster_Freyja"><rect fill="none" height="97" rx="2.5" ry="2.5" style="stroke:#181818;stroke-width:1.0;" width="301" x="127" y="270.7557"/><path d="M186,270.7557 L186,280.0526 L176,290.0526 L127,290.0526 " fill="none" style="stroke:#181818;stroke-width:1.0;"/><text fill="#000000" font-family="sans-serif" font-size="14" font-weight="bold" lengthAdjust="spacing" textLength="49" x="130" y="284.7508">Freyja</text></g><!--cluster Vehicle Digital Twin--><g id="cluster_Vehicle Digital Twin"><rect fill="none" height="169" rx="2.5" ry="2.5" style="stroke:#181818;stroke-width:1.0;" width="415" x="30" y="416.7557"/><path d="M201,416.7557 L201,426.0526 L191,436.0526 L30,436.0526 " fill="none" style="stroke:#181818;stroke-width:1.0;"/><text fill="#000000" font-family="sans-serif" font-size="14" font-weight="bold" lengthAdjust="spacing" textLength="161" x="33" y="430.7508">Vehicle Digital Twin</text></g><!--cluster Providers--><g id="cluster_Providers"><polygon fill="none" points="269,469.7557,279,459.7557,421,459.7557,421,551.7557,411,561.7557,269,561.7557,269,469.7557" style="stroke:#181818;stroke-width:1.0;"/><line style="stroke:#181818;stroke-width:1.0;" x1="411" x2="421" y1="469.7557" y2="459.7557"/><line style="stroke:#181818;stroke-width:1.0;" x1="269" x2="411" y1="469.7557" y2="469.7557"/><line style="stroke:#181818;stroke-width:1.0;" x1="411" x2="411" y1="469.7557" y2="561.7557"/><text fill="#000000" font-family="sans-serif" font-size="14" font-weight="bold" lengthAdjust="spacing" textLength="76" x="303" y="485.7508">Providers</text></g><!--entity Cloud Digital Twin--><g id="elem_Cloud Digital Twin"><rect fill="#F1F1F1" height="46.2969" rx="2.5" ry="2.5" style="stroke:#181818;stroke-width:0.5;" width="168" x="86" y="31.7557"/><rect fill="#F1F1F1" height="10" style="stroke:#181818;stroke-width:0.5;" width="15" x="234" y="36.7557"/><rect fill="#F1F1F1" height="2" style="stroke:#181818;stroke-width:0.5;" width="4" x="232" y="38.7557"/><rect fill="#F1F1F1" height="2" style="stroke:#181818;stroke-width:0.5;" width="4" x="232" y="42.7557"/><text fill="#000000" font-family="sans-serif" font-size="14" lengthAdjust="spacing" textLength="128" x="101" y="64.7508">Cloud Digital Twin</text></g><!--entity Mapping Service--><g id="elem_Mapping Service"><rect fill="#F1F1F1" height="46.2969" rx="2.5" ry="2.5" style="stroke:#181818;stroke-width:0.5;" width="159" x="289.5" y="31.7557"/><rect fill="#F1F1F1" height="10" style="stroke:#181818;stroke-width:0.5;" width="15" x="428.5" y="36.7557"/><rect fill="#F1F1F1" height="2" style="stroke:#181818;stroke-width:0.5;" width="4" x="426.5" y="38.7557"/><rect fill="#F1F1F1" height="2" style="stroke:#181818;stroke-width:0.5;" width="4" x="426.5" y="42.7557"/><text fill="#000000" font-family="sans-serif" font-size="14" lengthAdjust="spacing" textLength="119" x="304.5" y="64.7508">Mapping Service</text></g><!--entity Cloud Connector--><g id="elem_Cloud Connector"><rect fill="#F1F1F1" height="46.2969" rx="2.5" ry="2.5" style="stroke:#181818;stroke-width:0.5;" width="160" x="104" y="161.7557"/><rect fill="#F1F1F1" height="10" style="stroke:#181818;stroke-width:0.5;" width="15" x="244" y="166.7557"/><rect fill="#F1F1F1" height="2" style="stroke:#181818;stroke-width:0.5;" width="4" x="242" y="168.7557"/><rect fill="#F1F1F1" height="2" style="stroke:#181818;stroke-width:0.5;" width="4" x="242" y="172.7557"/><text fill="#000000" font-family="sans-serif" font-size="14" lengthAdjust="spacing" textLength="120" x="119" y="194.7508">Cloud Connector</text></g><!--entity Cartographer--><g id="elem_Cartographer"><rect fill="#F1F1F1" height="46.2969" rx="2.5" ry="2.5" style="stroke:#181818;stroke-width:0.5;" width="137" x="274.5" y="305.7557"/><rect fill="#F1F1F1" height="10" style="stroke:#181818;stroke-width:0.5;" width="15" x="391.5" y="310.7557"/><rect fill="#F1F1F1" height="2" style="stroke:#181818;stroke-width:0.5;" width="4" x="389.5" y="312.7557"/><rect fill="#F1F1F1" height="2" style="stroke:#181818;stroke-width:0.5;" width="4" x="389.5" y="316.7557"/><text fill="#000000" font-family="sans-serif" font-size="14" lengthAdjust="spacing" textLength="97" x="289.5" y="338.7508">Cartographer</text></g><!--entity Emitter--><g id="elem_Emitter"><rect fill="#F1F1F1" height="46.2969" rx="2.5" ry="2.5" style="stroke:#181818;stroke-width:0.5;" width="96" x="143" y="305.7557"/><rect fill="#F1F1F1" height="10" style="stroke:#181818;stroke-width:0.5;" width="15" x="219" y="310.7557"/><rect fill="#F1F1F1" height="2" style="stroke:#181818;stroke-width:0.5;" width="4" x="217" y="312.7557"/><rect fill="#F1F1F1" height="2" style="stroke:#181818;stroke-width:0.5;" width="4" x="217" y="316.7557"/><text fill="#000000" font-family="sans-serif" font-size="14" lengthAdjust="spacing" textLength="56" x="158" y="338.7508">Emitter</text></g><!--entity Chariott--><g id="elem_Chariott"><rect fill="#F1F1F1" height="46.2969" rx="2.5" ry="2.5" style="stroke:#181818;stroke-width:0.5;" width="100" x="46" y="499.7557"/><rect fill="#F1F1F1" height="10" style="stroke:#181818;stroke-width:0.5;" width="15" x="126" y="504.7557"/><rect fill="#F1F1F1" height="2" style="stroke:#181818;stroke-width:0.5;" width="4" x="124" y="506.7557"/><rect fill="#F1F1F1" height="2" style="stroke:#181818;stroke-width:0.5;" width="4" x="124" y="510.7557"/><text fill="#000000" font-family="sans-serif" font-size="14" lengthAdjust="spacing" textLength="60" x="61" y="532.7508">Chariott</text></g><!--entity Ibeji--><g id="elem_Ibeji"><rect fill="#F1F1F1" height="46.2969" rx="2.5" ry="2.5" style="stroke:#181818;stroke-width:0.5;" width="71" x="181.5" y="499.7557"/><rect fill="#F1F1F1" height="10" style="stroke:#181818;stroke-width:0.5;" width="15" x="232.5" y="504.7557"/><rect fill="#F1F1F1" height="2" style="stroke:#181818;stroke-width:0.5;" width="4" x="230.5" y="506.7557"/><rect fill="#F1F1F1" height="2" style="stroke:#181818;stroke-width:0.5;" width="4" x="230.5" y="510.7557"/><text fill="#000000" font-family="sans-serif" font-size="14" lengthAdjust="spacing" textLength="31" x="196.5" y="532.7508">Ibeji</text></g><!--entity Provider--><g id="elem_Provider"><rect fill="#F1F1F1" height="46.2969" rx="2.5" ry="2.5" style="stroke:#181818;stroke-width:0.5;" width="100" x="292" y="499.7557"/><rect fill="#F1F1F1" height="10" style="stroke:#181818;stroke-width:0.5;" width="15" x="372" y="504.7557"/><rect fill="#F1F1F1" height="2" style="stroke:#181818;stroke-width:0.5;" width="4" x="370" y="506.7557"/><rect fill="#F1F1F1" height="2" style="stroke:#181818;stroke-width:0.5;" width="4" x="370" y="510.7557"/><text fill="#000000" font-family="sans-serif" font-size="14" lengthAdjust="spacing" textLength="60" x="307" y="532.7508">Provider</text></g><!--link Emitter to Cartographer--><g id="link_Emitter_Cartographer"><path d="M244.335,328.7557 C252.636,328.7557 260.937,328.7557 269.237,328.7557 " fill="none" id="Emitter-Cartographer" style="stroke:#181818;stroke-width:1.0;"/><polygon fill="#181818" points="239.094,328.7557,248.094,332.7557,244.094,328.7557,248.094,324.7557,239.094,328.7557" style="stroke:#181818;stroke-width:1.0;"/><polygon fill="#181818" points="274.406,328.7557,265.406,324.7557,269.406,328.7557,265.406,332.7557,274.406,328.7557" style="stroke:#181818;stroke-width:1.0;"/></g><!--reverse link Cloud Connector to Emitter--><g id="link_Cloud Connector_Emitter"><path d="M185.35,213.1457 C186.68,240.1127 188.684,280.7797 189.914,305.7237 " fill="none" id="Cloud Connector-backto-Emitter" style="stroke:#181818;stroke-width:1.0;"/><polygon fill="#181818" points="185.094,207.9437,181.5437,217.1304,185.3411,212.9376,189.5339,216.735,185.094,207.9437" style="stroke:#181818;stroke-width:1.0;"/><text fill="#000000" font-family="sans-serif" font-size="13" lengthAdjust="spacing" textLength="64" x="189" y="250.8226">Emit Data</text></g><!--link Mapping Service to Cartographer--><g id="link_Mapping Service_Cartographer"><path d="M366.394,83.0207 C361.414,135.1197 350.599,248.2627 345.613,300.4177 " fill="none" id="Mapping Service-Cartographer" style="stroke:#181818;stroke-width:1.0;"/><polygon fill="#181818" points="366.872,78.0147,362.0341,86.5934,366.3964,82.992,369.9978,87.3544,366.872,78.0147" style="stroke:#181818;stroke-width:1.0;"/><polygon fill="#181818" points="345.121,305.5707,349.9589,296.992,345.5966,300.5934,341.9952,296.231,345.121,305.5707" style="stroke:#181818;stroke-width:1.0;"/><text fill="#000000" font-family="sans-serif" font-size="13" lengthAdjust="spacing" textLength="80" x="363" y="189.3226">Get Mapping</text></g><!--reverse link Cloud Digital Twin to Cloud Connector--><g id="link_Cloud Digital Twin_Cloud Connector"><path d="M172.968,82.8957 C175.531,106.3287 179.188,139.7637 181.578,161.6107 " fill="none" id="Cloud Digital Twin-backto-Cloud Connector" style="stroke:#181818;stroke-width:1.0;"/><polygon fill="#181818" points="172.407,77.7597,169.4105,87.1417,172.9513,82.73,177.363,86.2708,172.407,77.7597" style="stroke:#181818;stroke-width:1.0;"/></g><!--link Emitter to Chariott--><g id="link_Emitter_Chariott"><path d="M142.798,342.1207 C121.498,350.2437 98.493,363.2827 86,383.7557 C65.4191,417.4837 75.4136,464.8397 85.1895,494.3887 " fill="none" id="Emitter-to-Chariott" style="stroke:#181818;stroke-width:1.0;stroke-dasharray:7.0,7.0;"/><polygon fill="#181818" points="86.878,499.3317,87.755,489.522,85.2622,494.6,80.1842,492.1072,86.878,499.3317" style="stroke:#181818;stroke-width:1.0;"/><text fill="#000000" font-family="sans-serif" font-size="13" lengthAdjust="spacing" textLength="92" x="87" y="396.8226">Discover Ibeji?</text></g><!--link Emitter to Ibeji--><g id="link_Emitter_Ibeji"><path d="M189.497,351.8137 C188.902,361.5937 188.292,373.2437 188,383.7557 C187.79,391.3087 187.113,393.2527 188,400.7557 C191.881,433.6017 201.493,470.4407 208.593,494.7467 " fill="none" id="Emitter-to-Ibeji" style="stroke:#181818;stroke-width:1.0;"/><polygon fill="#181818" points="210.067,499.7377,211.3552,489.9735,208.6514,494.9423,203.6825,492.2385,210.067,499.7377" style="stroke:#181818;stroke-width:1.0;"/><text fill="#000000" font-family="sans-serif" font-size="13" lengthAdjust="spacing" textLength="113" x="189" y="396.8226">Discover Provider</text></g><!--link Emitter to Provider--><g id="link_Emitter_Provider"><path d="M221.179,355.0527 C231.891,362.8347 244.423,370.6787 257,375.7557 C277.869,384.1797 290.389,368.5717 307,383.7557 C337.784,411.8947 343.193,462.8937 343.303,494.3927 " fill="none" id="Emitter-Provider" style="stroke:#181818;stroke-width:1.0;"/><polygon fill="#181818" points="217.014,351.9637,221.8616,360.537,221.0306,354.9415,226.626,354.1105,217.014,351.9637" style="stroke:#181818;stroke-width:1.0;"/><polygon fill="#181818" points="343.273,499.6547,347.3244,490.6777,343.3016,494.6548,339.3245,490.632,343.273,499.6547" style="stroke:#181818;stroke-width:1.0;"/><text fill="#000000" font-family="sans-serif" font-size="13" lengthAdjust="spacing" textLength="194" x="321" y="396.8226">Collect Data via Get/Subscribe</text></g><!--link Chariott to Ibeji--><g id="link_Chariott_Ibeji"><path d="M151.322,522.7557 C159.59,522.7557 167.858,522.7557 176.126,522.7557 " fill="none" id="Chariott-Ibeji" style="stroke:#181818;stroke-width:1.0;"/><polygon fill="#181818" points="146.102,522.7557,155.102,526.7557,151.102,522.7557,155.102,518.7557,146.102,522.7557" style="stroke:#181818;stroke-width:1.0;"/><polygon fill="#181818" points="181.274,522.7557,172.274,518.7557,176.274,522.7557,172.274,526.7557,181.274,522.7557" style="stroke:#181818;stroke-width:1.0;"/></g><!--link Ibeji to Provider--><g id="link_Ibeji_Provider"><path d="M257.837,522.7557 C267.46,522.7557 277.082,522.7557 286.705,522.7557 " fill="none" id="Ibeji-Provider" style="stroke:#181818;stroke-width:1.0;"/><polygon fill="#181818" points="252.645,522.7557,261.645,526.7557,257.645,522.7557,261.645,518.7557,252.645,522.7557" style="stroke:#181818;stroke-width:1.0;"/><polygon fill="#181818" points="291.738,522.7557,282.738,518.7557,286.738,522.7557,282.738,526.7557,291.738,522.7557" style="stroke:#181818;stroke-width:1.0;"/></g><!--SRC=[PP5FJuGm4CNl_HIJlRFU3LaFeCQ3YSaQBuP3AIFCsgLaA1XZzhjRoh-oowbzdVdDcuVIfYlWJu3xFXD_IQaaApMy_r2TZG-licceBk68t9F2J5o4QAJwbYN2xWChKXft4-MBvTcfJuo_9pcB8rwoDINBfaBELldnJDREYWC7a0cziRH5LfB9M1lWNd8yqNglJU50RsnwAf3RiDkNpozhnoKqCcMIcBf6PGtxrRURG1pfw13iiPmWweQ7QmJSmr01gRJobkLRhWDtBSzeOPB5BJASjFs1gvjziJy4aJbcIgqoFJBuq1v2vyN06xCC2-UuWj9uh5s2TEM9qTePynj2Jt8mVtViybOnvIW23t74wo0n3vpK1VaF]--></g></svg>