<?xml version="1.0" encoding="UTF-8" standalone="no"?><svg xmlns="http://www.w3.org/2000/svg" xmlns:xlink="http://www.w3.org/1999/xlink" contentScriptType="application/ecmascript" contentStyleType="text/css" height="590px" preserveAspectRatio="none" style="width:704px;height:590px;background:#FEFEFE;" version="1.1" viewBox="0 0 704 590" width="704px" zoomAndPan="magnify"><defs><filter height="300%" id="f1e7eqevmt9he" width="300%" x="-1" y="-1"><feGaussianBlur result="blurOut" stdDeviation="2.0"/><feColorMatrix in="blurOut" result="blurOut2" type="matrix" values="0 0 0 0 0 0 0 0 0 0 0 0 0 0 0 0 0 0 .4 0"/><feOffset dx="4.0" dy="4.0" in="blurOut2" result="blurOut3"/><feBlend in="SourceGraphic" in2="blurOut3" mode="normal"/></filter></defs><g><path d="M148.5449,34.1736 C153.9972,24.5617 164.3806,24.939 169.7811,34.2318 C175.8878,22.4841 184.9942,19.9331 194.6462,30.2337 C202.1074,21.438 209.257,21.5527 215.3471,31.7298 C220.7701,19.2574 230.1098,17.0397 238.5014,28.9057 C245.2629,15.227 255.4997,14.9446 263.7811,27.4377 C270.3301,17.8247 279.1567,14.6517 286.7731,26.2824 C292.6616,15.0842 302.4447,13.9995 309.7679,24.7814 C317.484,15.3024 327.0308,15.3955 332.0859,27.5293 C339.5223,13.9864 348.2275,16.621 356.7802,26.3445 C365.605,14.698 374.7037,13.622 382.4797,27.4045 C390.7957,18.7923 398.8453,20.102 403.1744,31.5231 C411.4587,18.9829 419.4869,17.5446 428.5336,30.7729 C436.5706,20.9902 443.1674,22.0391 448.8448,33.0749 C457.4437,21.7576 468.1948,20.9054 474.853,35.0567 C489.1446,36.2872 497.5308,47.3428 486.7493,60.361 C494.7012,73.9067 489.0915,86.8106 472.4108,87.1933 C465.7821,97.0868 458.4847,100.2007 450.4398,88.6439 C444.2997,100.3628 432.8398,100.6028 426.9345,88.413 C422.1471,99.1403 410.3905,103.082 402.6473,91.6531 C396.7918,101.4681 386.656,101.7403 381.0257,91.4114 C374.8473,105.3745 363.0601,102.9117 355.6357,92.7213 C348.8031,104.5523 341.1424,103.5543 332.5554,94.6767 C326.1211,106.9244 318.3206,107.9312 308.6719,98.1639 C300.5376,107.1213 294.1156,106.6367 287.6603,96.3324 C280.6732,107.0327 270.851,106.4063 265.3701,94.8256 C256.8716,107.0969 249.1978,104.764 242.023,93.5119 C233.7996,103.5325 222.6554,102.8813 217.4524,90.2375 C208.0147,103.4272 199.0611,101.9759 191.9607,88.0409 C184.9558,98.8065 174.7229,98.8849 169.5543,86.2803 C162.8582,97.5146 156.4936,97.5097 149.2591,86.7778 C133.7426,83.6149 129.2618,70.3836 142.2408,59.8059 C129.9678,48.92 134.1534,38.5016 148.5449,34.1736 " fill="#FEFEFE" style="stroke: #000000; stroke-width: 1.5;"/><!--MD5=[f0862bf7367bcc9d674716c64b321cab]
cluster Vehicle--><polygon fill="#FEFEFE" filter="url(#f1e7eqevmt9he)" points="22,125,86,125,93,147.2969,682,147.2969,682,578,22,578,22,125" style="stroke: #000000; stroke-width: 1.5;"/><line style="stroke: #000000; stroke-width: 1.5;" x1="22" x2="93" y1="147.2969" y2="147.2969"/><text fill="#000000" font-family="sans-serif" font-size="14" font-weight="bold" lengthAdjust="spacingAndGlyphs" textLength="58" x="26" y="139.9951">Vehicle</text><!--MD5=[88e83b057f67aa8eb9775378cca3188b]
cluster Freyja--><rect fill="#FEFEFE" filter="url(#f1e7eqevmt9he)" height="87" style="stroke: #000000; stroke-width: 1.5;" width="247" x="208" y="259"/><path d="M266,260 L266,268.2969 L256,278.2969 L208,278.2969 " fill="none" style="stroke: #000000; stroke-width: 1.5;"/><text fill="#000000" font-family="sans-serif" font-size="14" font-weight="bold" lengthAdjust="spacingAndGlyphs" textLength="48" x="211" y="272.9951">Freyja</text><!--MD5=[6ac55479130928f71e63c1a8b20aeaf4]
cluster Ibeji--><rect fill="#FEFEFE" filter="url(#f1e7eqevmt9he)" height="159" style="stroke: #000000; stroke-width: 1.5;" width="526" x="132" y="395"/><path d="M174,396 L174,404.2969 L164,414.2969 L132,414.2969 " fill="none" style="stroke: #000000; stroke-width: 1.5;"/><text fill="#000000" font-family="sans-serif" font-size="14" font-weight="bold" lengthAdjust="spacingAndGlyphs" textLength="32" x="135" y="408.9951">Ibeji</text><!--MD5=[eb55123c22a53197bac9b02a3207d9a0]
cluster Digital Twin Providers--><polygon fill="#FEFEFE" filter="url(#f1e7eqevmt9he)" points="386,448,396,438,634,438,634,520,624,530,386,530,386,448" style="stroke: #000000; stroke-width: 1.5;"/><line style="stroke: #000000; stroke-width: 1.5;" x1="624" x2="633" y1="448" y2="439"/><line style="stroke: #000000; stroke-width: 1.5;" x1="386" x2="624" y1="448" y2="448"/><line style="stroke: #000000; stroke-width: 1.5;" x1="624" x2="624" y1="448" y2="530"/><text fill="#000000" font-family="sans-serif" font-size="14" font-weight="bold" lengthAdjust="spacingAndGlyphs" textLength="172" x="420" y="463.9951">Digital Twin Providers</text><!--MD5=[1604d5dcbb415f576ef8edfd9c31dfa0]
entity Cloud Digital Twin--><rect fill="#FEFECE" filter="url(#f1e7eqevmt9he)" height="36.2969" style="stroke: #A80036; stroke-width: 1.5;" width="142" x="153" y="40"/><rect fill="#FEFECE" height="5" style="stroke: #A80036; stroke-width: 1.5;" width="10" x="148" y="45"/><rect fill="#FEFECE" height="5" style="stroke: #A80036; stroke-width: 1.5;" width="10" x="148" y="66.2969"/><text fill="#000000" font-family="sans-serif" font-size="14" lengthAdjust="spacingAndGlyphs" textLength="122" x="163" y="62.9951">Cloud Digital Twin</text><!--MD5=[588bbdbf0f40a8a5005cf176a71de1f5]
entity Mapping Service--><rect fill="#FEFECE" filter="url(#f1e7eqevmt9he)" height="36.2969" style="stroke: #A80036; stroke-width: 1.5;" width="133" x="330.5" y="40"/><rect fill="#FEFECE" height="5" style="stroke: #A80036; stroke-width: 1.5;" width="10" x="325.5" y="45"/><rect fill="#FEFECE" height="5" style="stroke: #A80036; stroke-width: 1.5;" width="10" x="325.5" y="66.2969"/><text fill="#000000" font-family="sans-serif" font-size="14" lengthAdjust="spacingAndGlyphs" textLength="113" x="340.5" y="62.9951">Mapping Service</text><!--MD5=[c44cbeb5ceaaf8c4ba17cfa808523486]
entity Chariott--><rect fill="#FEFECE" filter="url(#f1e7eqevmt9he)" height="36.2969" style="stroke: #A80036; stroke-width: 1.5;" width="74" x="38" y="478"/><rect fill="#FEFECE" height="5" style="stroke: #A80036; stroke-width: 1.5;" width="10" x="33" y="483"/><rect fill="#FEFECE" height="5" style="stroke: #A80036; stroke-width: 1.5;" width="10" x="33" y="504.2969"/><text fill="#000000" font-family="sans-serif" font-size="14" lengthAdjust="spacingAndGlyphs" textLength="54" x="48" y="500.9951">Chariott</text><!--MD5=[041e0fd6ba3b2fd9f21b32dca4378f49]
entity Cloud Connector--><rect fill="#FEFECE" filter="url(#f1e7eqevmt9he)" height="36.2969" style="stroke: #A80036; stroke-width: 1.5;" width="137" x="167.5" y="160"/><rect fill="#FEFECE" height="5" style="stroke: #A80036; stroke-width: 1.5;" width="10" x="162.5" y="165"/><rect fill="#FEFECE" height="5" style="stroke: #A80036; stroke-width: 1.5;" width="10" x="162.5" y="186.2969"/><text fill="#000000" font-family="sans-serif" font-size="14" lengthAdjust="spacingAndGlyphs" textLength="117" x="177.5" y="182.9951">Cloud Connector</text><!--MD5=[a3d41d946e2b2630dfd9f74f50bb1723]
entity Cartographer--><rect fill="#FEFECE" filter="url(#f1e7eqevmt9he)" height="36.2969" style="stroke: #A80036; stroke-width: 1.5;" width="111" x="328.5" y="294"/><rect fill="#FEFECE" height="5" style="stroke: #A80036; stroke-width: 1.5;" width="10" x="323.5" y="299"/><rect fill="#FEFECE" height="5" style="stroke: #A80036; stroke-width: 1.5;" width="10" x="323.5" y="320.2969"/><text fill="#000000" font-family="sans-serif" font-size="14" lengthAdjust="spacingAndGlyphs" textLength="91" x="338.5" y="316.9951">Cartographer</text><!--MD5=[5db1e66abd3f7f43b90b7d38fc9ccb5a]
entity Emitter--><rect fill="#FEFECE" filter="url(#f1e7eqevmt9he)" height="36.2969" style="stroke: #A80036; stroke-width: 1.5;" width="69" x="224.5" y="294"/><rect fill="#FEFECE" height="5" style="stroke: #A80036; stroke-width: 1.5;" width="10" x="219.5" y="299"/><rect fill="#FEFECE" height="5" style="stroke: #A80036; stroke-width: 1.5;" width="10" x="219.5" y="320.2969"/><text fill="#000000" font-family="sans-serif" font-size="14" lengthAdjust="spacingAndGlyphs" textLength="49" x="234.5" y="316.9951">Emitter</text><!--MD5=[e6e725cab67fde0e2faad4fc6fd3a9e4]
entity ivdts--><rect fill="#FEFECE" filter="url(#f1e7eqevmt9he)" height="36.2969" style="stroke: #A80036; stroke-width: 1.5;" width="223" x="147.5" y="478"/><rect fill="#FEFECE" height="5" style="stroke: #A80036; stroke-width: 1.5;" width="10" x="142.5" y="483"/><rect fill="#FEFECE" height="5" style="stroke: #A80036; stroke-width: 1.5;" width="10" x="142.5" y="504.2969"/><text fill="#000000" font-family="sans-serif" font-size="14" lengthAdjust="spacingAndGlyphs" textLength="203" x="157.5" y="500.9951">In-Vehicle Digital Twin Service</text><!--MD5=[62cc4166db310ca44a141886713fd6cd]
entity provider--><rect fill="#FEFECE" filter="url(#f1e7eqevmt9he)" height="36.2969" style="stroke: #A80036; stroke-width: 1.5;" width="158" x="406" y="478"/><rect fill="#FEFECE" height="5" style="stroke: #A80036; stroke-width: 1.5;" width="10" x="401" y="483"/><rect fill="#FEFECE" height="5" style="stroke: #A80036; stroke-width: 1.5;" width="10" x="401" y="504.2969"/><text fill="#000000" font-family="sans-serif" font-size="14" lengthAdjust="spacingAndGlyphs" textLength="138" x="416" y="500.9951">Digital Twin Provider</text><!--MD5=[5fb7d8489bb3b9af0c876d8c093b3688]
link Emitter to Cartographer--><path d="M298.8,312 C306.93,312 315.06,312 323.19,312 " fill="none" id="Emitter-Cartographer" style="stroke: #A80036; stroke-width: 1.0;"/><polygon fill="#A80036" points="328.25,312,319.25,308,323.25,312,319.25,316,328.25,312" style="stroke: #A80036; stroke-width: 1.0;"/><polygon fill="#A80036" points="293.67,312,302.67,316,298.67,312,302.67,308,293.67,312" style="stroke: #A80036; stroke-width: 1.0;"/><!--MD5=[5f3415b40dd353f6f1225f479bdf176d]
reverse link Cloud Connector to Emitter--><path d="M239.88,201.24 C244.42,227.33 251.86,270.02 255.99,293.74 " fill="none" id="Cloud Connector&lt;-Emitter" style="stroke: #A80036; stroke-width: 1.0;"/><polygon fill="#A80036" points="239.01,196.26,236.6112,205.8123,239.8667,201.1861,244.4929,204.4415,239.01,196.26" style="stroke: #A80036; stroke-width: 1.0;"/><text fill="#000000" font-family="sans-serif" font-size="13" lengthAdjust="spacingAndGlyphs" textLength="64" x="247" y="239.0669">Emit Data</text><!--MD5=[fbda99552aefa0e76b45f5cdc7ae68d3]
link Mapping Service to Cartographer--><path d="M395.84,81.48 C393.37,129.35 387.62,240.91 385.15,288.66 " fill="none" id="Mapping Service-Cartographer" style="stroke: #A80036; stroke-width: 1.0;"/><polygon fill="#A80036" points="384.88,293.89,389.337,285.1073,385.1368,288.8966,381.3475,284.6964,384.88,293.89" style="stroke: #A80036; stroke-width: 1.0;"/><polygon fill="#A80036" points="396.11,76.32,391.653,85.1027,395.8532,81.3134,399.6425,85.5136,396.11,76.32" style="stroke: #A80036; stroke-width: 1.0;"/><text fill="#000000" font-family="sans-serif" font-size="13" lengthAdjust="spacingAndGlyphs" textLength="81" x="394" y="182.5669">Get Mapping</text><!--MD5=[cf6fa0675c7686d9bf787d802e0ceaba]
reverse link Cloud Digital Twin to Cloud Connector--><path d="M226.28,81.4 C228.6,104.21 232.15,139.1 234.25,159.82 " fill="none" id="Cloud Digital Twin&lt;-Cloud Connector" style="stroke: #A80036; stroke-width: 1.0;"/><polygon fill="#A80036" points="225.74,76.16,222.6607,85.5151,226.2403,81.1349,230.6206,84.7145,225.74,76.16" style="stroke: #A80036; stroke-width: 1.0;"/><!--MD5=[01cae1d31ddf7401d38ae0aa19cac08a]
link Emitter to Chariott--><path d="M224.32,326.6 C204.11,335.29 178.63,347.62 158,362 C118.53,389.51 93.99,442.45 82.59,472.57 " fill="none" id="Emitter-&gt;Chariott" style="stroke: #A80036; stroke-width: 1.0; stroke-dasharray: 7.0,7.0;"/><polygon fill="#A80036" points="80.74,477.57,87.6007,470.5039,82.4659,472.8773,80.0924,467.7425,80.74,477.57" style="stroke: #A80036; stroke-width: 1.0;"/><text fill="#000000" font-family="sans-serif" font-size="13" lengthAdjust="spacingAndGlyphs" textLength="91" x="159" y="375.0669">Discover Ibeji?</text><!--MD5=[f8e1e0d7848ea545cdfbe6827b1b39e6]
link Emitter to ivdts--><path d="M259,330.12 C259,363.18 259,435.79 259,472.63 " fill="none" id="Emitter-&gt;ivdts" style="stroke: #A80036; stroke-width: 1.0;"/><polygon fill="#A80036" points="259,477.79,263,468.79,259,472.79,255,468.79,259,477.79" style="stroke: #A80036; stroke-width: 1.0;"/><text fill="#000000" font-family="sans-serif" font-size="13" lengthAdjust="spacingAndGlyphs" textLength="118" x="260" y="375.0669">Discover Providers</text><!--MD5=[001ff325f5747cc8d28befb9c8e72fc9]
link Emitter to provider--><path d="M279.87,333.88 C288.74,341.51 299.65,349.38 311,354 C342.46,366.8 357.53,345.11 387,362 C431.65,387.58 461.85,442.63 475.92,473.28 " fill="none" id="Emitter-provider" style="stroke: #A80036; stroke-width: 1.0;"/><polygon fill="#A80036" points="478.04,477.98,477.9829,468.1313,475.9828,473.4228,470.6913,471.4228,478.04,477.98" style="stroke: #A80036; stroke-width: 1.0;"/><polygon fill="#A80036" points="275.69,330.18,279.7762,339.1412,279.4333,333.4947,285.0798,333.1518,275.69,330.18" style="stroke: #A80036; stroke-width: 1.0;"/><text fill="#000000" font-family="sans-serif" font-size="13" lengthAdjust="spacingAndGlyphs" textLength="194" x="409" y="375.0669">Collect Data via Get/Subscribe</text><!--MD5=[c1f294d85358f48b3f10f6343f6ca934]
link Chariott to ivdts--><path d="M117.26,496 C125.56,496 133.86,496 142.16,496 " fill="none" id="Chariott-ivdts" style="stroke: #A80036; stroke-width: 1.0;"/><polygon fill="#A80036" points="147.33,496,138.33,492,142.33,496,138.33,500,147.33,496" style="stroke: #A80036; stroke-width: 1.0;"/><polygon fill="#A80036" points="112.02,496,121.02,500,117.02,496,121.02,492,112.02,496" style="stroke: #A80036; stroke-width: 1.0;"/><!--MD5=[f22bbdf22fac5152a1d1851ea6c95475]
link ivdts to provider--><path d="M375.91,496 C384.21,496 392.5,496 400.79,496 " fill="none" id="ivdts-provider" style="stroke: #A80036; stroke-width: 1.0;"/><polygon fill="#A80036" points="405.96,496,396.96,492,400.96,496,396.96,500,405.96,496" style="stroke: #A80036; stroke-width: 1.0;"/><polygon fill="#A80036" points="370.68,496,379.68,500,375.68,496,379.68,492,370.68,496" style="stroke: #A80036; stroke-width: 1.0;"/><!--MD5=[98aafb8b275827e8b6dd71921cff2350]
@startuml
skinparamlocked backgroundColor fefefe

cloud {
    [Cloud Digital Twin]
    [Mapping Service]
}

package "Vehicle" {
    frame "Freyja" {
        [Cartographer]
        [Emitter]
    }

    [Chariott]

    frame "Ibeji" {
        [In-Vehicle Digital Twin Service] as ivdts
        node "Digital Twin Providers" {
            [Digital Twin Provider] as provider
        }
    }

    [Cloud Connector]
}

[Cartographer] <-l-> [Emitter]
[Emitter] -u-> [Cloud Connector] : Emit Data
[Cartographer] <-u-> [Mapping Service] : Get Mapping
[Cloud Connector] -u-> [Cloud Digital Twin]
[Emitter] .d.> [Chariott] : Discover Ibeji?
[Emitter] -d-> [ivdts] : Discover Providers
[Emitter] <-d-> [provider] : Collect Data via Get/Subscribe
[Chariott] <-r-> [ivdts]
[ivdts] <-r-> [provider]

@enduml

PlantUML version 1.2020.02(Sun Mar 01 10:22:07 UTC 2020)
(GPL source distribution)
Java Runtime: OpenJDK Runtime Environment
JVM: OpenJDK 64-Bit Server VM
Java Version: 11.0.21+9
Operating System: Linux
Default Encoding: UTF-8
Language: en
Country: null
--></g></svg>