<?xml version="1.0" encoding="us-ascii" standalone="no"?><svg xmlns="http://www.w3.org/2000/svg" xmlns:xlink="http://www.w3.org/1999/xlink" contentStyleType="text/css" height="616px" preserveAspectRatio="none" style="width:741px;height:616px;background:#FFFFFF;" version="1.1" viewBox="0 0 741 616" width="741px" zoomAndPan="magnify"><defs/><g><g id="cluster_##2"><path d="M174.6293,24.4737 C183.6944,10.212 196.2442,11.4684 202.9776,26.7138 C208.8434,12.3627 221.2043,10.6764 230.5018,23.199 C237.5244,11.7946 247.5298,13.7206 254.4091,23.3618 C264.7756,10.1606 274.6651,7.3242 285.1109,23.2782 C291.6245,11.0389 302.9021,12.6184 308.9912,23.7126 C316.1898,10.3163 325.0501,6.4197 336.2049,19.6726 C345.5424,6.9159 357.7921,6 364.9736,21.8414 C371.2998,10.6687 383.0832,6.6129 390.9849,20.1852 C399.0844,8.1327 411.1614,8.1503 419.674,19.6827 C428.2555,7.9386 442.1814,7.0493 448.2927,22.3014 C457.2419,10.034 466.5778,13.1029 472.7783,25.0777 C480.5692,9.8824 489.4431,11.2524 500.2377,21.884 C508.87,6.86 521.173,10.8633 528.397,23.3267 C538.187,10.1967 552.0097,12.39 556.8754,28.1765 C570.0304,36.6985 572.342,45.5067 560.0784,56.8664 C570.7132,69.0363 569.0761,80.3214 553.6195,86.8757 C545.7545,99.2123 534.273,99.6174 525.3145,88.1774 C517.642,100.4966 508.7444,99.3288 499.8716,89.5601 C492.6417,100.7737 483.1436,102.2173 474.0473,91.7868 C465.8723,105.6581 453.6585,108.2667 444.5515,92.7213 C436.7516,102.944 427.9983,103.606 421.1941,91.6717 C412.0752,105.1728 400.5344,107.3707 391.1244,91.9745 C383.4906,105.268 370.6144,106.3185 363.1691,91.7852 C355.9541,104.6998 347.6255,105.709 337.335,95.1735 C326.1246,104.7381 318.2386,103.1531 311.8647,89.7986 C305.2736,102.1078 295.3008,105.7797 285.1606,93.6818 C274.261,104.2768 263.8485,105.7146 256.4144,89.9085 C248.0871,100.5341 237.1801,99.31 231.0578,87.4248 C223.344,100.9939 210.3707,103.5922 201.5262,88.5937 C193.9279,99.9255 186.4071,102.3393 177.0889,90.3995 C160.64,86.473 154.6205,72.2255 167.4189,59.2264 C154.3825,43.9571 157.0543,33.3919 174.6293,24.4737 " fill="none" style="stroke:#181818;stroke-width:1.0;"/></g><!--cluster Vehicle--><g id="cluster_Vehicle"><path d="M8.5,126.7557 L67.5,126.7557 A3.75,3.75 0 0 1 70,129.2557 L77,149.0526 L731.5,149.0526 A2.5,2.5 0 0 1 734,151.5526 L734,607.2557 A2.5,2.5 0 0 1 731.5,609.7557 L8.5,609.7557 A2.5,2.5 0 0 1 6,607.2557 L6,129.2557 A2.5,2.5 0 0 1 8.5,126.7557 " fill="none" style="stroke:#000000;stroke-width:1.5;"/><line style="stroke:#000000;stroke-width:1.5;" x1="6" x2="77" y1="149.0526" y2="149.0526"/><text fill="#000000" font-family="sans-serif" font-size="14" font-weight="bold" lengthAdjust="spacing" textLength="58" x="10" y="141.7508">Vehicle</text></g><!--cluster Freyja--><g id="cluster_Freyja"><rect fill="none" height="97" rx="2.5" ry="2.5" style="stroke:#181818;stroke-width:1.0;" width="301" x="222" y="270.7557"/><path d="M281,270.7557 L281,280.0526 L271,290.0526 L222,290.0526 " fill="none" style="stroke:#181818;stroke-width:1.0;"/><text fill="#000000" font-family="sans-serif" font-size="14" font-weight="bold" lengthAdjust="spacing" textLength="49" x="225" y="284.7508">Freyja</text></g><!--cluster Ibeji--><g id="cluster_Ibeji"><rect fill="none" height="169" rx="2.5" ry="2.5" style="stroke:#181818;stroke-width:1.0;" width="569" x="141" y="416.7557"/><path d="M185,416.7557 L185,426.0526 L175,436.0526 L141,436.0526 " fill="none" style="stroke:#181818;stroke-width:1.0;"/><text fill="#000000" font-family="sans-serif" font-size="14" font-weight="bold" lengthAdjust="spacing" textLength="34" x="144" y="430.7508">Ibeji</text></g><!--cluster Digital Twin Providers--><g id="cluster_Digital Twin Providers"><polygon fill="none" points="431,469.7557,441,459.7557,686,459.7557,686,551.7557,676,561.7557,431,561.7557,431,469.7557" style="stroke:#181818;stroke-width:1.0;"/><line style="stroke:#181818;stroke-width:1.0;" x1="676" x2="686" y1="469.7557" y2="459.7557"/><line style="stroke:#181818;stroke-width:1.0;" x1="431" x2="676" y1="469.7557" y2="469.7557"/><line style="stroke:#181818;stroke-width:1.0;" x1="676" x2="676" y1="469.7557" y2="561.7557"/><text fill="#000000" font-family="sans-serif" font-size="14" font-weight="bold" lengthAdjust="spacing" textLength="179" x="465" y="485.7508">Digital Twin Providers</text></g><!--entity Cloud Digital Twin--><g id="elem_Cloud Digital Twin"><rect fill="#F1F1F1" height="46.2969" rx="2.5" ry="2.5" style="stroke:#181818;stroke-width:0.5;" width="168" x="181" y="31.7557"/><rect fill="#F1F1F1" height="10" style="stroke:#181818;stroke-width:0.5;" width="15" x="329" y="36.7557"/><rect fill="#F1F1F1" height="2" style="stroke:#181818;stroke-width:0.5;" width="4" x="327" y="38.7557"/><rect fill="#F1F1F1" height="2" style="stroke:#181818;stroke-width:0.5;" width="4" x="327" y="42.7557"/><text fill="#000000" font-family="sans-serif" font-size="14" lengthAdjust="spacing" textLength="128" x="196" y="64.7508">Cloud Digital Twin</text></g><!--entity Mapping Service--><g id="elem_Mapping Service"><rect fill="#F1F1F1" height="46.2969" rx="2.5" ry="2.5" style="stroke:#181818;stroke-width:0.5;" width="159" x="384.5" y="31.7557"/><rect fill="#F1F1F1" height="10" style="stroke:#181818;stroke-width:0.5;" width="15" x="523.5" y="36.7557"/><rect fill="#F1F1F1" height="2" style="stroke:#181818;stroke-width:0.5;" width="4" x="521.5" y="38.7557"/><rect fill="#F1F1F1" height="2" style="stroke:#181818;stroke-width:0.5;" width="4" x="521.5" y="42.7557"/><text fill="#000000" font-family="sans-serif" font-size="14" lengthAdjust="spacing" textLength="119" x="399.5" y="64.7508">Mapping Service</text></g><!--entity Chariott--><g id="elem_Chariott"><rect fill="#F1F1F1" height="46.2969" rx="2.5" ry="2.5" style="stroke:#181818;stroke-width:0.5;" width="100" x="22" y="499.7557"/><rect fill="#F1F1F1" height="10" style="stroke:#181818;stroke-width:0.5;" width="15" x="102" y="504.7557"/><rect fill="#F1F1F1" height="2" style="stroke:#181818;stroke-width:0.5;" width="4" x="100" y="506.7557"/><rect fill="#F1F1F1" height="2" style="stroke:#181818;stroke-width:0.5;" width="4" x="100" y="510.7557"/><text fill="#000000" font-family="sans-serif" font-size="14" lengthAdjust="spacing" textLength="60" x="37" y="532.7508">Chariott</text></g><!--entity Cloud Connector--><g id="elem_Cloud Connector"><rect fill="#F1F1F1" height="46.2969" rx="2.5" ry="2.5" style="stroke:#181818;stroke-width:0.5;" width="160" x="199" y="161.7557"/><rect fill="#F1F1F1" height="10" style="stroke:#181818;stroke-width:0.5;" width="15" x="339" y="166.7557"/><rect fill="#F1F1F1" height="2" style="stroke:#181818;stroke-width:0.5;" width="4" x="337" y="168.7557"/><rect fill="#F1F1F1" height="2" style="stroke:#181818;stroke-width:0.5;" width="4" x="337" y="172.7557"/><text fill="#000000" font-family="sans-serif" font-size="14" lengthAdjust="spacing" textLength="120" x="214" y="194.7508">Cloud Connector</text></g><!--entity Cartographer--><g id="elem_Cartographer"><rect fill="#F1F1F1" height="46.2969" rx="2.5" ry="2.5" style="stroke:#181818;stroke-width:0.5;" width="137" x="369.5" y="305.7557"/><rect fill="#F1F1F1" height="10" style="stroke:#181818;stroke-width:0.5;" width="15" x="486.5" y="310.7557"/><rect fill="#F1F1F1" height="2" style="stroke:#181818;stroke-width:0.5;" width="4" x="484.5" y="312.7557"/><rect fill="#F1F1F1" height="2" style="stroke:#181818;stroke-width:0.5;" width="4" x="484.5" y="316.7557"/><text fill="#000000" font-family="sans-serif" font-size="14" lengthAdjust="spacing" textLength="97" x="384.5" y="338.7508">Cartographer</text></g><!--entity Emitter--><g id="elem_Emitter"><rect fill="#F1F1F1" height="46.2969" rx="2.5" ry="2.5" style="stroke:#181818;stroke-width:0.5;" width="96" x="238" y="305.7557"/><rect fill="#F1F1F1" height="10" style="stroke:#181818;stroke-width:0.5;" width="15" x="314" y="310.7557"/><rect fill="#F1F1F1" height="2" style="stroke:#181818;stroke-width:0.5;" width="4" x="312" y="312.7557"/><rect fill="#F1F1F1" height="2" style="stroke:#181818;stroke-width:0.5;" width="4" x="312" y="316.7557"/><text fill="#000000" font-family="sans-serif" font-size="14" lengthAdjust="spacing" textLength="56" x="253" y="338.7508">Emitter</text></g><!--entity ivdts--><g id="elem_ivdts"><rect fill="#F1F1F1" height="46.2969" rx="2.5" ry="2.5" style="stroke:#181818;stroke-width:0.5;" width="257" x="157.5" y="499.7557"/><rect fill="#F1F1F1" height="10" style="stroke:#181818;stroke-width:0.5;" width="15" x="394.5" y="504.7557"/><rect fill="#F1F1F1" height="2" style="stroke:#181818;stroke-width:0.5;" width="4" x="392.5" y="506.7557"/><rect fill="#F1F1F1" height="2" style="stroke:#181818;stroke-width:0.5;" width="4" x="392.5" y="510.7557"/><text fill="#000000" font-family="sans-serif" font-size="14" lengthAdjust="spacing" textLength="217" x="172.5" y="532.7508">In-Vehicle Digital Twin Service</text></g><!--entity provider--><g id="elem_provider"><rect fill="#F1F1F1" height="46.2969" rx="2.5" ry="2.5" style="stroke:#181818;stroke-width:0.5;" width="188" x="450" y="499.7557"/><rect fill="#F1F1F1" height="10" style="stroke:#181818;stroke-width:0.5;" width="15" x="618" y="504.7557"/><rect fill="#F1F1F1" height="2" style="stroke:#181818;stroke-width:0.5;" width="4" x="616" y="506.7557"/><rect fill="#F1F1F1" height="2" style="stroke:#181818;stroke-width:0.5;" width="4" x="616" y="510.7557"/><text fill="#000000" font-family="sans-serif" font-size="14" lengthAdjust="spacing" textLength="148" x="465" y="532.7508">Digital Twin Provider</text></g><!--link Emitter to Cartographer--><g id="link_Emitter_Cartographer"><path d="M339.335,328.7557 C347.636,328.7557 355.937,328.7557 364.237,328.7557 " fill="none" id="Emitter-Cartographer" style="stroke:#181818;stroke-width:1.0;"/><polygon fill="#181818" points="334.094,328.7557,343.094,332.7557,339.094,328.7557,343.094,324.7557,334.094,328.7557" style="stroke:#181818;stroke-width:1.0;"/><polygon fill="#181818" points="369.406,328.7557,360.406,324.7557,364.406,328.7557,360.406,332.7557,369.406,328.7557" style="stroke:#181818;stroke-width:1.0;"/></g><!--reverse link Cloud Connector to Emitter--><g id="link_Cloud Connector_Emitter"><path d="M280.35,213.1457 C281.68,240.1127 283.684,280.7797 284.914,305.7237 " fill="none" id="Cloud Connector-backto-Emitter" style="stroke:#181818;stroke-width:1.0;"/><polygon fill="#181818" points="280.094,207.9437,276.5437,217.1304,280.3411,212.9376,284.5339,216.735,280.094,207.9437" style="stroke:#181818;stroke-width:1.0;"/><text fill="#000000" font-family="sans-serif" font-size="13" lengthAdjust="spacing" textLength="64" x="284" y="250.8226">Emit Data</text></g><!--link Mapping Service to Cartographer--><g id="link_Mapping Service_Cartographer"><path d="M461.394,83.0207 C456.414,135.1197 445.599,248.2627 440.613,300.4177 " fill="none" id="Mapping Service-Cartographer" style="stroke:#181818;stroke-width:1.0;"/><polygon fill="#181818" points="461.872,78.0147,457.0341,86.5934,461.3964,82.992,464.9978,87.3544,461.872,78.0147" style="stroke:#181818;stroke-width:1.0;"/><polygon fill="#181818" points="440.121,305.5707,444.9589,296.992,440.5966,300.5934,436.9952,296.231,440.121,305.5707" style="stroke:#181818;stroke-width:1.0;"/><text fill="#000000" font-family="sans-serif" font-size="13" lengthAdjust="spacing" textLength="80" x="458" y="189.3226">Get Mapping</text></g><!--reverse link Cloud Digital Twin to Cloud Connector--><g id="link_Cloud Digital Twin_Cloud Connector"><path d="M267.968,82.8957 C270.531,106.3287 274.188,139.7637 276.578,161.6107 " fill="none" id="Cloud Digital Twin-backto-Cloud Connector" style="stroke:#181818;stroke-width:1.0;"/><polygon fill="#181818" points="267.407,77.7597,264.4105,87.1417,267.9513,82.73,272.363,86.2708,267.407,77.7597" style="stroke:#181818;stroke-width:1.0;"/></g><!--link Emitter to Chariott--><g id="link_Emitter_Chariott"><path d="M237.979,347.8767 C207.47,361.1977 168.659,381.6867 141,408.7557 C115.434,433.7767 95.452,470.1357 83.7135,494.8017 " fill="none" id="Emitter-to-Chariott" style="stroke:#181818;stroke-width:1.0;stroke-dasharray:7.0,7.0;"/><polygon fill="#181818" points="81.4765,499.5727,88.9192,493.1224,83.5993,495.0457,81.676,489.7259,81.4765,499.5727" style="stroke:#181818;stroke-width:1.0;"/><text fill="#000000" font-family="sans-serif" font-size="13" lengthAdjust="spacing" textLength="92" x="170" y="396.8226">Discover Ibeji?</text></g><!--link Emitter to ivdts--><g id="link_Emitter_ivdts"><path d="M286,351.7807 C286,386.9867 286,455.8727 286,494.2587 " fill="none" id="Emitter-to-ivdts" style="stroke:#181818;stroke-width:1.0;"/><polygon fill="#181818" points="286,499.6927,290,490.6927,286,494.6927,282,490.6927,286,499.6927" style="stroke:#181818;stroke-width:1.0;"/><text fill="#000000" font-family="sans-serif" font-size="13" lengthAdjust="spacing" textLength="120" x="287" y="396.8226">Discover Providers</text></g><!--link Emitter to provider--><g id="link_Emitter_provider"><path d="M315.789,355.0897 C326.557,362.9607 339.223,370.8507 352,375.7557 C378.762,386.0287 389.705,372.3407 416,383.7557 C468.067,406.3577 508.407,461.8217 528.963,495.1467 " fill="none" id="Emitter-provider" style="stroke:#181818;stroke-width:1.0;"/><polygon fill="#181818" points="311.606,351.9637,316.4217,360.5549,315.6115,354.9564,321.21,354.1462,311.606,351.9637" style="stroke:#181818;stroke-width:1.0;"/><polygon fill="#181818" points="531.611,499.4967,530.3483,489.7291,529.0113,495.2257,523.5147,493.8887,531.611,499.4967" style="stroke:#181818;stroke-width:1.0;"/><text fill="#000000" font-family="sans-serif" font-size="13" lengthAdjust="spacing" textLength="194" x="443" y="396.8226">Collect Data via Get/Subscribe</text></g><!--link Chariott to ivdts--><g id="link_Chariott_ivdts"><path d="M127.381,522.7557 C135.656,522.7557 143.93,522.7557 152.205,522.7557 " fill="none" id="Chariott-ivdts" style="stroke:#181818;stroke-width:1.0;"/><polygon fill="#181818" points="122.156,522.7557,131.156,526.7557,127.156,522.7557,131.156,518.7557,122.156,522.7557" style="stroke:#181818;stroke-width:1.0;"/><polygon fill="#181818" points="157.357,522.7557,148.357,518.7557,152.357,522.7557,148.357,526.7557,157.357,522.7557" style="stroke:#181818;stroke-width:1.0;"/></g><!--link ivdts to provider--><g id="link_ivdts_provider"><path d="M419.957,522.7557 C428.205,522.7557 436.454,522.7557 444.702,522.7557 " fill="none" id="ivdts-provider" style="stroke:#181818;stroke-width:1.0;"/><polygon fill="#181818" points="414.748,522.7557,423.748,526.7557,419.748,522.7557,423.748,518.7557,414.748,522.7557" style="stroke:#181818;stroke-width:1.0;"/><polygon fill="#181818" points="449.838,522.7557,440.838,518.7557,444.838,522.7557,440.838,526.7557,449.838,522.7557" style="stroke:#181818;stroke-width:1.0;"/></g><!--SRC=[RP51Ry8m38Nl-HKMzx8xGkm0syHXqYIcNQOUJEeLGsagDtIQ9lxxqhI41DPJy_By-SNMbJaLyAl0VPzBVrXnoHOhUF_cEXykNh5fk2vXGzAnfboTbMfG7x0ac7pGZdL5av7o9NXqwhFGpnulue17iQOKR7Oa-LL-EhAr5yM11-yEXOsrkOgXwotjEM6kwspid-GEIG5RuAwmRIYfJU58YVbDJCS5IHkZFVvVcuSsuo7upsb-FygbgMlIreYVM3e0c6TLjeYU7_uWE_KNjmYOGU-05LgyP_cIspsvaXUoCChg7XbtIlT-JJCjfeje8OwvubQRZWJyFXxZv4NFymDFZ672aNS-c9imrPbBLbKkcNyYT8nz-eVDQTjguIsfACGyasidTUaugW7v1m00]--></g></svg>