<?xml version="1.0" encoding="us-ascii" standalone="no"?><svg xmlns="http://www.w3.org/2000/svg" xmlns:xlink="http://www.w3.org/1999/xlink" contentStyleType="text/css" height="427px" preserveAspectRatio="none" style="width:646px;height:427px;background:#FFFFFF;" version="1.1" viewBox="0 0 646 427" width="646px" zoomAndPan="magnify"><defs/><g><rect fill="#FFB6C1" height="88.3984" style="stroke:#000000;stroke-width:1.5;" width="619" x="10" y="154.6953"/><rect fill="#ADD8E6" height="75.3984" style="stroke:#000000;stroke-width:1.5;" width="405" x="10" y="257.0938"/><line style="stroke:#181818;stroke-width:0.5;stroke-dasharray:5.0,5.0;" x1="99" x2="99" y1="36.2969" y2="392.625"/><line style="stroke:#181818;stroke-width:0.5;stroke-dasharray:5.0,5.0;" x1="323.5" x2="323.5" y1="36.2969" y2="392.625"/><rect fill="#E2E2F0" height="30.2969" rx="2.5" ry="2.5" style="stroke:#181818;stroke-width:0.5;" width="158" x="20" y="5"/><text fill="#000000" font-family="sans-serif" font-size="14" lengthAdjust="spacing" textLength="144" x="27" y="24.9951">Freyja Cartographer</text><rect fill="#E2E2F0" height="30.2969" rx="2.5" ry="2.5" style="stroke:#181818;stroke-width:0.5;" width="158" x="20" y="391.625"/><text fill="#000000" font-family="sans-serif" font-size="14" lengthAdjust="spacing" textLength="144" x="27" y="411.6201">Freyja Cartographer</text><rect fill="#E2E2F0" height="30.2969" rx="2.5" ry="2.5" style="stroke:#181818;stroke-width:0.5;" width="133" x="257.5" y="5"/><text fill="#000000" font-family="sans-serif" font-size="14" lengthAdjust="spacing" textLength="119" x="264.5" y="24.9951">Mapping Service</text><rect fill="#E2E2F0" height="30.2969" rx="2.5" ry="2.5" style="stroke:#181818;stroke-width:0.5;" width="133" x="257.5" y="391.625"/><text fill="#000000" font-family="sans-serif" font-size="14" lengthAdjust="spacing" textLength="119" x="264.5" y="411.6201">Mapping Service</text><rect fill="#EEEEEE" height="3" style="stroke:#EEEEEE;stroke-width:1.0;" width="639" x="0" y="66.8633"/><line style="stroke:#000000;stroke-width:1.0;" x1="0" x2="639" y1="66.8633" y2="66.8633"/><line style="stroke:#000000;stroke-width:1.0;" x1="0" x2="639" y1="69.8633" y2="69.8633"/><rect fill="#EEEEEE" height="23.1328" style="stroke:#000000;stroke-width:2.0;" width="398" x="120.5" y="56.2969"/><text fill="#000000" font-family="sans-serif" font-size="13" font-weight="bold" lengthAdjust="spacing" textLength="379" x="126.5" y="72.3638">Freyja Communication with Mapping Info Provider</text><polygon fill="#181818" points="312,106.5625,322,110.5625,312,114.5625,316,110.5625" style="stroke:#181818;stroke-width:1.0;"/><line style="stroke:#181818;stroke-width:1.0;" x1="99" x2="318" y1="110.5625" y2="110.5625"/><text fill="#000000" font-family="sans-serif" font-size="13" font-weight="bold" lengthAdjust="spacing" textLength="9" x="106" y="105.4966">1</text><text fill="#000000" font-family="sans-serif" font-size="13" lengthAdjust="spacing" textLength="188" x="119" y="105.4966">Query for mapping metadata</text><polygon fill="#181818" points="110,135.6953,100,139.6953,110,143.6953,106,139.6953" style="stroke:#181818;stroke-width:1.0;"/><line style="stroke:#181818;stroke-width:1.0;" x1="104" x2="323" y1="139.6953" y2="139.6953"/><text fill="#000000" font-family="sans-serif" font-size="13" font-weight="bold" lengthAdjust="spacing" textLength="9" x="116" y="134.6294">2</text><text fill="#000000" font-family="sans-serif" font-size="13" lengthAdjust="spacing" textLength="154" x="129" y="134.6294">Respond with metadata</text><path d="M10,154.6953 L76,154.6953 L76,161.8281 L66,171.8281 L10,171.8281 L10,154.6953 " fill="#EEEEEE" style="stroke:#000000;stroke-width:1.5;"/><rect fill="none" height="88.3984" style="stroke:#000000;stroke-width:1.5;" width="619" x="10" y="154.6953"/><text fill="#000000" font-family="sans-serif" font-size="13" font-weight="bold" lengthAdjust="spacing" textLength="21" x="25" y="167.7622">alt</text><text fill="#000000" font-family="sans-serif" font-size="11" font-weight="bold" lengthAdjust="spacing" textLength="258" x="91" y="166.9058">[Metadata specifies inventory update]</text><polygon fill="#181818" points="312,188.9609,322,192.9609,312,196.9609,316,192.9609" style="stroke:#181818;stroke-width:1.0;"/><line style="stroke:#181818;stroke-width:1.0;" x1="99" x2="318" y1="192.9609" y2="192.9609"/><text fill="#000000" font-family="sans-serif" font-size="13" font-weight="bold" lengthAdjust="spacing" textLength="8" x="106" y="187.895">3</text><text fill="#000000" font-family="sans-serif" font-size="13" lengthAdjust="spacing" textLength="166" x="118" y="187.895">Send requested inventory</text><line style="stroke:#181818;stroke-width:1.0;" x1="324" x2="366" y1="222.0938" y2="222.0938"/><line style="stroke:#181818;stroke-width:1.0;" x1="366" x2="366" y1="222.0938" y2="235.0938"/><line style="stroke:#181818;stroke-width:1.0;" x1="325" x2="366" y1="235.0938" y2="235.0938"/><polygon fill="#181818" points="335,231.0938,325,235.0938,335,239.0938,331,235.0938" style="stroke:#181818;stroke-width:1.0;"/><text fill="#000000" font-family="sans-serif" font-size="13" font-weight="bold" lengthAdjust="spacing" textLength="9" x="331" y="217.0278">4</text><text fill="#000000" font-family="sans-serif" font-size="13" lengthAdjust="spacing" textLength="273" x="344" y="217.0278">Record inventory and regenerate mapping</text><path d="M10,257.0938 L76,257.0938 L76,264.2266 L66,274.2266 L10,274.2266 L10,257.0938 " fill="#EEEEEE" style="stroke:#000000;stroke-width:1.5;"/><rect fill="none" height="75.3984" style="stroke:#000000;stroke-width:1.5;" width="405" x="10" y="257.0938"/><text fill="#000000" font-family="sans-serif" font-size="13" font-weight="bold" lengthAdjust="spacing" textLength="21" x="25" y="270.1606">alt</text><text fill="#000000" font-family="sans-serif" font-size="11" font-weight="bold" lengthAdjust="spacing" textLength="319" x="91" y="269.3042">[Metadata specifies a new mapping is available]</text><polygon fill="#181818" points="312,291.3594,322,295.3594,312,299.3594,316,295.3594" style="stroke:#181818;stroke-width:1.0;"/><line style="stroke:#181818;stroke-width:1.0;" x1="99" x2="318" y1="295.3594" y2="295.3594"/><text fill="#000000" font-family="sans-serif" font-size="13" font-weight="bold" lengthAdjust="spacing" textLength="9" x="106" y="290.2935">5</text><text fill="#000000" font-family="sans-serif" font-size="13" lengthAdjust="spacing" textLength="121" x="119" y="290.2935">Query for mapping</text><polygon fill="#181818" points="110,320.4922,100,324.4922,110,328.4922,106,324.4922" style="stroke:#181818;stroke-width:1.0;"/><line style="stroke:#181818;stroke-width:1.0;" x1="104" x2="323" y1="324.4922" y2="324.4922"/><text fill="#000000" font-family="sans-serif" font-size="13" font-weight="bold" lengthAdjust="spacing" textLength="9" x="116" y="319.4263">6</text><text fill="#000000" font-family="sans-serif" font-size="13" lengthAdjust="spacing" textLength="147" x="129" y="319.4263">Respond with mapping</text><rect fill="#EEEEEE" height="3" style="stroke:#EEEEEE;stroke-width:1.0;" width="639" x="0" y="360.0586"/><line style="stroke:#000000;stroke-width:1.0;" x1="0" x2="639" y1="360.0586" y2="360.0586"/><line style="stroke:#000000;stroke-width:1.0;" x1="0" x2="639" y1="363.0586" y2="363.0586"/><rect fill="#EEEEEE" height="23.1328" style="stroke:#000000;stroke-width:2.0;" width="393" x="123" y="349.4922"/><text fill="#000000" font-family="sans-serif" font-size="13" font-weight="bold" lengthAdjust="spacing" textLength="379" x="129" y="365.5591">Freyja Communication with Mapping Info Provider</text><!--SRC=[bP9DJiD038NtFeLLrboWqh002Gc9IgKzWPiuYI7n3CvCgjwU4MrAH894P-cVp-_P4yYY51988wwUZK_lX4yvvckZqB2j84mhDXI2Q8rxja4ANW6bw3Lr1pO0vt0a-AvBAWL5yOf7YGsEdIzQUToQ7wHaG-S0O77k_SDis1hV4ji9As_ONN8THoef4iogCs29kyOTzy5hUPPrxGTg8zwzIjt4hUW7RYu9x0CNKWdtA3gmHfyLf91J39ZV_yNlEGyr_apSHov_Q6VCWlmvOiU5jqahqZUoPcNBWiQjG9uqDVJO9buoHAXylAvISc0WQUdGtcfjTfS_FIqXyVTDfYvk_rJEVG40]--></g></svg>