<?xml version="1.0" encoding="us-ascii" standalone="no"?><svg xmlns="http://www.w3.org/2000/svg" xmlns:xlink="http://www.w3.org/1999/xlink" contentStyleType="text/css" height="470px" preserveAspectRatio="none" style="width:1348px;height:470px;background:#FFFFFF;" version="1.1" viewBox="0 0 1348 470" width="1348px" zoomAndPan="magnify"><defs/><g><rect fill="#FFB6C1" height="59.2656" style="stroke:#000000;stroke-width:1.5;" width="417.5" x="493" y="125.5625"/><rect fill="#00FFFF" height="117.5313" style="stroke:#000000;stroke-width:1.5;" width="558.5" x="493" y="198.8281"/><line style="stroke:#181818;stroke-width:0.5;stroke-dasharray:5.0,5.0;" x1="85" x2="85" y1="36.2969" y2="434.7578"/><line style="stroke:#181818;stroke-width:0.5;stroke-dasharray:5.0,5.0;" x1="594" x2="594" y1="36.2969" y2="434.7578"/><line style="stroke:#181818;stroke-width:0.5;stroke-dasharray:5.0,5.0;" x1="982.5" x2="982.5" y1="36.2969" y2="434.7578"/><line style="stroke:#181818;stroke-width:0.5;stroke-dasharray:5.0,5.0;" x1="1217.5" x2="1217.5" y1="36.2969" y2="434.7578"/><rect fill="#E2E2F0" height="30.2969" rx="2.5" ry="2.5" style="stroke:#181818;stroke-width:0.5;" width="161" x="5" y="5"/><text fill="#000000" font-family="sans-serif" font-size="14" lengthAdjust="spacing" textLength="147" x="12" y="24.9951">Digital Twin Adapter</text><rect fill="#E2E2F0" height="30.2969" rx="2.5" ry="2.5" style="stroke:#181818;stroke-width:0.5;" width="161" x="5" y="433.7578"/><text fill="#000000" font-family="sans-serif" font-size="14" lengthAdjust="spacing" textLength="147" x="12" y="453.7529">Digital Twin Adapter</text><rect fill="#E2E2F0" height="30.2969" rx="2.5" ry="2.5" style="stroke:#181818;stroke-width:0.5;" width="183" x="503" y="5"/><text fill="#000000" font-family="sans-serif" font-size="14" lengthAdjust="spacing" textLength="169" x="510" y="24.9951">Provider Proxy Selector</text><rect fill="#E2E2F0" height="30.2969" rx="2.5" ry="2.5" style="stroke:#181818;stroke-width:0.5;" width="183" x="503" y="433.7578"/><text fill="#000000" font-family="sans-serif" font-size="14" lengthAdjust="spacing" textLength="169" x="510" y="453.7529">Provider Proxy Selector</text><rect fill="#E2E2F0" height="30.2969" rx="2.5" ry="2.5" style="stroke:#181818;stroke-width:0.5;" width="118" x="923.5" y="5"/><text fill="#000000" font-family="sans-serif" font-size="14" lengthAdjust="spacing" textLength="104" x="930.5" y="24.9951">Provider Proxy</text><rect fill="#E2E2F0" height="30.2969" rx="2.5" ry="2.5" style="stroke:#181818;stroke-width:0.5;" width="118" x="923.5" y="433.7578"/><text fill="#000000" font-family="sans-serif" font-size="14" lengthAdjust="spacing" textLength="104" x="930.5" y="453.7529">Provider Proxy</text><rect fill="#E2E2F0" height="30.2969" rx="2.5" ry="2.5" style="stroke:#181818;stroke-width:0.5;" width="238" x="1098.5" y="5"/><text fill="#000000" font-family="sans-serif" font-size="14" lengthAdjust="spacing" textLength="224" x="1105.5" y="24.9951">In-Vehicle Digital Twin Provider</text><rect fill="#E2E2F0" height="30.2969" rx="2.5" ry="2.5" style="stroke:#181818;stroke-width:0.5;" width="238" x="1098.5" y="433.7578"/><text fill="#000000" font-family="sans-serif" font-size="14" lengthAdjust="spacing" textLength="224" x="1105.5" y="453.7529">In-Vehicle Digital Twin Provider</text><rect fill="#EEEEEE" height="3" style="stroke:#EEEEEE;stroke-width:1.0;" width="1341.5" x="0" y="66.8633"/><line style="stroke:#000000;stroke-width:1.0;" x1="0" x2="1341.5" y1="66.8633" y2="66.8633"/><line style="stroke:#000000;stroke-width:1.0;" x1="0" x2="1341.5" y1="69.8633" y2="69.8633"/><rect fill="#EEEEEE" height="23.1328" style="stroke:#000000;stroke-width:2.0;" width="242" x="549.75" y="56.2969"/><text fill="#000000" font-family="sans-serif" font-size="13" font-weight="bold" lengthAdjust="spacing" textLength="223" x="555.75" y="72.3638">Selection of a Provider Proxy</text><polygon fill="#181818" points="582.5,106.5625,592.5,110.5625,582.5,114.5625,586.5,110.5625" style="stroke:#181818;stroke-width:1.0;"/><line style="stroke:#181818;stroke-width:1.0;" x1="85.5" x2="588.5" y1="110.5625" y2="110.5625"/><text fill="#000000" font-family="sans-serif" font-size="13" font-weight="bold" lengthAdjust="spacing" textLength="9" x="92.5" y="105.4966">1</text><text fill="#000000" font-family="sans-serif" font-size="13" lengthAdjust="spacing" textLength="472" x="105.5" y="105.4966">CreateOrUpdateProviderProxy(entity_id, provider_uri, protocol, operation)</text><path d="M493,125.5625 L559,125.5625 L559,132.6953 L549,142.6953 L493,142.6953 L493,125.5625 " fill="#EEEEEE" style="stroke:#000000;stroke-width:1.5;"/><rect fill="none" height="59.2656" style="stroke:#000000;stroke-width:1.5;" width="417.5" x="493" y="125.5625"/><text fill="#000000" font-family="sans-serif" font-size="13" font-weight="bold" lengthAdjust="spacing" textLength="21" x="508" y="138.6294">alt</text><text fill="#000000" font-family="sans-serif" font-size="11" font-weight="bold" lengthAdjust="spacing" textLength="199" x="574" y="137.7729">[Provider Proxy Already Exist]</text><line style="stroke:#181818;stroke-width:1.0;" x1="594.5" x2="636.5" y1="163.8281" y2="163.8281"/><line style="stroke:#181818;stroke-width:1.0;" x1="636.5" x2="636.5" y1="163.8281" y2="176.8281"/><line style="stroke:#181818;stroke-width:1.0;" x1="595.5" x2="636.5" y1="176.8281" y2="176.8281"/><polygon fill="#181818" points="605.5,172.8281,595.5,176.8281,605.5,180.8281,601.5,176.8281" style="stroke:#181818;stroke-width:1.0;"/><text fill="#000000" font-family="sans-serif" font-size="13" font-weight="bold" lengthAdjust="spacing" textLength="9" x="601.5" y="158.7622">2</text><text fill="#000000" font-family="sans-serif" font-size="13" lengthAdjust="spacing" textLength="284" x="614.5" y="158.7622">Add entity_id to provider proxy's local cache</text><path d="M493,198.8281 L559,198.8281 L559,205.9609 L549,215.9609 L493,215.9609 L493,198.8281 " fill="#EEEEEE" style="stroke:#000000;stroke-width:1.5;"/><rect fill="none" height="117.5313" style="stroke:#000000;stroke-width:1.5;" width="558.5" x="493" y="198.8281"/><text fill="#000000" font-family="sans-serif" font-size="13" font-weight="bold" lengthAdjust="spacing" textLength="21" x="508" y="211.895">alt</text><text fill="#000000" font-family="sans-serif" font-size="11" font-weight="bold" lengthAdjust="spacing" textLength="200" x="574" y="211.0386">[Provider Proxy Doesn't Exist]</text><polygon fill="#181818" points="970.5,233.0938,980.5,237.0938,970.5,241.0938,974.5,237.0938" style="stroke:#181818;stroke-width:1.0;"/><line style="stroke:#181818;stroke-width:1.0;" x1="594.5" x2="976.5" y1="237.0938" y2="237.0938"/><text fill="#000000" font-family="sans-serif" font-size="13" font-weight="bold" lengthAdjust="spacing" textLength="8" x="601.5" y="232.0278">3</text><text fill="#000000" font-family="sans-serif" font-size="13" lengthAdjust="spacing" textLength="352" x="613.5" y="232.0278">Creates a provider proxy with provider uri and protocol</text><polygon fill="#181818" points="970.5,262.2266,980.5,266.2266,970.5,270.2266,974.5,266.2266" style="stroke:#181818;stroke-width:1.0;"/><line style="stroke:#181818;stroke-width:1.0;" x1="594.5" x2="976.5" y1="266.2266" y2="266.2266"/><text fill="#000000" font-family="sans-serif" font-size="13" font-weight="bold" lengthAdjust="spacing" textLength="9" x="601.5" y="261.1606">4</text><text fill="#000000" font-family="sans-serif" font-size="13" lengthAdjust="spacing" textLength="51" x="614.5" y="261.1606">Start up</text><line style="stroke:#181818;stroke-width:1.0;" x1="594.5" x2="636.5" y1="295.3594" y2="295.3594"/><line style="stroke:#181818;stroke-width:1.0;" x1="636.5" x2="636.5" y1="295.3594" y2="308.3594"/><line style="stroke:#181818;stroke-width:1.0;" x1="595.5" x2="636.5" y1="308.3594" y2="308.3594"/><polygon fill="#181818" points="605.5,304.3594,595.5,308.3594,605.5,312.3594,601.5,308.3594" style="stroke:#181818;stroke-width:1.0;"/><text fill="#000000" font-family="sans-serif" font-size="13" font-weight="bold" lengthAdjust="spacing" textLength="9" x="601.5" y="290.2935">5</text><text fill="#000000" font-family="sans-serif" font-size="13" lengthAdjust="spacing" textLength="284" x="614.5" y="290.2935">Add entity_id to provider proxy's local cache</text><polygon fill="#181818" points="1205.5,340.4922,1215.5,344.4922,1205.5,348.4922,1209.5,344.4922" style="stroke:#181818;stroke-width:1.0;"/><line style="stroke:#181818;stroke-width:1.0;" x1="982.5" x2="1211.5" y1="344.4922" y2="344.4922"/><text fill="#000000" font-family="sans-serif" font-size="13" font-weight="bold" lengthAdjust="spacing" textLength="9" x="989.5" y="339.4263">6</text><text fill="#000000" font-family="sans-serif" font-size="13" lengthAdjust="spacing" textLength="198" x="1002.5" y="339.4263">Call get or subscribe for values</text><polygon fill="#181818" points="993.5,369.625,983.5,373.625,993.5,377.625,989.5,373.625" style="stroke:#181818;stroke-width:1.0;"/><line style="stroke:#181818;stroke-width:1.0;" x1="987.5" x2="1216.5" y1="373.625" y2="373.625"/><text fill="#000000" font-family="sans-serif" font-size="13" font-weight="bold" lengthAdjust="spacing" textLength="9" x="999.5" y="368.5591">7</text><text fill="#000000" font-family="sans-serif" font-size="13" lengthAdjust="spacing" textLength="89" x="1012.5" y="368.5591">Return values</text><rect fill="#EEEEEE" height="3" style="stroke:#EEEEEE;stroke-width:1.0;" width="1341.5" x="0" y="402.1914"/><line style="stroke:#000000;stroke-width:1.0;" x1="0" x2="1341.5" y1="402.1914" y2="402.1914"/><line style="stroke:#000000;stroke-width:1.0;" x1="0" x2="1341.5" y1="405.1914" y2="405.1914"/><rect fill="#EEEEEE" height="23.1328" style="stroke:#000000;stroke-width:2.0;" width="242" x="549.75" y="391.625"/><text fill="#000000" font-family="sans-serif" font-size="13" font-weight="bold" lengthAdjust="spacing" textLength="223" x="555.75" y="407.6919">Selection of a Provider Proxy</text><!--SRC=[lPF1JW8n48RlVOe97j04Ni1aIJRYmSH48kgLb7PW9zQsjbDWtzv2O9L543tOIpkTwVnV_hPU1YP5Nbg6pf3cnDB0qv8ib5fwnj0H_cl9ABW5QGoG5wiQncXGiJjTrKhUsVuBLgGCmfxWxb17oCJEfhSf1Y6AOYj2peARWOGMGb48yJrvVt0Kznfk0ah6X_3iTPvtTPkoIxHCN4z8zy1l4vCKQ1EnKyxqm7aCSirq9OGq31VtDAzuHFQrpLUQhAHhk5rHP05v7AKw2Lng3GqOi6lGrejLtOrWdCeMAAag56Zr5gnyJmUU3Hr6s-K_CJNUnNmN-mom9Au-zx9b8ArkNFkzq9Zpmu7a_zUsDWVq1sUyscoBD0RcoE02n3IDAj0KOPQZXJG9e_YvoKRgm8P7v1JihiiPF-83]--></g></svg>