<?xml version="1.0" encoding="UTF-8" standalone="no"?><svg xmlns="http://www.w3.org/2000/svg" xmlns:xlink="http://www.w3.org/1999/xlink" contentScriptType="application/ecmascript" contentStyleType="text/css" height="455px" preserveAspectRatio="none" style="width:469px;height:455px;background:#FEFEFE;" version="1.1" viewBox="0 0 469 455" width="469px" zoomAndPan="magnify"><defs><filter height="300%" id="f1notuzrbwgzh4" width="300%" x="-1" y="-1"><feGaussianBlur result="blurOut" stdDeviation="2.0"/><feColorMatrix in="blurOut" result="blurOut2" type="matrix" values="0 0 0 0 0 0 0 0 0 0 0 0 0 0 0 0 0 0 .4 0"/><feOffset dx="4.0" dy="4.0" in="blurOut2" result="blurOut3"/><feBlend in="SourceGraphic" in2="blurOut3" mode="normal"/></filter></defs><g><path d="M135.6238,33.5589 C139.2065,27.3059 142.968,27.9743 146.833,33.2853 C148.5388,26.1154 154.0897,26.1371 158.6002,30.3981 C162.0769,24.8974 166.8221,24.0033 170.8722,29.7738 C174.526,23.7169 179.5863,24.2708 182.3416,30.6053 C184.948,24.742 188.477,23.958 193.3189,28.1697 C196.1418,22.6022 201.7653,21.5305 205.2993,27.4264 C209.0847,22.0005 215.1377,21.1664 218.4801,27.9063 C222.071,22.7625 225.8458,23.168 229.6207,27.6944 C234.0855,22.947 239.3802,23.8921 242.2459,29.6214 C245.7696,25.0584 248.9333,25.5583 252.3468,29.7485 C256.7211,25.1409 261.4462,24.2455 264.6997,30.9703 C268.485,26.062 274.5101,26.8172 277.0486,32.4332 C280.9985,27.4489 284.5474,26.9062 288.4232,32.5127 C293.1897,25.5969 297.7912,26.7797 301.5939,33.4473 C307.2213,35.6206 309.0986,41.252 303.997,45.5547 C311.3568,47.8966 311.8281,53.3291 306.258,58.0168 C312.0996,63.1974 310.1867,70.1442 303.0545,72.444 C307.8399,77.1408 306.7059,81.8458 300.4507,84.0699 C296.4301,90.4764 291.954,90.7881 287.8057,84.1942 C285.9567,90.5906 280.1531,91.346 276.2626,86.2435 C272.9081,92.2726 267.3205,92.5391 264.3005,85.927 C260.6798,90.8922 256.3996,90.9808 252.9366,85.7512 C249.7004,89.8386 245.2561,90.636 242.4321,85.2922 C239.3706,91.6413 232.7091,92.7363 228.8385,86.1419 C225.6825,90.7206 220.283,90.4429 217.8394,85.3331 C214.7885,91.326 210.8467,92.6406 206.0793,87.0803 C202.4165,92.5994 197.0097,92.6562 194.1188,86.3027 C190.8116,91.5631 185.1209,91.0149 182.22,85.8394 C178.6673,90.7046 175.0354,92.1961 170.7549,86.6401 C166.7501,91.8363 161.558,92.9879 157.6869,86.4907 C153.7061,91.34 148.0796,91.065 145.7011,84.7678 C142.4044,89.3792 138.1332,88.9596 135.0082,84.5641 C127.5021,83.2987 126.4192,77.6255 130.8927,72.3302 C125.0557,69.2901 122.8577,64.0143 129.0729,59.292 C123.7311,53.7572 125.0231,49.6576 131.1248,45.8726 C126.8078,39.6601 128.6256,35.6373 135.6238,33.5589 " fill="#FEFEFE" style="stroke: #000000; stroke-width: 1.5;"/><!--MD5=[69496019e6f795aefe10c29030dd915f]
cluster azure_cloud_connector--><rect fill="#FEFEFE" filter="url(#f1notuzrbwgzh4)" height="103" style="stroke: #000000; stroke-width: 1.5;" width="261" x="76.5" y="222"/><path d="M326.5,223 L326.5,231.2969 L316.5,241.2969 L76.5,241.2969 " fill="none" style="stroke: #000000; stroke-width: 1.5;"/><text fill="#000000" font-family="sans-serif" font-size="14" font-weight="bold" lengthAdjust="spacingAndGlyphs" textLength="240" x="79.5" y="235.9951">Azure Digital Twins Connector</text><!--MD5=[bc16d331e868ca6fb9fffa8c51e1888f]
cluster freyja--><rect fill="#FEFEFE" filter="url(#f1notuzrbwgzh4)" height="87" style="stroke: #000000; stroke-width: 1.5;" width="255" x="203.5" y="357"/><path d="M261.5,358 L261.5,366.2969 L251.5,376.2969 L203.5,376.2969 " fill="none" style="stroke: #000000; stroke-width: 1.5;"/><text fill="#000000" font-family="sans-serif" font-size="14" font-weight="bold" lengthAdjust="spacingAndGlyphs" textLength="48" x="206.5" y="370.9951">Freyja</text><!--MD5=[bb0d7d991436ed6546e1677fd3f54fa2]
entity Azure Digital Twins--><rect fill="#FEFECE" filter="url(#f1notuzrbwgzh4)" height="36.2969" style="stroke: #A80036; stroke-width: 1.5;" width="150" x="141.5" y="40"/><rect fill="#FEFECE" height="5" style="stroke: #A80036; stroke-width: 1.5;" width="10" x="136.5" y="45"/><rect fill="#FEFECE" height="5" style="stroke: #A80036; stroke-width: 1.5;" width="10" x="136.5" y="66.2969"/><text fill="#000000" font-family="sans-serif" font-size="14" lengthAdjust="spacingAndGlyphs" textLength="130" x="151.5" y="62.9951">Azure Digital Twins</text><!--MD5=[e7b78a05a64dde469fc1442dad93ee06]
entity Azure Digital Twins Client--><rect fill="#FEFECE" filter="url(#f1notuzrbwgzh4)" height="36.2969" style="stroke: #A80036; stroke-width: 1.5;" width="193" x="120" y="265"/><rect fill="#FEFECE" height="5" style="stroke: #A80036; stroke-width: 1.5;" width="10" x="115" y="270"/><rect fill="#FEFECE" height="5" style="stroke: #A80036; stroke-width: 1.5;" width="10" x="115" y="291.2969"/><text fill="#000000" font-family="sans-serif" font-size="14" lengthAdjust="spacingAndGlyphs" textLength="173" x="130" y="287.9951">Azure Digital Twins Client</text><!--MD5=[5db1e66abd3f7f43b90b7d38fc9ccb5a]
entity Emitter--><rect fill="#FEFECE" filter="url(#f1notuzrbwgzh4)" height="36.2969" style="stroke: #A80036; stroke-width: 1.5;" width="69" x="373" y="392"/><rect fill="#FEFECE" height="5" style="stroke: #A80036; stroke-width: 1.5;" width="10" x="368" y="397"/><rect fill="#FEFECE" height="5" style="stroke: #A80036; stroke-width: 1.5;" width="10" x="368" y="418.2969"/><text fill="#000000" font-family="sans-serif" font-size="14" lengthAdjust="spacingAndGlyphs" textLength="49" x="383" y="414.9951">Emitter</text><!--MD5=[161a6b5a0248efac3897837f792e5921]
entity Cloud Adapter--><rect fill="#FEFECE" filter="url(#f1notuzrbwgzh4)" height="36.2969" style="stroke: #A80036; stroke-width: 1.5;" width="118" x="219.5" y="392"/><rect fill="#FEFECE" height="5" style="stroke: #A80036; stroke-width: 1.5;" width="10" x="214.5" y="397"/><rect fill="#FEFECE" height="5" style="stroke: #A80036; stroke-width: 1.5;" width="10" x="214.5" y="418.2969"/><text fill="#000000" font-family="sans-serif" font-size="14" lengthAdjust="spacingAndGlyphs" textLength="98" x="229.5" y="414.9951">Cloud Adapter</text><!--MD5=[6460cc1208e8f63e881cdfe238a2d33d]
entity cloud_connector.proto--><ellipse cx="84.5" cy="410" fill="#FEFECE" filter="url(#f1notuzrbwgzh4)" rx="8" ry="8" style="stroke: #A80036; stroke-width: 2.0;"/><text fill="#000000" font-family="sans-serif" font-size="14" lengthAdjust="spacingAndGlyphs" textLength="157" x="6" y="439.9951">cloud_connector.proto</text><!--MD5=[a544874d1e69bdace0e65583c0e49022]
reverse link Cloud Adapter to Emitter--><path d="M342.93,410 C352.91,410 362.89,410 372.88,410 " fill="none" id="Cloud Adapter&lt;-Emitter" style="stroke: #A80036; stroke-width: 1.0;"/><polygon fill="#A80036" points="337.71,410,346.71,414,342.71,410,346.71,406,337.71,410" style="stroke: #A80036; stroke-width: 1.0;"/><!--MD5=[e9a3b063f35034ca2765f445f1bcc03c]
reverse link Azure Digital Twins to Azure Digital Twins Client--><path d="M216.5,81.28 C216.5,125.79 216.5,224.87 216.5,264.81 " fill="none" id="Azure Digital Twins&lt;-Azure Digital Twins Client" style="stroke: #A80036; stroke-width: 1.0;"/><polygon fill="#A80036" points="216.5,76.13,212.5,85.13,216.5,81.13,220.5,85.13,216.5,76.13" style="stroke: #A80036; stroke-width: 1.0;"/><!--MD5=[ba016a8e0d661f2f084385c5812d58f4]
link azure_cloud_connector to cloud_connector.proto--><path d="M84.5,325.0997 C84.5,325.4815 84.5,325.8646 84.5,326.2488 C84.5,327.0172 84.5,327.7902 84.5,328.5673 C84.5,330.1214 84.5,331.6916 84.5,333.2738 C84.5,358.5875 84.5,386.935 84.5,400.66 " fill="none" id="azure_cloud_connector-cloud_connector.proto" style="stroke: #A80036; stroke-width: 1.0;"/><!--MD5=[e75b70ac75ef1a413ba03273db336f17]
reverse link cloud_connector.proto to Cloud Adapter--><path d="M98.99,410 C139.09,410 179.18,410 219.27,410 " fill="none" id="cloud_connector.proto&lt;-Cloud Adapter" style="stroke: #A80036; stroke-width: 1.0;"/><polygon fill="#A80036" points="93.59,410,102.59,414,98.59,410,102.59,406,93.59,410" style="stroke: #A80036; stroke-width: 1.0;"/><!--MD5=[e2726d9d7c36eac6a68128365bc67cfa]
link Emitter to cloud_connector.proto--><!--MD5=[cd42ee454999f7d88f9aac7a1b3a2cb6]
reverse link cloud_connector.proto to Emitter--><!--MD5=[12431b82e355931ccf18db02d613db12]
@startuml
skinparamlocked backgroundColor fefefe

cloud {
    [Azure Digital Twins]
}

frame "Azure Digital Twins Connector" as azure_cloud_connector {
    [Azure Digital Twins Client]
}

frame "Freyja" as freyja {
    [Emitter] -left-> [Cloud Adapter]
}

[Azure Digital Twins Client] -up- - -> [Azure Digital Twins]

azure_cloud_connector -down- cloud_connector.proto

[Cloud Adapter] -left- -> cloud_connector.proto

[Emitter] -[hidden]right- -> cloud_connector.proto
[Emitter] -[hidden]up- - - - - - - -> cloud_connector.proto

@enduml

PlantUML version 1.2020.02(Sun Mar 01 10:22:07 UTC 2020)
(GPL source distribution)
Java Runtime: OpenJDK Runtime Environment
JVM: OpenJDK 64-Bit Server VM
Java Version: 11.0.22+7
Operating System: Linux
Default Encoding: UTF-8
Language: en
Country: null
--></g></svg>