<?xml version="1.0" encoding="UTF-8" standalone="no"?><svg xmlns="http://www.w3.org/2000/svg" xmlns:xlink="http://www.w3.org/1999/xlink" contentScriptType="application/ecmascript" contentStyleType="text/css" height="429px" preserveAspectRatio="none" style="width:545px;height:429px;background:#FEFEFE;" version="1.1" viewBox="0 0 545 429" width="545px" zoomAndPan="magnify"><defs><filter height="300%" id="f17tfgd43p8z5l" width="300%" x="-1" y="-1"><feGaussianBlur result="blurOut" stdDeviation="2.0"/><feColorMatrix in="blurOut" result="blurOut2" type="matrix" values="0 0 0 0 0 0 0 0 0 0 0 0 0 0 0 0 0 0 .4 0"/><feOffset dx="4.0" dy="4.0" in="blurOut2" result="blurOut3"/><feBlend in="SourceGraphic" in2="blurOut3" mode="normal"/></filter></defs><g><path d="M321.6163,33.9117 C325.8542,25.4806 334.2335,22.7589 339.9816,32.3748 C344.9974,24.6179 353.2162,22.2429 358.8207,31.7317 C364.3482,21.4396 372.4407,22.5844 378.9898,30.6066 C383.9137,21.6316 391.4599,22.4034 396.6786,30.2974 C400.3972,19.5278 409.7111,18.8504 415.6102,28.2509 C421.8032,20.239 431.4297,19.4429 435.3701,30.5759 C440.7676,21.4966 448.8759,21.8731 454.4918,30.3379 C459.0517,21.5711 467.984,21.9117 472.667,30.2067 C480.0245,21.1455 487.7853,22.6817 491.9774,33.311 C501.0464,23.4158 512.527,26.9288 516.5,39 C517.4332,39.2626 517.4259,39.966 516.8603,40.5721 C525.2275,44.9155 524.9703,51.1346 518.9262,57.2619 C526.2668,61.25 529.2226,67.4428 521.0395,73.4566 C529.6752,79.7735 529.0624,87.9075 518.8951,92.0566 C527.7855,97.1934 526.8905,102.7251 520.4579,109.2543 C527.6453,113.6738 527.4474,119.8291 521.2834,124.9509 C529.6114,129.7748 531.3255,136.3052 523.0069,142.7418 C532.2739,147.266 533.2534,153.6871 524.4508,159.7457 C531.9529,165.4359 530.6017,171.8347 522.754,175.9139 C530.6186,182.5071 529.7509,187.5758 520.9349,192.3194 C529.2296,197.4185 529.7848,202.9948 521.8289,208.9666 C529.0892,216.0465 530.5792,222.5737 519.96,227.8876 C528.2503,232.904 525.8916,239.4508 518.9869,243.5214 C528.6579,247.3659 528.9146,255.838 520.1908,260.953 C526.0698,272.0163 522.246,280.9681 509.5,283 C510.9634,283.6419 510.7296,284.4961 509.8419,285.4642 C505.1399,293.0869 500.0549,295.4057 493.469,287.4434 C488.214,296.5408 479.8559,297.9936 473.8237,288.2539 C468.8448,299.9811 459.439,299.6771 453.1069,289.5358 C449.1481,297.8242 440.1091,301.3325 434.1029,291.708 C427.946,299.6666 422.518,298.6159 416.6396,291.3877 C409.6785,299.6439 401.6959,301.4972 395.7944,290.2548 C391.0328,299.1679 383.1931,297.9321 377.8486,290.9114 C370.9859,298.145 363.8041,296.1171 359.5467,287.8378 C352.2977,295.3489 345.4566,295.3082 340.5534,285.2953 C328.2842,294.5268 316.55,291.5743 312.5,276 C315.215,275.1843 316.3387,276.8314 315.7318,279.2844 C304.8402,274.5867 305.0087,266.9329 312.9356,259.5666 C304.6316,257.1142 302.7689,251.0334 309.3613,244.9406 C302.2765,240.0811 302.2173,232.2753 309.9488,227.9275 C300.5033,224.6428 299.3982,216.4422 306.7153,210.1147 C298.169,206.5517 297.9179,198.1004 304.7171,192.7695 C295.7478,188.7142 294.6451,182.002 302.7955,175.9866 C294.3377,170.7486 294.5737,164.2277 301.6039,157.9657 C295.1151,151.7279 296.5606,143.6994 305.6818,141.2757 C297.5295,136.4363 296.4298,130.6761 304.1424,124.3904 C297.1556,117.9598 297.6298,111.5889 306.477,107.3243 C300.1184,101.8725 300.9075,97.1444 307.5663,92.6594 C301.2854,84.6566 302.4772,78.9268 312.2869,75.2995 C303.2144,70.894 304.421,63.8567 311.4155,58.6121 C301.2435,48.0935 305.4826,35.1701 319.5,32 C321.1807,31.4467 321.7468,32.46 321.6163,33.9117 " fill="#FEFEFE" style="stroke: #000000; stroke-width: 1.5;"/><!--MD5=[fb5faafc93b2328437f2adb1dd852eff]
cluster azure_mqtt_cloud_connector--><rect fill="#FEFEFE" filter="url(#f17tfgd43p8z5l)" height="103" style="stroke: #000000; stroke-width: 1.5;" width="201" x="71.5" y="196"/><path d="M266.5,197 L266.5,205.2969 L256.5,215.2969 L71.5,215.2969 " fill="none" style="stroke: #000000; stroke-width: 1.5;"/><text fill="#000000" font-family="sans-serif" font-size="14" font-weight="bold" lengthAdjust="spacingAndGlyphs" textLength="185" x="74.5" y="209.9951">Azure MQTT Connector</text><!--MD5=[bc16d331e868ca6fb9fffa8c51e1888f]
cluster freyja--><rect fill="#FEFEFE" filter="url(#f17tfgd43p8z5l)" height="87" style="stroke: #000000; stroke-width: 1.5;" width="255" x="203.5" y="331"/><path d="M261.5,332 L261.5,340.2969 L251.5,350.2969 L203.5,350.2969 " fill="none" style="stroke: #000000; stroke-width: 1.5;"/><text fill="#000000" font-family="sans-serif" font-size="14" font-weight="bold" lengthAdjust="spacingAndGlyphs" textLength="48" x="206.5" y="344.9951">Freyja</text><!--MD5=[221163234062f07376149dc5ee8d8f68]
entity Azure Function--><rect fill="#FEFECE" filter="url(#f17tfgd43p8z5l)" height="36.2969" style="stroke: #A80036; stroke-width: 1.5;" width="124" x="352.5" y="136"/><rect fill="#FEFECE" height="5" style="stroke: #A80036; stroke-width: 1.5;" width="10" x="347.5" y="141"/><rect fill="#FEFECE" height="5" style="stroke: #A80036; stroke-width: 1.5;" width="10" x="347.5" y="162.2969"/><text fill="#000000" font-family="sans-serif" font-size="14" lengthAdjust="spacingAndGlyphs" textLength="104" x="362.5" y="158.9951">Azure Function</text><!--MD5=[e1feb334f189c9a074ed5e22e6ac1b67]
entity Azure Digital Twin--><rect fill="#FEFECE" filter="url(#f17tfgd43p8z5l)" height="36.2969" style="stroke: #A80036; stroke-width: 1.5;" width="142" x="343.5" y="40"/><rect fill="#FEFECE" height="5" style="stroke: #A80036; stroke-width: 1.5;" width="10" x="338.5" y="45"/><rect fill="#FEFECE" height="5" style="stroke: #A80036; stroke-width: 1.5;" width="10" x="338.5" y="66.2969"/><text fill="#000000" font-family="sans-serif" font-size="14" lengthAdjust="spacingAndGlyphs" textLength="122" x="353.5" y="62.9951">Azure Digital Twin</text><!--MD5=[ad937b2f5620d69c3d9e8c2121e5b5d6]
entity Event Grid with MQTT v5--><rect fill="#FEFECE" filter="url(#f17tfgd43p8z5l)" height="36.2969" style="stroke: #A80036; stroke-width: 1.5;" width="188" x="320.5" y="239"/><rect fill="#FEFECE" height="5" style="stroke: #A80036; stroke-width: 1.5;" width="10" x="315.5" y="244"/><rect fill="#FEFECE" height="5" style="stroke: #A80036; stroke-width: 1.5;" width="10" x="315.5" y="265.2969"/><text fill="#000000" font-family="sans-serif" font-size="14" lengthAdjust="spacingAndGlyphs" textLength="168" x="330.5" y="261.9951">Event Grid with MQTT v5</text><!--MD5=[4b9665cdef86308eb0c2082fd032df38]
entity MQTT v5 Client--><rect fill="#FEFECE" filter="url(#f17tfgd43p8z5l)" height="36.2969" style="stroke: #A80036; stroke-width: 1.5;" width="124" x="124.5" y="239"/><rect fill="#FEFECE" height="5" style="stroke: #A80036; stroke-width: 1.5;" width="10" x="119.5" y="244"/><rect fill="#FEFECE" height="5" style="stroke: #A80036; stroke-width: 1.5;" width="10" x="119.5" y="265.2969"/><text fill="#000000" font-family="sans-serif" font-size="14" lengthAdjust="spacingAndGlyphs" textLength="104" x="134.5" y="261.9951">MQTT v5 Client</text><!--MD5=[5db1e66abd3f7f43b90b7d38fc9ccb5a]
entity Emitter--><rect fill="#FEFECE" filter="url(#f17tfgd43p8z5l)" height="36.2969" style="stroke: #A80036; stroke-width: 1.5;" width="69" x="373" y="366"/><rect fill="#FEFECE" height="5" style="stroke: #A80036; stroke-width: 1.5;" width="10" x="368" y="371"/><rect fill="#FEFECE" height="5" style="stroke: #A80036; stroke-width: 1.5;" width="10" x="368" y="392.2969"/><text fill="#000000" font-family="sans-serif" font-size="14" lengthAdjust="spacingAndGlyphs" textLength="49" x="383" y="388.9951">Emitter</text><!--MD5=[161a6b5a0248efac3897837f792e5921]
entity Cloud Adapter--><rect fill="#FEFECE" filter="url(#f17tfgd43p8z5l)" height="36.2969" style="stroke: #A80036; stroke-width: 1.5;" width="118" x="219.5" y="366"/><rect fill="#FEFECE" height="5" style="stroke: #A80036; stroke-width: 1.5;" width="10" x="214.5" y="371"/><rect fill="#FEFECE" height="5" style="stroke: #A80036; stroke-width: 1.5;" width="10" x="214.5" y="392.2969"/><text fill="#000000" font-family="sans-serif" font-size="14" lengthAdjust="spacingAndGlyphs" textLength="98" x="229.5" y="388.9951">Cloud Adapter</text><!--MD5=[6460cc1208e8f63e881cdfe238a2d33d]
entity cloud_connector.proto--><ellipse cx="84.5" cy="384" fill="#FEFECE" filter="url(#f17tfgd43p8z5l)" rx="8" ry="8" style="stroke: #A80036; stroke-width: 2.0;"/><text fill="#000000" font-family="sans-serif" font-size="14" lengthAdjust="spacingAndGlyphs" textLength="157" x="6" y="413.9951">cloud_connector.proto</text><!--MD5=[365e44f906c70a637e170cdab45537cf]
reverse link Azure Digital Twin to Azure Function--><path d="M414.5,81.66 C414.5,98.34 414.5,120.66 414.5,135.87 " fill="none" id="Azure Digital Twin&lt;-Azure Function" style="stroke: #A80036; stroke-width: 1.0;"/><polygon fill="#A80036" points="414.5,76.24,410.5,85.24,414.5,81.24,418.5,85.24,414.5,76.24" style="stroke: #A80036; stroke-width: 1.0;"/><!--MD5=[33023a94e6a38b3184f359d33616ab70]
reverse link Azure Function to Event Grid with MQTT v5--><path d="M414.5,177.15 C414.5,195.69 414.5,221.78 414.5,238.78 " fill="none" id="Azure Function&lt;-Event Grid with MQTT v5" style="stroke: #A80036; stroke-width: 1.0;"/><polygon fill="#A80036" points="414.5,172.13,410.5,181.13,414.5,177.13,418.5,181.13,414.5,172.13" style="stroke: #A80036; stroke-width: 1.0;"/><!--MD5=[a544874d1e69bdace0e65583c0e49022]
reverse link Cloud Adapter to Emitter--><path d="M342.93,384 C352.91,384 362.89,384 372.88,384 " fill="none" id="Cloud Adapter&lt;-Emitter" style="stroke: #A80036; stroke-width: 1.0;"/><polygon fill="#A80036" points="337.71,384,346.71,388,342.71,384,346.71,380,337.71,384" style="stroke: #A80036; stroke-width: 1.0;"/><!--MD5=[7f5131b251837eef00aec73d1fd0ab7c]
reverse link Event Grid with MQTT v5 to MQTT v5 Client--><path d="M315.32,257 C293.16,257 271,257 248.84,257 " fill="none" id="Event Grid with MQTT v5&lt;-MQTT v5 Client" style="stroke: #A80036; stroke-width: 1.0;"/><polygon fill="#A80036" points="320.35,257,311.35,253,315.35,257,311.35,261,320.35,257" style="stroke: #A80036; stroke-width: 1.0;"/><!--MD5=[b96ec9873bac159c05907c7ddfbda018]
link azure_mqtt_cloud_connector to cloud_connector.proto--><path d="M84.5,299.0997 C84.5,299.4815 84.5,299.8646 84.5,300.2488 C84.5,301.0172 84.5,301.7902 84.5,302.5673 C84.5,304.1214 84.5,305.6916 84.5,307.2738 C84.5,332.5875 84.5,360.935 84.5,374.66 " fill="none" id="azure_mqtt_cloud_connector-cloud_connector.proto" style="stroke: #A80036; stroke-width: 1.0;"/><!--MD5=[e75b70ac75ef1a413ba03273db336f17]
reverse link cloud_connector.proto to Cloud Adapter--><path d="M98.99,384 C139.09,384 179.18,384 219.27,384 " fill="none" id="cloud_connector.proto&lt;-Cloud Adapter" style="stroke: #A80036; stroke-width: 1.0;"/><polygon fill="#A80036" points="93.59,384,102.59,388,98.59,384,102.59,380,93.59,384" style="stroke: #A80036; stroke-width: 1.0;"/><!--MD5=[e2726d9d7c36eac6a68128365bc67cfa]
link Emitter to cloud_connector.proto--><!--MD5=[cd42ee454999f7d88f9aac7a1b3a2cb6]
reverse link cloud_connector.proto to Emitter--><!--MD5=[d1385a17d15447a703ec4ab739faa440]
@startuml
skinparamlocked backgroundColor fefefe

cloud {
    [Azure Function] -up-> [Azure Digital Twin]
    [Event Grid with MQTT v5] -up-> [Azure Function]
}

frame "Azure MQTT Connector" as azure_mqtt_cloud_connector {
    [MQTT v5 Client]
}

frame "Freyja" as freyja {
    [Emitter] -left-> [Cloud Adapter]
}

[MQTT v5 Client] -left-> [Event Grid with MQTT v5]

azure_mqtt_cloud_connector -down- cloud_connector.proto

[Cloud Adapter] -left- -> cloud_connector.proto

[Emitter] -[hidden]right- -> cloud_connector.proto
[Emitter] -[hidden]up- - - - - - - -> cloud_connector.proto

@enduml

PlantUML version 1.2020.02(Sun Mar 01 10:22:07 UTC 2020)
(GPL source distribution)
Java Runtime: OpenJDK Runtime Environment
JVM: OpenJDK 64-Bit Server VM
Java Version: 11.0.21+9
Operating System: Linux
Default Encoding: UTF-8
Language: en
Country: null
--></g></svg>