<?xml version="1.0" encoding="UTF-8" standalone="no"?><svg xmlns="http://www.w3.org/2000/svg" xmlns:xlink="http://www.w3.org/1999/xlink" contentScriptType="application/ecmascript" contentStyleType="text/css" height="762px" preserveAspectRatio="none" style="width:841px;height:762px;background:#FEFEFE;" version="1.1" viewBox="0 0 841 762" width="841px" zoomAndPan="magnify"><defs><filter height="300%" id="fdmbkjwnh4zvl" width="300%" x="-1" y="-1"><feGaussianBlur result="blurOut" stdDeviation="2.0"/><feColorMatrix in="blurOut" result="blurOut2" type="matrix" values="0 0 0 0 0 0 0 0 0 0 0 0 0 0 0 0 0 0 .4 0"/><feOffset dx="4.0" dy="4.0" in="blurOut2" result="blurOut3"/><feBlend in="SourceGraphic" in2="blurOut3" mode="normal"/></filter></defs><g><path d="M31.4217,33.7819 C34.1182,28.3452 39.3533,27.4805 42.8634,32.9265 C45.1913,26.2106 51.3878,25.0411 55.8263,30.7189 C58.3243,24.7005 64.0236,23.6223 67.6583,29.5975 C71.3374,23.996 77.8607,23.6512 81.2198,29.9619 C83.7938,22.9716 90.0571,23.524 94.1111,28.3468 C96.3831,23.2329 101.4883,22.1502 105.0451,26.9266 C110.2536,20.5285 115.7551,21.6774 119.1878,28.7861 C122.8662,23.313 127.7424,24.1968 130.1342,30.0315 C133.5742,22.876 140.003,23.4092 144.0581,29.379 C148.39,24.1016 153.2433,25.8406 155.4598,31.5703 C159.9652,24.084 165.7889,25.4675 169.6531,32.2099 C174.0342,27.5191 177.3497,28.072 180.5701,33.4663 C187.4232,36.0918 188.4264,40.2039 183.8451,45.8527 C190.7397,48.6508 190.7341,54.0014 185.0874,58.0743 C192.0135,63.2271 190.8941,68.481 183.6281,72.1638 C188.5557,76.8698 188.0552,83.2702 181.2804,85.9889 C177.5701,92.5137 173.8801,91.957 169.671,86.4711 C164.8419,93.2685 159.5672,92.8559 155.3296,85.8562 C152.312,91.568 148.26,92.1387 144.5903,86.4717 C142.0202,92.033 135.9598,94.0566 132.1099,87.8264 C127.9304,93.3183 123.4062,92.6878 119.6439,87.3464 C116.7979,94.5451 111.0726,94.7465 106.6351,88.938 C102.2619,94.4218 98.2085,94.4698 94.4352,88.3094 C89.7529,95.5558 84.1751,94.9064 80.2106,87.6074 C76.9004,92.6852 71.6097,92.7867 68.4952,87.3887 C64.4476,92.5349 59.8025,91.789 57.0998,85.9887 C53.321,92.2044 46.7887,91.7733 43.0363,85.9579 C38.3459,90.6741 33.1348,90.9337 30.0125,84.1777 C23.3586,81.3956 22.3973,77.788 27.7066,72.6193 C20.5527,69.9043 19.2125,65.5189 23.3326,59.1443 C17.3542,53.1544 19.6775,47.776 27.2901,45.824 C21.8839,40.0623 24.3988,35.2792 31.4217,33.7819 " fill="#FEFEFE" style="stroke: #000000; stroke-width: 1.5;"/><path d="M386.0057,32.8192 C389.6048,26.7906 394.7806,27.2723 398.2173,32.9881 C401.4544,26.684 406.3733,25.9702 410.2407,32.3925 C412.884,27.4233 417.826,27.0023 421.4238,31.2322 C424.3731,25.3418 428.6089,25.5892 432.2893,30.4965 C434.7758,24.5876 440.0572,25.0707 443.4874,29.4715 C445.9601,23.5502 450.7536,21.543 455.6645,26.8204 C458.7638,21.5022 462.0915,21.496 465.4742,26.5525 C469.3958,20.7452 474.8034,22.6216 476.9761,28.3033 C481.6006,23.2216 485.4227,23.1017 488.9263,29.4729 C492.8836,24.0676 497.3455,24.3314 500.5136,30.2785 C504.4609,25.8204 508.1253,25.5002 510.7997,31.5273 C515.3289,26.1708 519.4019,25.7901 523.2552,32.2404 C526.2506,27.241 531.0685,26.957 534.5365,31.6927 C538.5927,27.5418 542.6632,27.803 544.8698,33.6117 C552.9554,36.0434 553.4904,40.5498 548.2432,46.4775 C556.1385,49.5055 556.6506,54.7395 550.2603,59.9124 C555.0975,65.2909 552.1819,69.6061 546.3646,71.3583 C552.36,75.7991 551.2712,82.1436 544.0347,84.1799 C542.2062,88.6466 538.2611,90.3654 534.671,86.0604 C531.3392,91.6264 527.5453,92.7688 523.2628,87.0188 C519.5306,92.5417 514.1244,91.94 510.9788,86.3692 C508.0859,92.4719 503.8956,92.062 499.7915,87.6591 C496.1226,91.9391 492.677,92.3979 489.4019,87.2261 C487.2072,93.6403 481.7402,94.6023 477.4688,89.3503 C474.3794,94.7854 470.3992,95.1992 466.9452,89.7012 C461.8066,94.6386 457.6069,94.0551 453.9694,87.9391 C451.4134,92.2507 446.5987,92.8689 443.6884,88.3516 C439.7913,93.7807 435.2424,94.2208 431.7489,87.94 C428.6752,92.9047 424.4129,92.0941 421.5097,87.7523 C417.4565,92.6854 411.0496,92.8671 408.5719,86.0218 C405.9383,91.8982 401.0719,91.636 397.7359,86.7275 C394.6829,91.2053 390.5312,90.5067 388.1206,86.0373 C380.7313,84.0795 376.5958,78.7953 382.862,71.7955 C376.6334,68.7621 375.8073,64.5637 380.036,59.1865 C375.1342,54.4727 374.6626,49.2992 381.9663,46.4327 C377.566,39.988 377.9765,35.5758 386.0057,32.8192 " fill="#FEFEFE" style="stroke: #000000; stroke-width: 1.5;"/><!--MD5=[f0862bf7367bcc9d674716c64b321cab]
cluster Vehicle--><polygon fill="#FEFEFE" filter="url(#fdmbkjwnh4zvl)" points="22,125,86,125,93,147.2969,819,147.2969,819,750,22,750,22,125" style="stroke: #000000; stroke-width: 1.5;"/><line style="stroke: #000000; stroke-width: 1.5;" x1="22" x2="93" y1="147.2969" y2="147.2969"/><text fill="#000000" font-family="sans-serif" font-size="14" font-weight="bold" lengthAdjust="spacingAndGlyphs" textLength="58" x="26" y="139.9951">Vehicle</text><!--MD5=[88e83b057f67aa8eb9775378cca3188b]
cluster Freyja--><rect fill="#FEFEFE" filter="url(#fdmbkjwnh4zvl)" height="259" style="stroke: #000000; stroke-width: 1.5;" width="749" x="46" y="259"/><path d="M104,260 L104,268.2969 L94,278.2969 L46,278.2969 " fill="none" style="stroke: #000000; stroke-width: 1.5;"/><text fill="#000000" font-family="sans-serif" font-size="14" font-weight="bold" lengthAdjust="spacingAndGlyphs" textLength="48" x="49" y="272.9951">Freyja</text><!--MD5=[7313e90ef5484b367eb9798f49b94e5a]
cluster Data Adapters--><polygon fill="#FEFEFE" filter="url(#fdmbkjwnh4zvl)" points="583,412,593,402,771,402,771,484,761,494,583,494,583,412" style="stroke: #000000; stroke-width: 1.5;"/><line style="stroke: #000000; stroke-width: 1.5;" x1="761" x2="770" y1="412" y2="403"/><line style="stroke: #000000; stroke-width: 1.5;" x1="583" x2="761" y1="412" y2="412"/><line style="stroke: #000000; stroke-width: 1.5;" x1="761" x2="761" y1="412" y2="494"/><text fill="#000000" font-family="sans-serif" font-size="14" font-weight="bold" lengthAdjust="spacingAndGlyphs" textLength="112" x="617" y="427.9951">Data Adapters</text><!--MD5=[6ac55479130928f71e63c1a8b20aeaf4]
cluster Ibeji--><rect fill="#FEFEFE" filter="url(#fdmbkjwnh4zvl)" height="159" style="stroke: #000000; stroke-width: 1.5;" width="526" x="181" y="567"/><path d="M223,568 L223,576.2969 L213,586.2969 L181,586.2969 " fill="none" style="stroke: #000000; stroke-width: 1.5;"/><text fill="#000000" font-family="sans-serif" font-size="14" font-weight="bold" lengthAdjust="spacingAndGlyphs" textLength="32" x="184" y="580.9951">Ibeji</text><!--MD5=[eb55123c22a53197bac9b02a3207d9a0]
cluster Digital Twin Providers--><polygon fill="#FEFEFE" filter="url(#fdmbkjwnh4zvl)" points="435,620,445,610,683,610,683,692,673,702,435,702,435,620" style="stroke: #000000; stroke-width: 1.5;"/><line style="stroke: #000000; stroke-width: 1.5;" x1="673" x2="682" y1="620" y2="611"/><line style="stroke: #000000; stroke-width: 1.5;" x1="435" x2="673" y1="620" y2="620"/><line style="stroke: #000000; stroke-width: 1.5;" x1="673" x2="673" y1="620" y2="702"/><text fill="#000000" font-family="sans-serif" font-size="14" font-weight="bold" lengthAdjust="spacingAndGlyphs" textLength="172" x="469" y="635.9951">Digital Twin Providers</text><!--MD5=[6fa4b3d6e24ea88daa248184ddaa5b44]
entity cloudMappingSvc--><rect fill="#FEFECE" filter="url(#fdmbkjwnh4zvl)" height="36.2969" style="stroke: #A80036; stroke-width: 1.5;" width="133" x="38.5" y="40"/><rect fill="#FEFECE" height="5" style="stroke: #A80036; stroke-width: 1.5;" width="10" x="33.5" y="45"/><rect fill="#FEFECE" height="5" style="stroke: #A80036; stroke-width: 1.5;" width="10" x="33.5" y="66.2969"/><text fill="#000000" font-family="sans-serif" font-size="14" lengthAdjust="spacingAndGlyphs" textLength="113" x="48.5" y="62.9951">Mapping Service</text><!--MD5=[1604d5dcbb415f576ef8edfd9c31dfa0]
entity Cloud Digital Twin--><rect fill="#FEFECE" filter="url(#fdmbkjwnh4zvl)" height="36.2969" style="stroke: #A80036; stroke-width: 1.5;" width="142" x="394" y="40"/><rect fill="#FEFECE" height="5" style="stroke: #A80036; stroke-width: 1.5;" width="10" x="389" y="45"/><rect fill="#FEFECE" height="5" style="stroke: #A80036; stroke-width: 1.5;" width="10" x="389" y="66.2969"/><text fill="#000000" font-family="sans-serif" font-size="14" lengthAdjust="spacingAndGlyphs" textLength="122" x="404" y="62.9951">Cloud Digital Twin</text><!--MD5=[c44cbeb5ceaaf8c4ba17cfa808523486]
entity Chariott--><rect fill="#FEFECE" filter="url(#fdmbkjwnh4zvl)" height="36.2969" style="stroke: #A80036; stroke-width: 1.5;" width="74" x="84" y="650"/><rect fill="#FEFECE" height="5" style="stroke: #A80036; stroke-width: 1.5;" width="10" x="79" y="655"/><rect fill="#FEFECE" height="5" style="stroke: #A80036; stroke-width: 1.5;" width="10" x="79" y="676.2969"/><text fill="#000000" font-family="sans-serif" font-size="14" lengthAdjust="spacingAndGlyphs" textLength="54" x="94" y="672.9951">Chariott</text><!--MD5=[041e0fd6ba3b2fd9f21b32dca4378f49]
entity Cloud Connector--><rect fill="#FEFECE" filter="url(#fdmbkjwnh4zvl)" height="36.2969" style="stroke: #A80036; stroke-width: 1.5;" width="137" x="396.5" y="160"/><rect fill="#FEFECE" height="5" style="stroke: #A80036; stroke-width: 1.5;" width="10" x="391.5" y="165"/><rect fill="#FEFECE" height="5" style="stroke: #A80036; stroke-width: 1.5;" width="10" x="391.5" y="186.2969"/><text fill="#000000" font-family="sans-serif" font-size="14" lengthAdjust="spacingAndGlyphs" textLength="117" x="406.5" y="182.9951">Cloud Connector</text><!--MD5=[e7ad75c8b45b647c27afd21ae8a7175c]
entity ivMappingSvc--><rect fill="#FEFECE" filter="url(#fdmbkjwnh4zvl)" height="36.2969" style="stroke: #A80036; stroke-width: 1.5;" width="133" x="38.5" y="160"/><rect fill="#FEFECE" height="5" style="stroke: #A80036; stroke-width: 1.5;" width="10" x="33.5" y="165"/><rect fill="#FEFECE" height="5" style="stroke: #A80036; stroke-width: 1.5;" width="10" x="33.5" y="186.2969"/><text fill="#000000" font-family="sans-serif" font-size="14" lengthAdjust="spacingAndGlyphs" textLength="113" x="48.5" y="182.9951">Mapping Service</text><!--MD5=[a3d41d946e2b2630dfd9f74f50bb1723]
entity Cartographer--><rect fill="#FEFECE" filter="url(#fdmbkjwnh4zvl)" height="36.2969" style="stroke: #A80036; stroke-width: 1.5;" width="111" x="61.5" y="442"/><rect fill="#FEFECE" height="5" style="stroke: #A80036; stroke-width: 1.5;" width="10" x="56.5" y="447"/><rect fill="#FEFECE" height="5" style="stroke: #A80036; stroke-width: 1.5;" width="10" x="56.5" y="468.2969"/><text fill="#000000" font-family="sans-serif" font-size="14" lengthAdjust="spacingAndGlyphs" textLength="91" x="71.5" y="464.9951">Cartographer</text><!--MD5=[5db1e66abd3f7f43b90b7d38fc9ccb5a]
entity Emitter--><rect fill="#FEFECE" filter="url(#fdmbkjwnh4zvl)" height="36.2969" style="stroke: #A80036; stroke-width: 1.5;" width="69" x="430.5" y="298.5"/><rect fill="#FEFECE" height="5" style="stroke: #A80036; stroke-width: 1.5;" width="10" x="425.5" y="303.5"/><rect fill="#FEFECE" height="5" style="stroke: #A80036; stroke-width: 1.5;" width="10" x="425.5" y="324.7969"/><text fill="#000000" font-family="sans-serif" font-size="14" lengthAdjust="spacingAndGlyphs" textLength="49" x="440.5" y="321.4951">Emitter</text><!--MD5=[78f4bb5e17294dc7644bb44ef630d32e]
entity Signal Store--><path d="M207,304 C207,294 258,294 258,294 C258,294 309,294 309,304 L309,329.2969 C309,339.2969 258,339.2969 258,339.2969 C258,339.2969 207,339.2969 207,329.2969 L207,304 " fill="#FEFECE" filter="url(#fdmbkjwnh4zvl)" style="stroke: #000000; stroke-width: 1.5;"/><path d="M207,304 C207,314 258,314 258,314 C258,314 309,314 309,304 " fill="none" style="stroke: #000000; stroke-width: 1.5;"/><text fill="#000000" font-family="sans-serif" font-size="14" lengthAdjust="spacingAndGlyphs" textLength="82" x="217" y="330.9951">Signal Store</text><!--MD5=[0a06ed5a30eb70dbc569e40f0e9dcefb]
entity Data Adapter Selector--><rect fill="#FEFECE" filter="url(#fdmbkjwnh4zvl)" height="36.2969" style="stroke: #A80036; stroke-width: 1.5;" width="171" x="323.5" y="442"/><rect fill="#FEFECE" height="5" style="stroke: #A80036; stroke-width: 1.5;" width="10" x="318.5" y="447"/><rect fill="#FEFECE" height="5" style="stroke: #A80036; stroke-width: 1.5;" width="10" x="318.5" y="468.2969"/><text fill="#000000" font-family="sans-serif" font-size="14" lengthAdjust="spacingAndGlyphs" textLength="151" x="333.5" y="464.9951">Data Adapter Selector</text><!--MD5=[c4815aeeacacc9b0dd36cf44bbd9bc7d]
entity data_adapter--><rect fill="#FEFECE" filter="url(#fdmbkjwnh4zvl)" height="36.2969" style="stroke: #A80036; stroke-width: 1.5;" width="110" x="645" y="442"/><rect fill="#FEFECE" height="5" style="stroke: #A80036; stroke-width: 1.5;" width="10" x="640" y="447"/><rect fill="#FEFECE" height="5" style="stroke: #A80036; stroke-width: 1.5;" width="10" x="640" y="468.2969"/><text fill="#000000" font-family="sans-serif" font-size="14" lengthAdjust="spacingAndGlyphs" textLength="90" x="655" y="464.9951">Data Adapter</text><!--MD5=[e6e725cab67fde0e2faad4fc6fd3a9e4]
entity ivdts--><rect fill="#FEFECE" filter="url(#fdmbkjwnh4zvl)" height="36.2969" style="stroke: #A80036; stroke-width: 1.5;" width="223" x="196.5" y="650"/><rect fill="#FEFECE" height="5" style="stroke: #A80036; stroke-width: 1.5;" width="10" x="191.5" y="655"/><rect fill="#FEFECE" height="5" style="stroke: #A80036; stroke-width: 1.5;" width="10" x="191.5" y="676.2969"/><text fill="#000000" font-family="sans-serif" font-size="14" lengthAdjust="spacingAndGlyphs" textLength="203" x="206.5" y="672.9951">In-Vehicle Digital Twin Service</text><!--MD5=[62cc4166db310ca44a141886713fd6cd]
entity provider--><rect fill="#FEFECE" filter="url(#fdmbkjwnh4zvl)" height="36.2969" style="stroke: #A80036; stroke-width: 1.5;" width="158" x="482" y="650"/><rect fill="#FEFECE" height="5" style="stroke: #A80036; stroke-width: 1.5;" width="10" x="477" y="655"/><rect fill="#FEFECE" height="5" style="stroke: #A80036; stroke-width: 1.5;" width="10" x="477" y="676.2969"/><text fill="#000000" font-family="sans-serif" font-size="14" lengthAdjust="spacingAndGlyphs" textLength="138" x="492" y="672.9951">Digital Twin Provider</text><!--MD5=[5f3415b40dd353f6f1225f479bdf176d]
reverse link Cloud Connector to Emitter--><path d="M465,201.18 C465,228.3 465,273.63 465,298.27 " fill="none" id="Cloud Connector&lt;-Emitter" style="stroke: #A80036; stroke-width: 1.0;"/><polygon fill="#A80036" points="465,196.01,461,205.01,465,201.01,469,205.01,465,196.01" style="stroke: #A80036; stroke-width: 1.0;"/><text fill="#000000" font-family="sans-serif" font-size="13" lengthAdjust="spacingAndGlyphs" textLength="64" x="466" y="239.0669">Emit Data</text><!--MD5=[9277ee227f0de294b67b13b352d59f38]
link Cartographer to ivMappingSvc--><path d="M114.67,436.75 C112.27,412.68 108.64,373.17 107,339 C104.65,289.95 104.59,232.35 104.78,201.39 " fill="none" id="Cartographer-ivMappingSvc" style="stroke: #A80036; stroke-width: 1.0;"/><polygon fill="#A80036" points="104.82,196.3,100.743,205.2654,104.7771,201.2998,108.7427,205.334,104.82,196.3" style="stroke: #A80036; stroke-width: 1.0;"/><polygon fill="#A80036" points="115.2,441.94,118.2527,432.5762,114.6855,436.9665,110.2951,433.3994,115.2,441.94" style="stroke: #A80036; stroke-width: 1.0;"/><text fill="#000000" font-family="sans-serif" font-size="13" lengthAdjust="spacingAndGlyphs" textLength="81" x="108" y="321.0669">Get Mapping</text><!--MD5=[03e3489fe3908a329d7095bf757eac43]
link cloudMappingSvc to ivMappingSvc--><path d="M105,81.4 C105,102.43 105,133.72 105,154.72 " fill="none" id="cloudMappingSvc-ivMappingSvc" style="stroke: #A80036; stroke-width: 1.0; stroke-dasharray: 7.0,7.0;"/><polygon fill="#A80036" points="105,159.82,109,150.82,105,154.82,101,150.82,105,159.82" style="stroke: #A80036; stroke-width: 1.0;"/><polygon fill="#A80036" points="105,76.16,101,85.16,105,81.16,109,85.16,105,76.16" style="stroke: #A80036; stroke-width: 1.0;"/><!--MD5=[cf6fa0675c7686d9bf787d802e0ceaba]
reverse link Cloud Digital Twin to Cloud Connector--><path d="M465,81.4 C465,104.21 465,139.1 465,159.82 " fill="none" id="Cloud Digital Twin&lt;-Cloud Connector" style="stroke: #A80036; stroke-width: 1.0;"/><polygon fill="#A80036" points="465,76.16,461,85.16,465,81.16,469,85.16,465,76.16" style="stroke: #A80036; stroke-width: 1.0;"/><!--MD5=[74d95b2d035ca459648e0dc96290e488]
link Cartographer to Chariott--><path d="M116.1,478.1 C115.37,492.89 114.39,514.85 114,534 C113.2,573.01 116.5,618.38 118.84,644.78 " fill="none" id="Cartographer-&gt;Chariott" style="stroke: #A80036; stroke-width: 1.0; stroke-dasharray: 7.0,7.0;"/><polygon fill="#A80036" points="119.29,649.8,122.4757,640.4806,118.8464,644.8197,114.5072,641.1904,119.29,649.8" style="stroke: #A80036; stroke-width: 1.0;"/><text fill="#000000" font-family="sans-serif" font-size="13" lengthAdjust="spacingAndGlyphs" textLength="149" x="115" y="547.0669">Discover Ibeji (optional)</text><!--MD5=[4fa2a351262749db6fcd792279c3a0b9]
link Cartographer to ivdts--><path d="M172.57,475.31 C204.95,486.34 244.17,504.77 269,534 C296.13,565.94 304.4,615.98 306.91,644.71 " fill="none" id="Cartographer-&gt;ivdts" style="stroke: #A80036; stroke-width: 1.0;"/><polygon fill="#A80036" points="307.31,649.81,310.5774,640.5189,306.9101,644.826,302.6031,641.1587,307.31,649.81" style="stroke: #A80036; stroke-width: 1.0;"/><text fill="#000000" font-family="sans-serif" font-size="13" lengthAdjust="spacingAndGlyphs" textLength="118" x="280" y="547.0669">Discover Providers</text><!--MD5=[c0ae0120155a3ba5a6c7db5d024cfe42]
reverse link Signal Store to Cartographer--><path d="M202.37,340.2 C175.66,351.54 148.46,363.9 144,369 C125.95,389.62 119.96,421.94 117.98,441.72 " fill="none" id="Signal Store&lt;-Cartographer" style="stroke: #A80036; stroke-width: 1.0;"/><polygon fill="#A80036" points="206.99,338.25,197.1431,338.056,202.3818,340.1903,200.2475,345.4291,206.99,338.25" style="stroke: #A80036; stroke-width: 1.0;"/><text fill="#000000" font-family="sans-serif" font-size="13" lengthAdjust="spacingAndGlyphs" textLength="84" x="145" y="382.0669">Track Signals</text><!--MD5=[11cb73af605e3f7b298b466a72d61be8]
link Cartographer to Data Adapter Selector--><path d="M172.61,460 C213.72,460 270.6,460 318.26,460 " fill="none" id="Cartographer-&gt;Data Adapter Selector" style="stroke: #A80036; stroke-width: 1.0;"/><polygon fill="#A80036" points="323.43,460,314.43,456,318.43,460,314.43,464,323.43,460" style="stroke: #A80036; stroke-width: 1.0;"/><text fill="#000000" font-family="sans-serif" font-size="13" lengthAdjust="spacingAndGlyphs" textLength="114" x="191" y="453.0669">Register Adapters</text><!--MD5=[85a3fbcdb51978fbe99386bdec56e1b4]
link Data Adapter Selector to data_adapter--><path d="M494.74,460 C541.29,460 597.74,460 639.64,460 " fill="none" id="Data Adapter Selector-&gt;data_adapter" style="stroke: #A80036; stroke-width: 1.0;"/><polygon fill="#A80036" points="644.68,460,635.68,456,639.68,460,635.68,464,644.68,460" style="stroke: #A80036; stroke-width: 1.0;"/><text fill="#000000" font-family="sans-serif" font-size="13" lengthAdjust="spacingAndGlyphs" textLength="114" x="512.75" y="453.0669">Register Adapters</text><!--MD5=[6965e71167e52e477943ed3528966d8f]
link data_adapter to provider--><path d="M685.49,482.51 C658.82,522.03 602.31,605.78 575.59,645.38 " fill="none" id="data_adapter-provider" style="stroke: #A80036; stroke-width: 1.0;"/><polygon fill="#A80036" points="572.48,649.98,580.8337,644.7632,575.2798,645.8374,574.2056,640.2835,572.48,649.98" style="stroke: #A80036; stroke-width: 1.0;"/><polygon fill="#A80036" points="688.39,478.21,680.0487,483.4466,685.6,482.3592,686.6874,487.9106,688.39,478.21" style="stroke: #A80036; stroke-width: 1.0;"/><text fill="#000000" font-family="sans-serif" font-size="13" lengthAdjust="spacingAndGlyphs" textLength="76" x="648" y="547.0669">Collect data</text><!--MD5=[233ce74d99656731c5f520aa088709f0]
reverse link Signal Store to data_adapter--><path d="M314.05,326.7 C413.44,343.3 612.83,378.04 641,394 C661.42,405.57 678.62,426.74 689.09,441.78 " fill="none" id="Signal Store&lt;-data_adapter" style="stroke: #A80036; stroke-width: 1.0;"/><polygon fill="#A80036" points="309.1,325.87,317.3123,331.3067,314.0308,326.6989,318.6386,323.4175,309.1,325.87" style="stroke: #A80036; stroke-width: 1.0;"/><text fill="#000000" font-family="sans-serif" font-size="13" lengthAdjust="spacingAndGlyphs" textLength="133" x="616" y="382.0669">Update signal values</text><!--MD5=[d4ae002b7fb1479dd68b74d9b55861f8]
link Signal Store to Emitter--><path d="M309.17,316.5 C344.97,316.5 392.1,316.5 425.12,316.5 " fill="none" id="Signal Store-&gt;Emitter" style="stroke: #A80036; stroke-width: 1.0;"/><polygon fill="#A80036" points="430.29,316.5,421.29,312.5,425.29,316.5,421.29,320.5,430.29,316.5" style="stroke: #A80036; stroke-width: 1.0;"/><text fill="#000000" font-family="sans-serif" font-size="13" lengthAdjust="spacingAndGlyphs" textLength="85" x="327.25" y="309.5669">Retrieve data</text><!--MD5=[c1f294d85358f48b3f10f6343f6ca934]
link Chariott to ivdts--><path d="M163.3,668 C172.58,668 181.85,668 191.12,668 " fill="none" id="Chariott-ivdts" style="stroke: #A80036; stroke-width: 1.0;"/><polygon fill="#A80036" points="196.28,668,187.28,664,191.28,668,187.28,672,196.28,668" style="stroke: #A80036; stroke-width: 1.0;"/><polygon fill="#A80036" points="158.25,668,167.25,672,163.25,668,167.25,664,158.25,668" style="stroke: #A80036; stroke-width: 1.0;"/><!--MD5=[f22bbdf22fac5152a1d1851ea6c95475]
link ivdts to provider--><path d="M425.01,668 C442.16,668 459.31,668 476.46,668 " fill="none" id="ivdts-provider" style="stroke: #A80036; stroke-width: 1.0;"/><polygon fill="#A80036" points="481.78,668,472.78,664,476.78,668,472.78,672,481.78,668" style="stroke: #A80036; stroke-width: 1.0;"/><polygon fill="#A80036" points="419.68,668,428.68,672,424.68,668,428.68,664,419.68,668" style="stroke: #A80036; stroke-width: 1.0;"/><!--MD5=[38a84650eb8c32c5415fce4e8421e7c9]
@startuml
skinparamlocked backgroundColor fefefe

cloud {
    [Mapping Service] as cloudMappingSvc
}

cloud {
    [Cloud Digital Twin]
}

package "Vehicle" {
    frame "Freyja" {
        [Cartographer]
        [Emitter]
        database "Signal Store"
        [Data Adapter Selector]
        node "Data Adapters" {
            [Data Adapter] as data_adapter
        }
    }

    [Chariott]

    frame "Ibeji" {
        [In-Vehicle Digital Twin Service] as ivdts
        node "Digital Twin Providers" {
            [Digital Twin Provider] as provider
        }
    }

    [Cloud Connector]
    [Mapping Service] as ivMappingSvc
}

[Emitter] -u-> [Cloud Connector] : Emit Data
[Cartographer] <-[norank]-> [ivMappingSvc] : Get Mapping
[ivMappingSvc] <.u.> [cloudMappingSvc]
[Cloud Connector] -u-> [Cloud Digital Twin]
[Cartographer] .d.> [Chariott] : Discover Ibeji (optional)
[Cartographer] -d-> [ivdts] : Discover Providers
[Cartographer] -u-> [Signal Store] : Track Signals
[Cartographer] -r-> [Data Adapter Selector] : Register Adapters
[Data Adapter Selector] -r-> [data_adapter] : Register Adapters
[data_adapter] <-d-> [provider] : Collect data
[data_adapter] -u-> [Signal Store] : Update signal values
[Emitter] <-l- [Signal Store] : Retrieve data
[Chariott] <-r-> [ivdts]
[ivdts] <-r-> [provider]

@enduml

PlantUML version 1.2020.02(Sun Mar 01 10:22:07 UTC 2020)
(GPL source distribution)
Java Runtime: OpenJDK Runtime Environment
JVM: OpenJDK 64-Bit Server VM
Java Version: 11.0.21+9
Operating System: Linux
Default Encoding: UTF-8
Language: en
Country: null
--></g></svg>