<?xml version="1.0" encoding="UTF-8" standalone="no"?><svg xmlns="http://www.w3.org/2000/svg" xmlns:xlink="http://www.w3.org/1999/xlink" contentScriptType="application/ecmascript" contentStyleType="text/css" height="1120px" preserveAspectRatio="none" style="width:841px;height:1120px;background:#FEFEFE;" version="1.1" viewBox="0 0 841 1120" width="841px" zoomAndPan="magnify"><defs><filter height="300%" id="foanehdlljj5y" width="300%" x="-1" y="-1"><feGaussianBlur result="blurOut" stdDeviation="2.0"/><feColorMatrix in="blurOut" result="blurOut2" type="matrix" values="0 0 0 0 0 0 0 0 0 0 0 0 0 0 0 0 0 0 .4 0"/><feOffset dx="4.0" dy="4.0" in="blurOut2" result="blurOut3"/><feBlend in="SourceGraphic" in2="blurOut3" mode="normal"/></filter></defs><g><path d="M31.4217,33.7819 C34.1182,28.3452 39.3533,27.4805 42.8634,32.9265 C45.1913,26.2106 51.3878,25.0411 55.8263,30.7189 C58.3243,24.7005 64.0236,23.6223 67.6583,29.5975 C71.3374,23.996 77.8607,23.6512 81.2198,29.9619 C83.7938,22.9716 90.0571,23.524 94.1111,28.3468 C96.3831,23.2329 101.4883,22.1502 105.0451,26.9266 C110.2536,20.5285 115.7551,21.6774 119.1878,28.7861 C122.8662,23.313 127.7424,24.1968 130.1342,30.0315 C133.5742,22.876 140.003,23.4092 144.0581,29.379 C148.39,24.1016 153.2433,25.8406 155.4598,31.5703 C159.9652,24.084 165.7889,25.4675 169.6531,32.2099 C174.0342,27.5191 177.3497,28.072 180.5701,33.4663 C187.4232,36.0918 188.4264,40.2039 183.8451,45.8527 C190.7397,48.6508 190.7341,54.0014 185.0874,58.0743 C192.0135,63.2271 190.8941,68.481 183.6281,72.1638 C188.5557,76.8698 188.0552,83.2702 181.2804,85.9889 C177.5701,92.5137 173.8801,91.957 169.671,86.4711 C164.8419,93.2685 159.5672,92.8559 155.3296,85.8562 C152.312,91.568 148.26,92.1387 144.5903,86.4717 C142.0202,92.033 135.9598,94.0566 132.1099,87.8264 C127.9304,93.3183 123.4062,92.6878 119.6439,87.3464 C116.7979,94.5451 111.0726,94.7465 106.6351,88.938 C102.2619,94.4218 98.2085,94.4698 94.4352,88.3094 C89.7529,95.5558 84.1751,94.9064 80.2106,87.6074 C76.9004,92.6852 71.6097,92.7867 68.4952,87.3887 C64.4476,92.5349 59.8025,91.789 57.0998,85.9887 C53.321,92.2044 46.7887,91.7733 43.0363,85.9579 C38.3459,90.6741 33.1348,90.9337 30.0125,84.1777 C23.3586,81.3956 22.3973,77.788 27.7066,72.6193 C20.5527,69.9043 19.2125,65.5189 23.3326,59.1443 C17.3542,53.1544 19.6775,47.776 27.2901,45.824 C21.8839,40.0623 24.3988,35.2792 31.4217,33.7819 " fill="#FEFEFE" style="stroke: #000000; stroke-width: 1.5;"/><path d="M451.0057,32.8192 C454.6048,26.7906 459.7806,27.2723 463.2173,32.9881 C466.4544,26.684 471.3733,25.9702 475.2407,32.3925 C477.884,27.4233 482.826,27.0023 486.4238,31.2322 C489.3731,25.3418 493.6089,25.5892 497.2893,30.4965 C499.7758,24.5876 505.0572,25.0707 508.4874,29.4715 C510.9601,23.5502 515.7536,21.543 520.6645,26.8204 C523.7638,21.5022 527.0915,21.496 530.4742,26.5525 C534.3958,20.7452 539.8034,22.6216 541.9761,28.3033 C546.6006,23.2216 550.4227,23.1017 553.9263,29.4729 C557.8836,24.0676 562.3455,24.3314 565.5136,30.2785 C569.4609,25.8204 573.1253,25.5002 575.7997,31.5273 C580.3289,26.1708 584.4019,25.7901 588.2552,32.2404 C591.2506,27.241 596.0685,26.957 599.5365,31.6927 C603.5927,27.5418 607.6632,27.803 609.8698,33.6117 C617.9554,36.0434 618.4904,40.5498 613.2432,46.4775 C621.1385,49.5055 621.6506,54.7395 615.2603,59.9124 C620.0975,65.2909 617.1819,69.6061 611.3646,71.3583 C617.36,75.7991 616.2712,82.1436 609.0347,84.1799 C607.2062,88.6466 603.2611,90.3654 599.671,86.0604 C596.3392,91.6264 592.5453,92.7688 588.2628,87.0188 C584.5306,92.5417 579.1244,91.94 575.9788,86.3692 C573.0859,92.4719 568.8956,92.062 564.7915,87.6591 C561.1226,91.9391 557.677,92.3979 554.4019,87.2261 C552.2072,93.6403 546.7402,94.6023 542.4688,89.3503 C539.3794,94.7854 535.3992,95.1992 531.9452,89.7012 C526.8066,94.6386 522.6069,94.0551 518.9694,87.9391 C516.4134,92.2507 511.5987,92.8689 508.6884,88.3516 C504.7913,93.7807 500.2424,94.2208 496.7489,87.94 C493.6752,92.9047 489.4129,92.0941 486.5097,87.7523 C482.4565,92.6854 476.0496,92.8671 473.5719,86.0218 C470.9383,91.8982 466.0719,91.636 462.7359,86.7275 C459.6829,91.2053 455.5312,90.5067 453.1206,86.0373 C445.7313,84.0795 441.5958,78.7953 447.862,71.7955 C441.6334,68.7621 440.8073,64.5637 445.036,59.1865 C440.1342,54.4727 439.6626,49.2992 446.9663,46.4327 C442.566,39.988 442.9765,35.5758 451.0057,32.8192 " fill="#FEFEFE" style="stroke: #000000; stroke-width: 1.5;"/><!--MD5=[f0862bf7367bcc9d674716c64b321cab]
cluster Vehicle--><polygon fill="#FEFEFE" filter="url(#foanehdlljj5y)" points="22,125,86,125,93,147.2969,819,147.2969,819,1108,22,1108,22,125" style="stroke: #000000; stroke-width: 1.5;"/><line style="stroke: #000000; stroke-width: 1.5;" x1="22" x2="93" y1="147.2969" y2="147.2969"/><text fill="#000000" font-family="sans-serif" font-size="14" font-weight="bold" lengthAdjust="spacingAndGlyphs" textLength="58" x="26" y="139.9951">Vehicle</text><!--MD5=[88e83b057f67aa8eb9775378cca3188b]
cluster Freyja--><rect fill="#FEFEFE" filter="url(#foanehdlljj5y)" height="617" style="stroke: #000000; stroke-width: 1.5;" width="749" x="46" y="259"/><path d="M104,260 L104,268.2969 L94,278.2969 L46,278.2969 " fill="none" style="stroke: #000000; stroke-width: 1.5;"/><text fill="#000000" font-family="sans-serif" font-size="14" font-weight="bold" lengthAdjust="spacingAndGlyphs" textLength="48" x="49" y="272.9951">Freyja</text><!--MD5=[7313e90ef5484b367eb9798f49b94e5a]
cluster Data Adapters--><polygon fill="#FEFEFE" filter="url(#foanehdlljj5y)" points="583,560,593,550,771,550,771,632,761,642,583,642,583,560" style="stroke: #000000; stroke-width: 1.5;"/><line style="stroke: #000000; stroke-width: 1.5;" x1="761" x2="770" y1="560" y2="551"/><line style="stroke: #000000; stroke-width: 1.5;" x1="583" x2="761" y1="560" y2="560"/><line style="stroke: #000000; stroke-width: 1.5;" x1="761" x2="761" y1="560" y2="642"/><text fill="#000000" font-family="sans-serif" font-size="14" font-weight="bold" lengthAdjust="spacingAndGlyphs" textLength="112" x="617" y="575.9951">Data Adapters</text><!--MD5=[6ac55479130928f71e63c1a8b20aeaf4]
cluster Ibeji--><rect fill="#FEFEFE" filter="url(#foanehdlljj5y)" height="159" style="stroke: #000000; stroke-width: 1.5;" width="526" x="267" y="925"/><path d="M309,926 L309,934.2969 L299,944.2969 L267,944.2969 " fill="none" style="stroke: #000000; stroke-width: 1.5;"/><text fill="#000000" font-family="sans-serif" font-size="14" font-weight="bold" lengthAdjust="spacingAndGlyphs" textLength="32" x="270" y="938.9951">Ibeji</text><!--MD5=[eb55123c22a53197bac9b02a3207d9a0]
cluster Digital Twin Providers--><polygon fill="#FEFEFE" filter="url(#foanehdlljj5y)" points="521,978,531,968,769,968,769,1050,759,1060,521,1060,521,978" style="stroke: #000000; stroke-width: 1.5;"/><line style="stroke: #000000; stroke-width: 1.5;" x1="759" x2="768" y1="978" y2="969"/><line style="stroke: #000000; stroke-width: 1.5;" x1="521" x2="759" y1="978" y2="978"/><line style="stroke: #000000; stroke-width: 1.5;" x1="759" x2="759" y1="978" y2="1060"/><text fill="#000000" font-family="sans-serif" font-size="14" font-weight="bold" lengthAdjust="spacingAndGlyphs" textLength="172" x="555" y="993.9951">Digital Twin Providers</text><!--MD5=[6fa4b3d6e24ea88daa248184ddaa5b44]
entity cloudMappingSvc--><rect fill="#FEFECE" filter="url(#foanehdlljj5y)" height="36.2969" style="stroke: #A80036; stroke-width: 1.5;" width="133" x="38.5" y="40"/><rect fill="#FEFECE" height="5" style="stroke: #A80036; stroke-width: 1.5;" width="10" x="33.5" y="45"/><rect fill="#FEFECE" height="5" style="stroke: #A80036; stroke-width: 1.5;" width="10" x="33.5" y="66.2969"/><text fill="#000000" font-family="sans-serif" font-size="14" lengthAdjust="spacingAndGlyphs" textLength="113" x="48.5" y="62.9951">Mapping Service</text><!--MD5=[1604d5dcbb415f576ef8edfd9c31dfa0]
entity Cloud Digital Twin--><rect fill="#FEFECE" filter="url(#foanehdlljj5y)" height="36.2969" style="stroke: #A80036; stroke-width: 1.5;" width="142" x="459" y="40"/><rect fill="#FEFECE" height="5" style="stroke: #A80036; stroke-width: 1.5;" width="10" x="454" y="45"/><rect fill="#FEFECE" height="5" style="stroke: #A80036; stroke-width: 1.5;" width="10" x="454" y="66.2969"/><text fill="#000000" font-family="sans-serif" font-size="14" lengthAdjust="spacingAndGlyphs" textLength="122" x="469" y="62.9951">Cloud Digital Twin</text><!--MD5=[c44cbeb5ceaaf8c4ba17cfa808523486]
entity Chariott--><rect fill="#FEFECE" filter="url(#foanehdlljj5y)" height="36.2969" style="stroke: #A80036; stroke-width: 1.5;" width="74" x="165" y="1008"/><rect fill="#FEFECE" height="5" style="stroke: #A80036; stroke-width: 1.5;" width="10" x="160" y="1013"/><rect fill="#FEFECE" height="5" style="stroke: #A80036; stroke-width: 1.5;" width="10" x="160" y="1034.2969"/><text fill="#000000" font-family="sans-serif" font-size="14" lengthAdjust="spacingAndGlyphs" textLength="54" x="175" y="1030.9951">Chariott</text><!--MD5=[041e0fd6ba3b2fd9f21b32dca4378f49]
entity Cloud Connector--><rect fill="#FEFECE" filter="url(#foanehdlljj5y)" height="36.2969" style="stroke: #A80036; stroke-width: 1.5;" width="137" x="461.5" y="160"/><rect fill="#FEFECE" height="5" style="stroke: #A80036; stroke-width: 1.5;" width="10" x="456.5" y="165"/><rect fill="#FEFECE" height="5" style="stroke: #A80036; stroke-width: 1.5;" width="10" x="456.5" y="186.2969"/><text fill="#000000" font-family="sans-serif" font-size="14" lengthAdjust="spacingAndGlyphs" textLength="117" x="471.5" y="182.9951">Cloud Connector</text><!--MD5=[e7ad75c8b45b647c27afd21ae8a7175c]
entity ivMappingSvc--><rect fill="#FEFECE" filter="url(#foanehdlljj5y)" height="36.2969" style="stroke: #A80036; stroke-width: 1.5;" width="133" x="38.5" y="160"/><rect fill="#FEFECE" height="5" style="stroke: #A80036; stroke-width: 1.5;" width="10" x="33.5" y="165"/><rect fill="#FEFECE" height="5" style="stroke: #A80036; stroke-width: 1.5;" width="10" x="33.5" y="186.2969"/><text fill="#000000" font-family="sans-serif" font-size="14" lengthAdjust="spacingAndGlyphs" textLength="113" x="48.5" y="182.9951">Mapping Service</text><!--MD5=[a3d41d946e2b2630dfd9f74f50bb1723]
entity Cartographer--><rect fill="#FEFECE" filter="url(#foanehdlljj5y)" height="36.2969" style="stroke: #A80036; stroke-width: 1.5;" width="111" x="61.5" y="590"/><rect fill="#FEFECE" height="5" style="stroke: #A80036; stroke-width: 1.5;" width="10" x="56.5" y="595"/><rect fill="#FEFECE" height="5" style="stroke: #A80036; stroke-width: 1.5;" width="10" x="56.5" y="616.2969"/><text fill="#000000" font-family="sans-serif" font-size="14" lengthAdjust="spacingAndGlyphs" textLength="91" x="71.5" y="612.9951">Cartographer</text><!--MD5=[552ea18ff0d08c3535ee73c9f9161aae]
entity Digital Twin Adapter--><ellipse cx="194" cy="718" fill="#FEFECE" filter="url(#foanehdlljj5y)" rx="8" ry="8" style="stroke: #A80036; stroke-width: 2.0;"/><text fill="#000000" font-family="sans-serif" font-size="14" lengthAdjust="spacingAndGlyphs" textLength="136" x="126" y="747.9951">Digital Twin Adapter</text><!--MD5=[68541d65193f0aaa7b430772f00376a7]
entity Mapping Adapter--><ellipse cx="128" cy="458" fill="#FEFECE" filter="url(#foanehdlljj5y)" rx="8" ry="8" style="stroke: #A80036; stroke-width: 2.0;"/><text fill="#000000" font-family="sans-serif" font-size="14" lengthAdjust="spacingAndGlyphs" textLength="117" x="69.5" y="487.9951">Mapping Adapter</text><!--MD5=[5db1e66abd3f7f43b90b7d38fc9ccb5a]
entity Emitter--><rect fill="#FEFECE" filter="url(#foanehdlljj5y)" height="36.2969" style="stroke: #A80036; stroke-width: 1.5;" width="69" x="495.5" y="440"/><rect fill="#FEFECE" height="5" style="stroke: #A80036; stroke-width: 1.5;" width="10" x="490.5" y="445"/><rect fill="#FEFECE" height="5" style="stroke: #A80036; stroke-width: 1.5;" width="10" x="490.5" y="466.2969"/><text fill="#000000" font-family="sans-serif" font-size="14" lengthAdjust="spacingAndGlyphs" textLength="49" x="505.5" y="462.9951">Emitter</text><!--MD5=[161a6b5a0248efac3897837f792e5921]
entity Cloud Adapter--><ellipse cx="530" cy="323" fill="#FEFECE" filter="url(#foanehdlljj5y)" rx="8" ry="8" style="stroke: #A80036; stroke-width: 2.0;"/><text fill="#000000" font-family="sans-serif" font-size="14" lengthAdjust="spacingAndGlyphs" textLength="98" x="481" y="352.9951">Cloud Adapter</text><!--MD5=[78f4bb5e17294dc7644bb44ef630d32e]
entity Signal Store--><path d="M272,445.5 C272,435.5 323,435.5 323,435.5 C323,435.5 374,435.5 374,445.5 L374,470.7969 C374,480.7969 323,480.7969 323,480.7969 C323,480.7969 272,480.7969 272,470.7969 L272,445.5 " fill="#FEFECE" filter="url(#foanehdlljj5y)" style="stroke: #000000; stroke-width: 1.5;"/><path d="M272,445.5 C272,455.5 323,455.5 323,455.5 C323,455.5 374,455.5 374,445.5 " fill="none" style="stroke: #000000; stroke-width: 1.5;"/><text fill="#000000" font-family="sans-serif" font-size="14" lengthAdjust="spacingAndGlyphs" textLength="82" x="282" y="472.4951">Signal Store</text><!--MD5=[0a06ed5a30eb70dbc569e40f0e9dcefb]
entity Data Adapter Selector--><rect fill="#FEFECE" filter="url(#foanehdlljj5y)" height="36.2969" style="stroke: #A80036; stroke-width: 1.5;" width="171" x="323.5" y="590"/><rect fill="#FEFECE" height="5" style="stroke: #A80036; stroke-width: 1.5;" width="10" x="318.5" y="595"/><rect fill="#FEFECE" height="5" style="stroke: #A80036; stroke-width: 1.5;" width="10" x="318.5" y="616.2969"/><text fill="#000000" font-family="sans-serif" font-size="14" lengthAdjust="spacingAndGlyphs" textLength="151" x="333.5" y="612.9951">Data Adapter Selector</text><!--MD5=[dcff6b8cdec00703907d6098b384cf0c]
entity Service Discovery Adapter Selector--><rect fill="#FEFECE" filter="url(#foanehdlljj5y)" height="36.2969" style="stroke: #A80036; stroke-width: 1.5;" width="260" x="64" y="824"/><rect fill="#FEFECE" height="5" style="stroke: #A80036; stroke-width: 1.5;" width="10" x="59" y="829"/><rect fill="#FEFECE" height="5" style="stroke: #A80036; stroke-width: 1.5;" width="10" x="59" y="850.2969"/><text fill="#000000" font-family="sans-serif" font-size="14" lengthAdjust="spacingAndGlyphs" textLength="240" x="74" y="846.9951">Service Discovery Adapter Selector</text><!--MD5=[c4815aeeacacc9b0dd36cf44bbd9bc7d]
entity data_adapter--><rect fill="#FEFECE" filter="url(#foanehdlljj5y)" height="36.2969" style="stroke: #A80036; stroke-width: 1.5;" width="110" x="645" y="590"/><rect fill="#FEFECE" height="5" style="stroke: #A80036; stroke-width: 1.5;" width="10" x="640" y="595"/><rect fill="#FEFECE" height="5" style="stroke: #A80036; stroke-width: 1.5;" width="10" x="640" y="616.2969"/><text fill="#000000" font-family="sans-serif" font-size="14" lengthAdjust="spacingAndGlyphs" textLength="90" x="655" y="612.9951">Data Adapter</text><!--MD5=[e6e725cab67fde0e2faad4fc6fd3a9e4]
entity ivdts--><rect fill="#FEFECE" filter="url(#foanehdlljj5y)" height="36.2969" style="stroke: #A80036; stroke-width: 1.5;" width="223" x="282.5" y="1008"/><rect fill="#FEFECE" height="5" style="stroke: #A80036; stroke-width: 1.5;" width="10" x="277.5" y="1013"/><rect fill="#FEFECE" height="5" style="stroke: #A80036; stroke-width: 1.5;" width="10" x="277.5" y="1034.2969"/><text fill="#000000" font-family="sans-serif" font-size="14" lengthAdjust="spacingAndGlyphs" textLength="203" x="292.5" y="1030.9951">In-Vehicle Digital Twin Service</text><!--MD5=[62cc4166db310ca44a141886713fd6cd]
entity provider--><rect fill="#FEFECE" filter="url(#foanehdlljj5y)" height="36.2969" style="stroke: #A80036; stroke-width: 1.5;" width="158" x="568" y="1008"/><rect fill="#FEFECE" height="5" style="stroke: #A80036; stroke-width: 1.5;" width="10" x="563" y="1013"/><rect fill="#FEFECE" height="5" style="stroke: #A80036; stroke-width: 1.5;" width="10" x="563" y="1034.2969"/><text fill="#000000" font-family="sans-serif" font-size="14" lengthAdjust="spacingAndGlyphs" textLength="138" x="578" y="1030.9951">Digital Twin Provider</text><!--MD5=[a544874d1e69bdace0e65583c0e49022]
reverse link Cloud Adapter to Emitter--><path d="M530,337.34 C530,361.61 530,412.95 530,439.81 " fill="none" id="Cloud Adapter&lt;-Emitter" style="stroke: #A80036; stroke-width: 1.0;"/><polygon fill="#A80036" points="530,332.32,526,341.32,530,337.32,534,341.32,530,332.32" style="stroke: #A80036; stroke-width: 1.0;"/><text fill="#000000" font-family="sans-serif" font-size="13" lengthAdjust="spacingAndGlyphs" textLength="64" x="531" y="395.0669">Emit Data</text><!--MD5=[af0dc868ae93905fb8d65e6a3b1d2333]
reverse link Cloud Connector to Cloud Adapter--><path d="M530,201.63 C530,234.19 530,292.7 530,313.98 " fill="none" id="Cloud Connector&lt;-Cloud Adapter" style="stroke: #A80036; stroke-width: 1.0;"/><polygon fill="#A80036" points="530,196.25,526,205.25,530,201.25,534,205.25,530,196.25" style="stroke: #A80036; stroke-width: 1.0;"/><text fill="#000000" font-family="sans-serif" font-size="13" lengthAdjust="spacingAndGlyphs" textLength="64" x="531" y="239.0669">Emit Data</text><!--MD5=[edf18d0682f4fbcf074f90bfe7e3a4d2]
link Mapping Adapter to Cartographer--><path d="M126.99,472.61 C125.09,498.11 120.99,553.29 118.68,584.43 " fill="none" id="Mapping Adapter-Cartographer" style="stroke: #A80036; stroke-width: 1.0;"/><polygon fill="#A80036" points="118.29,589.59,122.9476,580.912,118.6615,584.6038,114.9697,580.3177,118.29,589.59" style="stroke: #A80036; stroke-width: 1.0;"/><polygon fill="#A80036" points="127.38,467.38,122.7224,476.058,127.0085,472.3662,130.7003,476.6523,127.38,467.38" style="stroke: #A80036; stroke-width: 1.0;"/><text fill="#000000" font-family="sans-serif" font-size="13" lengthAdjust="spacingAndGlyphs" textLength="81" x="125" y="530.0669">Get Mapping</text><!--MD5=[6678bd991442e0558016e4a27fde11ca]
link Mapping Adapter to ivMappingSvc--><path d="M126.9,443.7 C123.25,399.54 111.49,257.43 106.88,201.71 " fill="none" id="Mapping Adapter-ivMappingSvc" style="stroke: #A80036; stroke-width: 1.0;"/><polygon fill="#A80036" points="106.44,196.39,103.199,205.6903,106.854,201.3728,111.1715,205.0279,106.44,196.39" style="stroke: #A80036; stroke-width: 1.0;"/><polygon fill="#A80036" points="127.32,448.81,130.5588,439.5089,126.9048,443.8273,122.5864,440.1733,127.32,448.81" style="stroke: #A80036; stroke-width: 1.0;"/><text fill="#000000" font-family="sans-serif" font-size="13" lengthAdjust="spacingAndGlyphs" textLength="81" x="121" y="327.5669">Get Mapping</text><!--MD5=[03e3489fe3908a329d7095bf757eac43]
link cloudMappingSvc to ivMappingSvc--><path d="M105,81.4 C105,102.43 105,133.72 105,154.72 " fill="none" id="cloudMappingSvc-ivMappingSvc" style="stroke: #A80036; stroke-width: 1.0; stroke-dasharray: 7.0,7.0;"/><polygon fill="#A80036" points="105,159.82,109,150.82,105,154.82,101,150.82,105,159.82" style="stroke: #A80036; stroke-width: 1.0;"/><polygon fill="#A80036" points="105,76.16,101,85.16,105,81.16,109,85.16,105,76.16" style="stroke: #A80036; stroke-width: 1.0;"/><!--MD5=[cf6fa0675c7686d9bf787d802e0ceaba]
reverse link Cloud Digital Twin to Cloud Connector--><path d="M530,81.4 C530,104.21 530,139.1 530,159.82 " fill="none" id="Cloud Digital Twin&lt;-Cloud Connector" style="stroke: #A80036; stroke-width: 1.0;"/><polygon fill="#A80036" points="530,76.16,526,85.16,530,81.16,534,85.16,530,76.16" style="stroke: #A80036; stroke-width: 1.0;"/><!--MD5=[ca3b09a34326a06a167fd499da23b109]
link Cartographer to Digital Twin Adapter--><path d="M129.37,626.35 C144.89,648.12 171.14,684.93 184.92,704.27 " fill="none" id="Cartographer-&gt;Digital Twin Adapter" style="stroke: #A80036; stroke-width: 1.0;"/><polygon fill="#A80036" points="188.14,708.79,186.1766,699.1388,185.2392,704.7175,179.6606,703.7801,188.14,708.79" style="stroke: #A80036; stroke-width: 1.0;"/><!--MD5=[d96eb9a0f41530663c252fae2852d71d]
link Digital Twin Adapter to Service Discovery Adapter Selector--><path d="M194,727 C194,745.29 194,790.69 194,818.37 " fill="none" id="Digital Twin Adapter-&gt;Service Discovery Adapter Selector" style="stroke: #A80036; stroke-width: 1.0;"/><polygon fill="#A80036" points="194,823.65,198,814.65,194,818.65,190,814.65,194,823.65" style="stroke: #A80036; stroke-width: 1.0;"/><text fill="#000000" font-family="sans-serif" font-size="13" lengthAdjust="spacingAndGlyphs" textLength="84" x="195" y="790.0669">Discover Ibeji</text><!--MD5=[3dadf002ea5ab933637b8e05c39b8669]
link Service Discovery Adapter Selector to Chariott--><path d="M194.75,860.12 C196.21,893.18 199.4,965.79 201.02,1002.63 " fill="none" id="Service Discovery Adapter Selector-&gt;Chariott" style="stroke: #A80036; stroke-width: 1.0;"/><polygon fill="#A80036" points="201.24,1007.79,204.8498,998.6265,201.0253,1002.7946,196.8572,998.9701,201.24,1007.79" style="stroke: #A80036; stroke-width: 1.0;"/><text fill="#000000" font-family="sans-serif" font-size="13" lengthAdjust="spacingAndGlyphs" textLength="84" x="197" y="905.0669">Discover Ibeji</text><!--MD5=[02370f1f87321c9d59570cfea89353ca]
link Digital Twin Adapter to ivdts--><path d="M203.08,722.9 C237.25,738.21 357.71,797.96 389,892 C401.38,929.2 399.54,975.52 396.9,1002.53 " fill="none" id="Digital Twin Adapter-&gt;ivdts" style="stroke: #A80036; stroke-width: 1.0;"/><polygon fill="#A80036" points="396.36,1007.66,401.2649,999.1194,396.8745,1002.6865,393.3073,998.2962,396.36,1007.66" style="stroke: #A80036; stroke-width: 1.0;"/><text fill="#000000" font-family="sans-serif" font-size="13" lengthAdjust="spacingAndGlyphs" textLength="118" x="385" y="846.5669">Discover Providers</text><!--MD5=[c0ae0120155a3ba5a6c7db5d024cfe42]
reverse link Signal Store to Cartographer--><path d="M288.84,483.54 C247.04,513.57 177.35,563.64 140.89,589.84 " fill="none" id="Signal Store&lt;-Cartographer" style="stroke: #A80036; stroke-width: 1.0;"/><polygon fill="#A80036" points="293.05,480.52,283.4114,482.5442,288.9959,483.4464,288.0937,489.0309,293.05,480.52" style="stroke: #A80036; stroke-width: 1.0;"/><text fill="#000000" font-family="sans-serif" font-size="13" lengthAdjust="spacingAndGlyphs" textLength="84" x="239" y="530.0669">Track Signals</text><!--MD5=[11cb73af605e3f7b298b466a72d61be8]
link Cartographer to Data Adapter Selector--><path d="M172.61,608 C213.72,608 270.6,608 318.26,608 " fill="none" id="Cartographer-&gt;Data Adapter Selector" style="stroke: #A80036; stroke-width: 1.0;"/><polygon fill="#A80036" points="323.43,608,314.43,604,318.43,608,314.43,612,323.43,608" style="stroke: #A80036; stroke-width: 1.0;"/><text fill="#000000" font-family="sans-serif" font-size="13" lengthAdjust="spacingAndGlyphs" textLength="114" x="191" y="601.0669">Register Adapters</text><!--MD5=[85a3fbcdb51978fbe99386bdec56e1b4]
link Data Adapter Selector to data_adapter--><path d="M494.74,608 C541.29,608 597.74,608 639.64,608 " fill="none" id="Data Adapter Selector-&gt;data_adapter" style="stroke: #A80036; stroke-width: 1.0;"/><polygon fill="#A80036" points="644.68,608,635.68,604,639.68,608,635.68,612,644.68,608" style="stroke: #A80036; stroke-width: 1.0;"/><text fill="#000000" font-family="sans-serif" font-size="13" lengthAdjust="spacingAndGlyphs" textLength="114" x="512.75" y="601.0669">Register Adapters</text><!--MD5=[6965e71167e52e477943ed3528966d8f]
link data_adapter to provider--><path d="M697.66,631.19 C692.68,677.99 680.44,790.18 668,884 C662.45,925.86 654.97,974.56 650.6,1002.38 " fill="none" id="data_adapter-provider" style="stroke: #A80036; stroke-width: 1.0;"/><polygon fill="#A80036" points="649.77,1007.66,655.11,999.3845,650.541,1002.7198,647.2057,998.1508,649.77,1007.66" style="stroke: #A80036; stroke-width: 1.0;"/><polygon fill="#A80036" points="698.2,626.08,693.2709,634.6067,697.6714,631.052,701.226,635.4525,698.2,626.08" style="stroke: #A80036; stroke-width: 1.0;"/><text fill="#000000" font-family="sans-serif" font-size="13" lengthAdjust="spacingAndGlyphs" textLength="76" x="682" y="790.0669">Collect data</text><!--MD5=[233ce74d99656731c5f520aa088709f0]
reverse link Signal Store to data_adapter--><path d="M379.41,469.68 C458.39,485.32 597.18,515.46 641,542 C660.95,554.08 678.12,574.94 688.72,589.77 " fill="none" id="Signal Store&lt;-data_adapter" style="stroke: #A80036; stroke-width: 1.0;"/><polygon fill="#A80036" points="374.29,468.68,382.3403,474.3538,379.1945,469.6523,383.896,466.5066,374.29,468.68" style="stroke: #A80036; stroke-width: 1.0;"/><text fill="#000000" font-family="sans-serif" font-size="13" lengthAdjust="spacingAndGlyphs" textLength="133" x="623" y="530.0669">Update signal values</text><!--MD5=[d4ae002b7fb1479dd68b74d9b55861f8]
link Signal Store to Emitter--><path d="M374.17,458 C409.97,458 457.1,458 490.12,458 " fill="none" id="Signal Store-&gt;Emitter" style="stroke: #A80036; stroke-width: 1.0;"/><polygon fill="#A80036" points="495.29,458,486.29,454,490.29,458,486.29,462,495.29,458" style="stroke: #A80036; stroke-width: 1.0;"/><text fill="#000000" font-family="sans-serif" font-size="13" lengthAdjust="spacingAndGlyphs" textLength="85" x="392.25" y="451.0669">Retrieve data</text><!--MD5=[c1f294d85358f48b3f10f6343f6ca934]
link Chariott to ivdts--><path d="M244.19,1026 C255.23,1026 266.27,1026 277.31,1026 " fill="none" id="Chariott-ivdts" style="stroke: #A80036; stroke-width: 1.0;"/><polygon fill="#A80036" points="282.38,1026,273.38,1022,277.38,1026,273.38,1030,282.38,1026" style="stroke: #A80036; stroke-width: 1.0;"/><polygon fill="#A80036" points="239.12,1026,248.1314,1029.9743,244.12,1025.9857,248.1085,1021.9743,239.12,1026" style="stroke: #A80036; stroke-width: 1.0;"/><!--MD5=[f22bbdf22fac5152a1d1851ea6c95475]
link ivdts to provider--><path d="M511.01,1026 C528.16,1026 545.31,1026 562.46,1026 " fill="none" id="ivdts-provider" style="stroke: #A80036; stroke-width: 1.0;"/><polygon fill="#A80036" points="567.78,1026,558.78,1022,562.78,1026,558.78,1030,567.78,1026" style="stroke: #A80036; stroke-width: 1.0;"/><polygon fill="#A80036" points="505.68,1026,514.68,1030,510.68,1026,514.68,1022,505.68,1026" style="stroke: #A80036; stroke-width: 1.0;"/><!--MD5=[4701cf35e05d2ce81759545c02702a23]
@startuml
skinparamlocked backgroundColor fefefe

cloud {
    [Mapping Service] as cloudMappingSvc
}

cloud {
    [Cloud Digital Twin]
}

package "Vehicle" {
    frame "Freyja" {
        [Cartographer]
        interface "Digital Twin Adapter"
        interface "Mapping Adapter"
        [Emitter]
        interface "Cloud Adapter"
        database "Signal Store"
        [Data Adapter Selector]
        node "Data Adapters" {
            [Data Adapter] as data_adapter
        }
        [Service Discovery Adapter Selector]
    }

    [Chariott]

    frame "Ibeji" {
        [In-Vehicle Digital Twin Service] as ivdts
        node "Digital Twin Providers" {
            [Digital Twin Provider] as provider
        }
    }

    [Cloud Connector]
    [Mapping Service] as ivMappingSvc
}

[Emitter] -u-> [Cloud Adapter] : Emit Data
[Cloud Adapter] -u-> [Cloud Connector] : Emit Data
[Cartographer] <-u-> [Mapping Adapter] : Get Mapping
[Mapping Adapter] <-[norank]-> [ivMappingSvc] : Get Mapping
[ivMappingSvc] <.u.> [cloudMappingSvc]
[Cloud Connector] -u-> [Cloud Digital Twin]
[Cartographer] -d-> [Digital Twin Adapter]
[Digital Twin Adapter] -d-> [Service Discovery Adapter Selector] : Discover Ibeji
[Service Discovery Adapter Selector] -d-> [Chariott] : Discover Ibeji
[Digital Twin Adapter] -d-> [ivdts] : Discover Providers
[Cartographer] -u-> [Signal Store] : Track Signals
[Cartographer] -r-> [Data Adapter Selector] : Register Adapters
[Data Adapter Selector] -r-> [data_adapter] : Register Adapters
[data_adapter] <-d-> [provider] : Collect data
[data_adapter] -u-> [Signal Store] : Update signal values
[Emitter] <-l- [Signal Store] : Retrieve data
[Chariott] <-r-> [ivdts]
[ivdts] <-r-> [provider]

@enduml

PlantUML version 1.2020.02(Sun Mar 01 10:22:07 UTC 2020)
(GPL source distribution)
Java Runtime: OpenJDK Runtime Environment
JVM: OpenJDK 64-Bit Server VM
Java Version: 11.0.22+7
Operating System: Linux
Default Encoding: UTF-8
Language: en
Country: null
--></g></svg>